<svg xmlns="http://www.w3.org/2000/svg" width="245.045" height="131.732" viewBox="0 0 245.045 131.732"><defs><style>.a,.x{fill:#0b3f42;}.a,.w{opacity:0.46;}.b{fill:#061832;}.c{fill:rgba(15,42,82,0.62);opacity:0.56;}.d{fill:#111;}.e{fill:#070208;}.f{fill:#530905;}.g{fill:#72120c;}.h{fill:#f28b0f;}.i{fill:#f3f5f4;}.j{fill:#b6cec4;}.k{fill:#fff;}.l{opacity:0.55;}.am,.m{fill:#fed45c;}.n{fill:#d3e0db;}.o{fill:none;stroke:#000;stroke-miterlimit:10;stroke-width:4px;}.p{fill:#ffc83e;}.q{fill:#d6630d;}.r{opacity:0.51;}.s{opacity:0.33;}.t{opacity:0.54;}.u{opacity:0.32;}.v{fill:#296f7a;}.y{fill:#062828;}.z{opacity:0.85;}.aa{fill:#524e53;}.ab{fill:#9ab5a9;}.ac{opacity:0.3;}.ad{opacity:0.26;}.ae{fill:#fcdccd;}.af{opacity:0.82;}.ag{fill:#f2ad94;}.ah{fill:#282828;}.ai{opacity:0.63;}.aj{fill:#ea9378;}.ak{fill:#f98262;}.al{opacity:0.47;}.am{stroke:#fed45c;stroke-width:2px;}</style></defs><g transform="translate(0 1.037)"><g transform="translate(0 0)"><path class="a" d="M3657.6,1950.279q-.063.462-.161.917c-.405.694-.82,1.365-1.257,1.982Z" transform="translate(-3455.514 -1871.465)"/><g transform="translate(0 0)"><g transform="translate(7.439 107.58)"><path class="b" d="M1125.523,2422.358q16.1-.088,32.189-.912c9.618-.5,19.11.47,28.274-2.842,12.343-4.462-4.16-8.007-9.56-7.986-13.324.053-26.859-1.31-40.166-1.958-5.533-.27-11.193-.564-16.3-2.461-5.957-2.212-10.649-5.25-17.115-6.2a119.274,119.274,0,0,0-16.547-.746q-20.441-.111-40.828,1.546c-18.334,1.495-36.524,4.061-54.806,5.943-6.678.687-13.368,1.292-20.074,1.718-5.468.347-12.127-.857-16.562,2.646-7.183,5.677,21.008,8.3,24.427,8.2,24.539-.754,49.062-.321,73.578,0C1076.473,2419.635,1100.923,2422.492,1125.523,2422.358Z" transform="translate(-952.86 -2399.248)"/></g><g transform="translate(0 0)"><path class="c" d="M749.053,764.7c.07,14.843-5.952,30.493-15,42.071q-1.732,2.216-3.6,4.224-.483.517-.977,1.008a39.3,39.3,0,0,1-13.551,8.75,63.392,63.392,0,0,1-12.44,3.352c-5.24.916-10.651,1.41-16.052,1.942-17.253,1.7-34.58,2.445-51.9,3.119-20.791.809-41.54,1.915-62.3,2.922q-6.092.3-12.186.577a38.44,38.44,0,0,1-19.34-4.113,28.319,28.319,0,0,1-8.779-7.025q-.4-.489-.78-.994a32.147,32.147,0,0,1-4.295-8.024,47.594,47.594,0,0,1-2.005-7.078c-.348-1.683-.621-3.377-.839-5.06-.18-1.394-.322-2.781-.437-4.146q-.111-1.315-.174-2.632-.089-1.8-.091-3.61a76.109,76.109,0,0,1,3.863-24.033,58.9,58.9,0,0,1,10.983-19.5c11.78-13.879,29.243-21.867,46.9-25.052,8.88-1.6,17.5-1.33,26.329-.708,2.2.155,4.418.332,6.655.507q19.11,1.495,38.137,3.878c19.135,2.4,38.516-1.574,57.719.97,16.334,2.163,30.067,12.871,33.276,29.459A49.706,49.706,0,0,1,749.053,764.7Z" transform="translate(-524.311 -720.201)"/></g><g transform="translate(23.698 29.436)"><g transform="translate(142.775 49.344)"><path class="d" d="M3122.963,1951.553a2.126,2.126,0,0,1,.448-.733c1.713-1.733,2.1,3.275,2.276,4.489a36.01,36.01,0,0,1,.285,5.812c-.019.931-.825,4.97-.322,5.643-1.67-2.235-1.968-6.543-2.625-9.233-.485-1.986-1.079-5.838.654-7.384a1.328,1.328,0,0,1,1.486-.264,1.789,1.789,0,0,1,.705,1.166c.825,3.159.007,6.512.342,9.76.244,2.367,1.1,4.782.422,7.065a1.689,1.689,0,0,1-.652-1.349Z" transform="translate(-3122.52 -1949.752)"/></g><g transform="translate(114.227 46.945)"><path class="e" d="M2676.954,1917.162s3.383.848,6.765,6.858c0,0,.569-11.7-2.782-11.7C2680.936,1912.322,2678.319,1912.156,2676.954,1917.162Z" transform="translate(-2676.954 -1912.321)"/></g><g transform="translate(0.417 45.539)"><g transform="translate(51.326 11.601)"><ellipse class="f" cx="10.305" cy="14.141" rx="10.305" ry="14.141"/><g transform="translate(9.733 2.73)"><path class="f" d="M1864.217,2125.4c0,6.276-2.366,11.362-5.284,11.362s-5.284-5.087-5.284-11.362,2.366-11.363,5.284-11.363S1864.217,2119.128,1864.217,2125.4Z" transform="translate(-1853.65 -2114.041)"/></g></g><g transform="translate(129.643)"><path class="g" d="M2940.153,1911.493c0,11.667-3.6,21.125-8.04,21.125s-8.04-9.458-8.04-21.125,3.6-21.124,8.04-21.124S2940.153,1899.827,2940.153,1911.493Z" transform="translate(-2924.073 -1890.369)"/><g transform="translate(8.242 7.441)"><path class="h" d="M3059.035,2020.641c0,7.805-1.417,14.133-3.166,14.133s-3.165-6.327-3.165-14.133,1.417-14.133,3.165-14.133S3059.035,2012.835,3059.035,2020.641Z" transform="translate(-3052.703 -2006.508)"/></g><g transform="translate(10.127 12.566)"><path class="i" d="M3086.376,2095.968c0,5.233-.951,9.475-2.123,9.475s-2.123-4.242-2.123-9.475.95-9.475,2.123-9.475S3086.376,2090.735,3086.376,2095.968Z" transform="translate(-3082.131 -2086.493)"/></g></g><g transform="translate(0 5.415)"><path class="f" d="M930.011,1995.016a27.59,27.59,0,0,1-.226,3.536,25.76,25.76,0,0,1-.977,4.456v0a20.6,20.6,0,0,1-4.477,7.911,12.338,12.338,0,0,1-8.986,4.22c-7.623,0-13.888-7.983-14.6-18.189h0q-.066-.956-.067-1.935c0-.335.006-.669.019-1,.379-10.65,6.791-19.126,14.646-19.126a10.9,10.9,0,0,1,1.894.166q.116.02.232.043a11.365,11.365,0,0,1,1.877.549q.327.127.648.275C925.815,1978.591,930.011,1986.131,930.011,1995.016Z" transform="translate(-900.68 -1974.89)"/><g transform="translate(9.354 3.915)"><path class="g" d="M1064.311,2053.046c0,9.415-3.948,17.048-8.819,17.048s-8.819-7.633-8.819-17.048,3.949-17.048,8.819-17.048S1064.311,2043.631,1064.311,2053.046Z" transform="translate(-1046.673 -2035.998)"/></g><g transform="translate(14.66 10.431)"><path class="j" d="M1139.735,2149.24c0,6.379-2.294,11.551-5.123,11.551s-5.123-5.172-5.123-11.551,2.294-11.55,5.123-11.55S1139.735,2142.861,1139.735,2149.24Z" transform="translate(-1129.49 -2137.69)"/></g></g><g transform="translate(96.547 5.148)"><path class="g" d="M2434.249,1990.834a30.187,30.187,0,0,1-.169,3.2c-.034.336-.073.646-.113.925q-.126.912-.306,1.792a21.913,21.913,0,0,1-4.911,10.355,10.686,10.686,0,0,1-7.865,3.852c-5.593,0-10.384-5.175-12.377-12.519a29.155,29.155,0,0,1-.987-7.6,27.6,27.6,0,0,1,2.342-11.383c2.408-5.28,6.446-8.742,11.021-8.742a9.064,9.064,0,0,1,2.212.274,9.753,9.753,0,0,1,1.745.623c.1.045.191.09.286.138a12.378,12.378,0,0,1,3.305,2.481,17.815,17.815,0,0,1,2.916,4.091q.2.385.394.784l0,.009A27.44,27.44,0,0,1,2434.249,1990.834Z" transform="translate(-2407.522 -1970.709)"/><g transform="translate(11.729 5.719)"><path class="h" d="M2603.53,2074.269c0,7.9-2.9,14.305-6.478,14.305s-6.478-6.4-6.478-14.305,2.9-14.305,6.478-14.305S2603.53,2066.368,2603.53,2074.269Z" transform="translate(-2590.574 -2059.963)"/></g><g transform="translate(13.539 8.603)"><path class="i" d="M2629.151,2116.368c0,6.289-2.309,11.388-5.157,11.388s-5.156-5.1-5.156-11.388,2.309-11.388,5.156-11.388S2629.151,2110.078,2629.151,2116.368Z" transform="translate(-2618.838 -2104.98)"/></g></g></g><g transform="translate(35.633 10.197)"><g transform="translate(0.082 0.099)"><path class="k" d="M1451.586,1340.991q.406-.34.808-.672C1452.127,1340.541,1451.857,1340.764,1451.586,1340.991Z" transform="translate(-1451.586 -1340.319)"/></g><path d="M1450.466,1339.645l-.164-.2q.407-.341.809-.673l.163.2-.231.192Z" transform="translate(-1450.302 -1338.776)"/></g><g transform="translate(39.639 6.89)"><g transform="translate(0.079 0.102)"><path class="k" d="M1514.063,1289.472c.318-.249.631-.492.936-.725Q1514.541,1289.1,1514.063,1289.472Z" transform="translate(-1514.063 -1288.747)"/></g><path d="M1512.987,1288.085l-.158-.2h0c.362-.283.66-.514.937-.726h0l.155.2C1513.645,1287.573,1513.347,1287.8,1512.987,1288.085Z" transform="translate(-1512.829 -1287.157)"/></g><g transform="translate(40.576 6.182)"><g transform="translate(0.078 0.103)"><path class="k" d="M1528.676,1278.424q.48-.367.935-.707Q1529.155,1278.058,1528.676,1278.424Z" transform="translate(-1528.676 -1277.718)"/></g><path d="M1527.615,1277.025l-.156-.2c.338-.258.644-.49.937-.708l.153.206C1528.263,1276.534,1527.957,1276.765,1527.615,1277.025Z" transform="translate(-1527.46 -1276.114)"/></g><g transform="translate(41.778 5.439)"><g transform="translate(0.076 0.104)"><path class="k" d="M1547.4,1266.685q.387-.286.755-.547Q1547.783,1266.4,1547.4,1266.685Z" transform="translate(-1547.396 -1266.138)"/></g><path d="M1546.359,1265.262l-.152-.206c.243-.18.491-.359.756-.548l.149.209C1546.886,1264.878,1546.64,1265.057,1546.359,1265.262Z" transform="translate(-1546.207 -1264.508)"/></g><g transform="translate(42.716 4.487)"><g transform="translate(0.074 0.107)"><path class="k" d="M1562.009,1252.152c.422-.3.824-.574,1.2-.82C1562.833,1251.578,1562.432,1251.853,1562.009,1252.152Z" transform="translate(-1562.009 -1251.332)"/></g><path d="M1561,1250.687l-.148-.209c.434-.308.84-.585,1.207-.823l.14.215C1561.843,1250.1,1561.451,1250.369,1561,1250.687Z" transform="translate(-1560.852 -1249.655)"/></g><g transform="translate(43.921 4.28)"><g transform="translate(0.071 0.109)"><path class="k" d="M1580.772,1248.339c.108-.071.214-.14.318-.2Z" transform="translate(-1580.772 -1248.134)"/></g><path d="M1579.806,1246.854l-.141-.214c.124-.083.227-.149.322-.207l.136.217Q1579.967,1246.749,1579.806,1246.854Z" transform="translate(-1579.665 -1246.433)"/></g><g transform="translate(135.468 20.097)"><g transform="translate(0.12 0.045)"><path class="k" d="M3010.5,1494.407q-.077-.213-.156-.423Q3010.42,1494.194,3010.5,1494.407Z" transform="translate(-3010.34 -1493.984)"/></g><path d="M3008.622,1493.794q-.043-.122-.088-.242c-.022-.06-.045-.12-.067-.18l.24-.09h0c.023.061.046.121.068.182.03.08.06.161.088.242h0Z" transform="translate(-3008.467 -1493.283)"/></g><g transform="translate(135.373 19.846)"><g transform="translate(0.12 0.046)"><path class="k" d="M3008.958,1490.341l-.094-.249Z" transform="translate(-3008.864 -1490.092)"/></g><path d="M3007.091,1489.715c-.018-.045-.034-.09-.051-.135l-.043-.113h0l.239-.092h0l.044.115.051.135Z" transform="translate(-3006.996 -1489.375)"/></g><g transform="translate(135.308 19.676)"><g transform="translate(0.119 0.047)"><path class="k" d="M3007.906,1487.61c-.021-.057-.043-.113-.065-.17C3007.862,1487.5,3007.884,1487.553,3007.906,1487.61Z" transform="translate(-3007.84 -1487.44)"/></g><path d="M3006.042,1486.976l-.037-.095-.029-.074s0,0,0,0l.239-.093h0l.029.074.037.1h0Z" transform="translate(-3005.976 -1486.714)"/></g><g transform="translate(130.135 10.306)"><g transform="translate(0.101 0.079)"><path class="k" d="M2930.66,1347.988c.467.943.927,1.968,1.347,3.047a41.486,41.486,0,0,0-5.017-9.11c-.058-.077-.116-.153-.174-.228.058.075.118.151.176.228A40.892,40.892,0,0,1,2930.66,1347.988Z" transform="translate(-2926.816 -1341.697)"/></g><path d="M2930.409,1349.934a41.728,41.728,0,0,0-5-9.079l-.022-.03-.151-.2.2-.157.019.025c.052.067.1.135.157.2a41.4,41.4,0,0,1,3.681,6.083h0c.5,1.016.958,2.045,1.352,3.058Z" transform="translate(-2925.236 -1340.471)"/></g><g transform="translate(110.249 0.009)"><g transform="translate(0.699 0.128)"><path class="k" d="M2625.779,1181.778c.02,0,.076-.005.167-.008-.1.005-.157.01-.157.01Z" transform="translate(-2625.779 -1181.77)"/></g><path d="M2615.556,1180.039l-.017-.005-.017,0-.659-.219.713-.032c.029,0,.079,0,.149-.007l.01.256-.154.01Z" transform="translate(-2614.864 -1179.771)"/></g><g transform="translate(112.34 0.022)"><g transform="translate(0.002 0.128)"><path class="k" d="M2647.532,1181.966h0Z" transform="translate(-2647.532 -1181.966)"/></g><path d="M2647.508,1180.226h-.007l.009-.256h.006Z" transform="translate(-2647.501 -1179.969)"/></g><g transform="translate(111.108 0)"><g transform="translate(0.006 0.128)"><path class="k" d="M2629.6,1181.647c-.587-.031-1.009-.022-1.228-.013C2628.583,1181.625,2629.006,1181.616,2629.6,1181.647Z" transform="translate(-2628.37 -1181.626)"/></g><path d="M2629.507,1179.9h0c-.59-.031-1.014-.021-1.215-.012l-.011-.256c.2-.009.635-.02,1.24.012Z" transform="translate(-2628.28 -1179.625)"/></g><g transform="translate(112.346 0.023)"><g transform="translate(0.007 0.128)"><path class="k" d="M2647.705,1181.976l.155.009Z" transform="translate(-2647.705 -1181.976)"/></g><path d="M2647.751,1180.244h0l-.151-.009h0l.013-.256h0l.154.009h0Z" transform="translate(-2647.598 -1179.979)"/></g><g class="l" transform="translate(92.607 50.961)"><path class="f" d="M2365.115,2011.115a10.686,10.686,0,0,1-7.864,3.852c-5.594,0-10.384-5.175-12.377-12.519-1.633.047-3.422.1-5.343.147.366-6.889,2.324-13.836,6.7-19.135.04-.049.08-.1.121-.147,3.343-3.986,8.1-7.358,13.112-8.32a9.736,9.736,0,0,1,1.745.623c.1.045.191.09.285.138a12.381,12.381,0,0,1,3.306,2.481c-.011.035-.022.069-.032.1q-.413,1.357-.758,2.734-.3,1.2-.551,2.412a57.624,57.624,0,0,0-.446,20.811c.091.561.193,1.124.312,1.686a23.293,23.293,0,0,0,.647,2.457A14.926,14.926,0,0,0,2365.115,2011.115Z" transform="translate(-2339.531 -1974.992)"/></g><g transform="translate(0 0.07)"><path class="m" d="M1041.828,1245.809a9.588,9.588,0,0,1-1.566,3.8s.062-1.192.117-2.974c.016-.5.03-1.037.042-1.612.122-5.674.042-14.561-1.683-14.262a.759.759,0,0,0-.311.143,5.662,5.662,0,0,0-.707.886s0,0,0,0c-.081.119-.166.25-.255.394-.152.247-.313.532-.477.857s-.334.7-.5,1.107h0a21.811,21.811,0,0,0-1.417,6.662c-.01.144-.019.29-.028.437v.006c-.043.791-.059,1.633-.039,2.53a33.761,33.761,0,0,1-.225,4.024c-.076.645-.175,1.326-.307,2.008-.022.117-.046.235-.071.352h0c-.028.133-.057.265-.088.4a12.86,12.86,0,0,1-1.138,3.2q-.161.3-.342.566a5.479,5.479,0,0,1-.409.536,3.421,3.421,0,0,1-1.945,1.185l-5.432.544h0l-7.773.779-.033,0a15.859,15.859,0,0,0,.324-1.689l.015-.106c.039-.28.078-.589.113-.926.008-.085.017-.17.026-.259,0-.02,0-.039.006-.06.013-.132.022-.266.033-.4a30.085,30.085,0,0,0-2.4-14.208s0-.006,0-.009q-.094-.215-.192-.432s0-.006,0-.02v0c0-.075-.008-.312-.023-.668-.094-2.248-.537-9.276-2.415-10.6l-.033-.022a1.111,1.111,0,0,0-.413-.174c-.617-.121-1.366.319-2.273,1.589a9.253,9.253,0,0,0-.841,1.892c-.007.018-.014.036-.022.053-.125.31-.261.654-.4,1.031-.02.053-.041.107-.06.161h0q-.166.44-.34.938-.123.35-.249.726c-.375,1.12-.766,2.414-1.134,3.856h0c-.253.989-.5,2.049-.714,3.17q-.135.694-.258,1.417-.154.908-.283,1.861v0c-.024.184-.049.37-.071.558a52.474,52.474,0,0,0-.4,6.819q0,.635.025,1.28c0,.114.008.227.012.341l-.027.09c-.011.047-.026.113-.047.194-.057.215-.151.542-.282.935v0c-.037.111-.075.227-.119.348l-.01.032a14.281,14.281,0,0,1-.629,1.508,10.237,10.237,0,0,1-.615,1.092h0a6.348,6.348,0,0,1-.822,1.031s-4.048.143-10.59.331l-.62.018h-.057l-.272.008-.627.018-.987.027-.336.01-.194.005-.724.019h-.032l-.078,0-1.388.036h-.039l-1.5.039-.11,0-.664.017c-5.748.148-12.487.3-19.659.413h-.067c-2.5.041-5.051.077-7.631.108-3.119.037-6.282.065-9.445.083-8.6.049-17.207.017-24.977-.153h0q-.977-.021-1.936-.046-1.031-.025-2.04-.056h0q-1.673-.049-3.278-.109c-1.937-.07-3.793-.153-5.551-.249-1.9-.1-3.687-.22-5.337-.355q-1.329-.109-2.537-.229c-.328-.034-.65-.067-.964-.1q-.4-.043-.78-.089h0c-.383-.045-.753-.092-1.112-.142h0c-.95-.128-1.811-.268-2.576-.414a20.527,20.527,0,0,1-1.946-4.267h0c-.067-.215-.128-.433-.185-.653a8.237,8.237,0,0,1-.3-2.271c0-.108.008-.214.018-.319,0,0,.063-18.314,4.688-25.757a15.569,15.569,0,0,1,.388-3.522.009.009,0,0,1,0,0,16.089,16.089,0,0,1,1.083-3.283l.014-.029a13.316,13.316,0,0,1,1.9-3.023c.058-.069.116-.137.176-.2.027-.031.055-.063.085-.095s.038-.044.059-.066c.049-.053.1-.108.149-.16a.187.187,0,0,1,.018-.02.215.215,0,0,1,.024-.024c.033-.036.068-.071.1-.106a.611.611,0,0,1,.045-.048l.076-.075c.033-.035.067-.068.1-.1.06-.059.121-.116.182-.174.036-.034.073-.068.11-.1l.078-.071c.022-.02.044-.039.066-.058q.146-.129.3-.254c.017-.014.033-.026.049-.041l.111-.09c.094-.076.188-.149.285-.22l.122-.091.06-.044c.021-.013.04-.027.06-.043l.09-.063.03-.021c.009-.006.017-.013.027-.019l.008-.007.162-.11.134-.088,0,0,.172-.11.042-.026.11-.067.056-.034.115-.068.038-.022.093-.054a.047.047,0,0,1,.011-.006l.082-.046.031-.018.156-.087.049-.025.037-.018.019-.01c.09-.047.181-.094.274-.141l.122-.06c.114-.056.229-.11.347-.163l.135-.06.021-.009c.076-.034.151-.066.228-.1l.144-.06.018-.007.238-.093h0c.082-.031.165-.062.249-.092.168-.062.34-.12.515-.175.087-.028.174-.056.263-.082l.5-.474.377-.354.223-.211c.053-.048.107-.1.163-.152l.172-.161c.651-.611,1.5-1.4,2.5-2.332.5-.459,1.027-.951,1.591-1.47l.093-.085c.082-.076.167-.152.252-.233l0,0c.11-.1.222-.2.336-.307.666-.615,1.372-1.262,2.105-1.93.073-.066.147-.132.219-.2l.484-.44c.213-.194.43-.389.648-.588q1.056-.957,2.164-1.952l.44-.392q.242-.218.487-.436l.479-.429,1.324-1.172.394-.348q.741-.652,1.485-1.3l.21-.183c.094-.084.19-.166.285-.248l.208-.18q.42-.367.841-.729l.377-.325c.759-.654,1.515-1.3,2.258-1.922l.241-.2.48-.4.174-.145.137-.114.037-.031c.01-.009.02-.016.029-.025l.029-.024h0l.068-.056.053-.044.281-.233c.554-.459,1.1-.906,1.634-1.337l.343-.275.222-.18.222-.176q.391-.311.774-.613l.067-.051.066-.052c.035-.027.07-.053.1-.081h0l.4-.309.07-.054.088-.068.028-.021.113-.088.238-.181.236-.178h0c.156-.118.31-.235.461-.347l.07-.051.194-.144.192-.141.19-.139.186-.134h0l.026-.019.158-.113.182-.129.158-.111.091-.063c.023-.014.044-.03.065-.044l.076-.053.076-.053.152-.1q.112-.078.223-.151l.074-.049.058-.038c.029-.021.057-.039.086-.058l.142-.093.044-.028.019-.014.034-.022.095-.061.027-.017.1-.063a9.267,9.267,0,0,1,2.456-1.223s7.438-.936,19.314-1.778c6.716-.477,14.851-.924,23.862-1.155l.381-.01q1.146-.029,2.31-.053,1.1-.021,2.209-.04.8-.013,1.6-.022l.334,0q1.692-.02,3.416-.029c.256,0,.513,0,.77,0,2.955-.011,5.973.007,9.037.057l.777.013.163,0,.006,0h.015l.065-.005h.008l.018,0h.029l.032,0,.086,0,.1,0h.06a.043.043,0,0,1,.019,0c.124,0,.275,0,.451,0l.176,0h.078l.144.006.056,0,.058,0h0l.045,0h.023l.07,0a23.529,23.529,0,0,1,14.353,6.507c.192.177.384.359.574.546a31.094,31.094,0,0,1,2.829,3.173l.044.056.044.057.044.057a.271.271,0,0,1,.019.027l.023.031.02.025.015.02.019.025.029.039.021.028.03.042.025.033,0,0,.022.029a.016.016,0,0,1,0,.006,55.063,55.063,0,0,1,4.442,7.012,74.522,74.522,0,0,1,3.216,6.845c.051.123.1.246.152.37h0q.2.5.4,1c.066.167.131.335.2.5a.377.377,0,0,1,.014.037l.122.317c.02.051.04.1.059.155.082.211.162.425.242.637.063.169.125.337.187.5q.259.7.508,1.4.159.447.315.9.112.319.222.641c.013.035.025.071.036.106.031.087.06.175.09.263q.18.529.355,1.057c.071.211.14.421.21.632h0c.618,1.88,1.205,3.769,1.783,5.657q.114.372.227.744c.8,2.613,1.575,5.219,2.388,7.79C1039.935,1228.085,1043.288,1238.7,1041.828,1245.809Z" transform="translate(-894.169 -1180.72)"/></g><g transform="translate(136.521 23.534)"><g transform="translate(0.125 0.03)"><path class="k" d="M3026.858,1547.407c.177.731.322,1.474.426,2.223C3027.178,1548.881,3027.034,1548.138,3026.858,1547.407Z" transform="translate(-3026.858 -1547.407)"/></g><path d="M3025.338,1549.208c-.1-.716-.243-1.46-.424-2.211l.249-.06c.184.758.328,1.51.428,2.235h0Z" transform="translate(-3024.914 -1546.937)"/></g><g transform="translate(136.945 25.768)"><g transform="translate(0.127 0.02)"><path class="k" d="M3033.534,1582.344c-.01-.08-.021-.16-.031-.24.011.073.021.147.031.22A.172.172,0,0,1,3033.534,1582.344Z" transform="translate(-3033.503 -1582.105)"/></g><path d="M3031.553,1582.07c-.007-.053-.014-.107-.021-.161l-.01-.077.254-.037c.012.074.021.148.031.222a.315.315,0,0,1,0,.037Z" transform="translate(-3031.521 -1581.795)"/></g><g transform="translate(15.714 20.652)"><path class="f" d="M1147.737,1502.232l-4.218,3.952-1.465,1.309-1.022.912-1.61-.539.4-2.141a8.051,8.051,0,0,1,2.963-3A6.356,6.356,0,0,1,1147.737,1502.232Z" transform="translate(-1139.423 -1501.945)"/></g><g transform="translate(113.468 1.708)"><path class="g" d="M2675.482,1209.513s-10.564-7.814-10.363.839c0,0,1.86,22.491,5.55,26.113,0,0,15.654-3.072,17.951-5.616C2689.449,1229.93,2682.228,1213.368,2675.482,1209.513Z" transform="translate(-2665.117 -1206.276)"/></g><g transform="translate(115.116 4.118)"><path class="n" d="M2703.868,1263.97s-.508.32-1.286.72c-1.84.945-5.2,2.333-6.964.991a2.926,2.926,0,0,1-.573-.611,11.685,11.685,0,0,1-1.326-2.69c0-.009-.006-.017-.009-.026-.017-.043-.033-.087-.048-.131-.315-.858-.61-1.8-.879-2.762-.219-.779-.42-1.567-.6-2.325-.242-1-.449-1.956-.617-2.766-.148-.718-.263-1.325-.344-1.758-.084-.453-.129-.716-.129-.716a22.549,22.549,0,0,1-.243-2.388c-.1-2.146.079-5.025,1.752-5.459a7.22,7.22,0,0,1,2.111-.106.644.644,0,0,1,.4.207c.5.7,1.019,1.485,1.554,2.346.263.424.531.868.8,1.329.405.7.815,1.434,1.221,2.21q.671,1.279,1.325,2.7l0,.009c.747,1.626,1.466,3.386,2.122,5.267.037.107.074.213.11.32A58.508,58.508,0,0,1,2703.868,1263.97Z" transform="translate(-2690.823 -1243.893)"/></g><g transform="translate(121.815 5.895)"><path class="n" d="M2807.392,1287.821s-1.986.752-3.438,1.128l-.15.038c-.647.159-1.165.232-1.308.109a34.029,34.029,0,0,1-1.528-4.123c-.14-.407-.289-.833-.445-1.272-.026-.074-.052-.149-.079-.224l-.229-.644c-.318-.892-.661-1.824-1.019-2.757-.222-.579-.451-1.158-.685-1.727a31.571,31.571,0,0,0-2.857-5.685,1.852,1.852,0,0,1-.271-.648c-.029-.247.085-.45.607-.358l.04.022a23.242,23.242,0,0,1,4.8,3.91c.291.3.586.624.88.962.185.212.37.431.555.658q.4.492.8,1.03l0,.008a25.323,25.323,0,0,1,1.963,3.12q.413.774.786,1.614.4.906.744,1.887A24.908,24.908,0,0,1,2807.392,1287.821Z" transform="translate(-2795.378 -1271.633)"/></g><g transform="translate(26.221 2.58)"><path class="g" d="M1325.462,1221.729c2.611-.52,44.591-2.705,61.616-1.448.693.051,1.09.86,1.1,1.564.094,4.378.164,20.945-3.405,19.566,0,0-62.386-.308-79.621.288a1.707,1.707,0,0,1-1.253-2.9c4.946-5.064,14.8-14.57,21.277-16.99A1.747,1.747,0,0,1,1325.462,1221.729Z" transform="translate(-1303.416 -1219.897)"/></g><g transform="translate(68.322 22.189)"><path class="n" d="M1960.5,1525.936l4.958.007C1964,1526.016,1961.664,1526.42,1960.5,1525.936Z" transform="translate(-1960.501 -1525.936)"/></g><g transform="translate(73.28 22.185)"><path class="n" d="M2048.126,1525.884c3.109,0,6.038.011,8.682.017l.095.015-19.024-.027c.138-.008.268-.011.388-.011Q2043.2,1525.877,2048.126,1525.884Z" transform="translate(-2037.879 -1525.877)"/></g><g transform="translate(29.771 4.24)"><path class="n" d="M1437.729,1250.613c-.043,5.387-.528,14.13-3.193,13.2,0,0-5.366-.023-13.287-.043-4.094-.658-7.7-3.234-11.5-4.862a37.341,37.341,0,0,1,9.564-.856l-2.576-2.446a30.321,30.321,0,0,0,5.4-2.2,32.911,32.911,0,0,1-3.355-4.172q-.582-.855-1.106-1.744c.12.2-2.051,3-2.3,3.3-.859,1.028-1.828,1.238-2.989,1.783a46.485,46.485,0,0,0-5.3,3.135l-1.775-3.256a52.741,52.741,0,0,1-2.912,5.965c-.321.543-.656,1.073-1.008,1.585a1.757,1.757,0,0,1-1.857,1.015l-1.763-.005-2.329-.007a4.139,4.139,0,0,1,.6.979c.34.748.5,1.418,1.328,1.762h-.755l-3.723.005-1.224,0-.974,0-.73,0-1.2,0-.981,0-.722,0-1.02,0-1.013,0-.5,0-1,0-.5,0-.5,0-.987,0-1.754.009-.566,0h-.107l-1.425.009h-.144l-1.254.008-.921.007-.837.006-1.523.014-.511,0-.651.006-.213,0-.211,0-.21,0h-.069l-.349,0-.526.006-.241,0h-.056l-.405,0h-.015l-.385,0-.318,0-.231,0-.253,0-1.1.015-.219,0-.367.005h-.067l-.427.007h-.051l-.357.006h-.012l-.412.007-.444.008-.358.006-.39.008-.94.019-.253.005-.6.014h-.036l-.256.006-.563.014-.177,0h-.024l-.2.005-.391.011-.275.009a1.419,1.419,0,0,1-1.167-2.428c4.6-4.24,13.774-12.2,19.8-14.223a1.781,1.781,0,0,1,.26-.066c.928-.166,7.194-.536,15.472-.869l.489-.02.623-.024.192-.008.441-.017.737-.028,1.514-.056.664-.024.255-.009.625-.022c2.085-.072,4.24-.139,6.423-.2l.861-.024,1.863-.047.894-.021q1.187-.027,2.375-.05l.466-.009.472-.009.925-.016.671-.011.529-.008.192,0,.865-.012q1.411-.021,2.8-.031l.9-.008.764,0h.177c1.04-.005,2.064-.007,3.067,0h.306c4.536.015,8.622.11,11.783.32a1.266,1.266,0,0,1,1.029,1.31C1437.723,1248.162,1437.739,1249.285,1437.729,1250.613Z" transform="translate(-1358.81 -1245.805)"/></g><g transform="translate(121.209 58.924)"><path class="k" d="M2785.921,2099.27" transform="translate(-2785.921 -2099.27)"/><path class="o" d="M2785.921,2099.27" transform="translate(-2785.921 -2099.27)"/></g><g transform="translate(118.2 32.344)"><path class="k" d="M2738.965,1684.439" transform="translate(-2738.965 -1684.439)"/><path class="o" d="M2738.965,1684.439" transform="translate(-2738.965 -1684.439)"/></g><g transform="translate(6.551 46.182)"><path class="g" d="M1080.956,1932.831c-23.961.619-66.138,1.328-84.2-.677l-.177-.37a3.75,3.75,0,0,1,.2-2.753c.661-1.319,1.232-3.171,1.715-3.477l.1-.04c.5-.1,1.513-17.514,9.964-19.422,0,0,8.308-3.3,13.971-4.871,2.35-.651,4.245-1,4.9-.7,2.246,1.038,22.94.137,22.94.137s1.094.15,2.826.481c5.594,1.071,17.842,4.039,21.321,9.983,0,0,5.063,9.658,5.369,14.793Z" transform="translate(-996.407 -1900.411)"/></g><g transform="translate(8.095 24.03)"><path class="p" d="M1118.138,1559.336l-7.751.337-.752.032-4.587.2-2.31.1-72.729,3.165-1.694.073-.056,0a4.243,4.243,0,0,0-.667.089l-.152.028c-1.288.242-3.759.8-5.7,1.192l-.378.075c-.3.058-.588.112-.849.158h0c.057-.069.116-.137.176-.2s.094-.108.143-.161.1-.108.149-.16a.212.212,0,0,1,.018-.02.027.027,0,0,1,.007-.006.094.094,0,0,1,.017-.019c.033-.036.068-.071.1-.106.014-.016.029-.032.046-.048.058-.059.117-.118.177-.175s.121-.116.182-.174.124-.115.187-.171c.118-.106.238-.21.363-.312l.049-.041.111-.09c.093-.075.187-.148.284-.22l.122-.091.059-.043.06-.043c.03-.02.06-.041.09-.064l.03-.02.036-.026c.054-.037.107-.074.162-.11l.134-.088s0,0,0,0l.172-.11.042-.026.109-.067c.018-.012.036-.023.056-.034l.115-.068.038-.022.093-.054.011-.006.113-.064.157-.087.048-.025.036-.019c.1-.052.194-.1.294-.15l.122-.06c.114-.056.229-.11.347-.163l.135-.059a.114.114,0,0,1,.021-.009c.075-.034.151-.066.228-.1l.144-.059.018-.007.238-.093h0l.25-.091c.168-.06.34-.119.514-.175.088-.027.176-.055.265-.081l.5-.475.376-.353.223-.211.163-.152.171-.161c.651-.611,1.5-1.4,2.5-2.332.5-.459,1.027-.951,1.591-1.47l.27-.178,70.153-.609,2.31-.021,4.065-.035.608-.005.149,0,1.672-.014,4.244-.037,5.126-.044.181,0C1121.985,1556.6,1118.138,1559.336,1118.138,1559.336Z" transform="translate(-1020.508 -1554.665)"/></g><g transform="translate(6.551 71.285)"><path class="f" d="M1080.96,2299.513c-23.962.62-66.138,1.328-84.2-.676l-.177-.37a3.747,3.747,0,0,1,.2-2.753c.66-1.32,1.231-3.171,1.714-3.477l.1-.04,4.46,1.3a48.979,48.979,0,0,0,12.688,1.953q12.24.261,24.481.481c8.52.15,17.321.1,25.812-.41,4.582-.273,9.341-1.912,13.853-2.924l.6,3.719Z" transform="translate(-996.411 -2292.197)"/></g><g transform="translate(27.651 54.21)"><path class="f" d="M1365.3,2030.536a4.8,4.8,0,0,1-.945,2.871,4.9,4.9,0,0,1-.469.543,4.812,4.812,0,0,1-3.414,1.415h-29.915a4.829,4.829,0,1,1,0-9.659h29.915A4.83,4.83,0,0,1,1365.3,2030.536Z" transform="translate(-1325.724 -2025.707)"/></g><g transform="translate(28.955 54.21)"><path class="q" d="M1384.356,2030.536a3.058,3.058,0,0,1-3.524,3.617h-29.915a4.348,4.348,0,1,1-1.3-8.446h29.915A4.83,4.83,0,0,1,1384.356,2030.536Z" transform="translate(-1346.088 -2025.707)"/></g><g transform="translate(107.468 25.091)"><path class="p" d="M2605.363,1579.381a6.264,6.264,0,0,1-1.468,1.277,16.9,16.9,0,0,1-5.454,2.068c-8.353,1.894-17.519.268-25.7-1.626a10.99,10.99,0,0,0-1.274-3.362c1.094,1.458,7.784.557,9.169.434,8.036-.716,14.681-3.735,21.77-6.944C2603.491,1573.9,2604.459,1576.631,2605.363,1579.381Z" transform="translate(-2571.463 -1571.228)"/></g><g transform="translate(89.953 61.991)"><path class="h" d="M2319.683,2149.013a52.292,52.292,0,0,0-.437,9l-.027.091c-.038.174-.15.589-.329,1.129-.037.112-.076.229-.119.35l-.01.032a12.449,12.449,0,0,1-1.245,2.6,6.326,6.326,0,0,1-.822,1.03s-4.048.144-10.59.331l-.677.02c-1.447.041-3.008.083-4.666.127h-.012l-1.5.039-1.07-6.388c-.014-.247-.04-.5-.075-.772q.814.08,1.632.106a24.387,24.387,0,0,0,20.229-9.559Q2319.812,2148.06,2319.683,2149.013Z" transform="translate(-2298.105 -2147.152)"/></g><g transform="translate(0 61.272)"><path class="h" d="M904.008,2140.958c-.493,2.281-.761,4.176-.941,5.026-.063.3-.116.471-.164.481l-.1.04c-.483.306-1.055,2.157-1.715,3.477a2.984,2.984,0,0,0-.191,2.246.026.026,0,0,1,0,.006,2.126,2.126,0,0,0,.134.333l-.748-.077h0c-.383-.045-.753-.092-1.112-.141h0c-.95-.128-1.811-.268-2.576-.414a20.5,20.5,0,0,1-1.946-4.267h0q-.1-.323-.184-.653a8.24,8.24,0,0,1-.3-2.271c.144,0,.289,0,.433-.01a7.624,7.624,0,0,0,3.786-1.239c2.543-1.693,4.02-4.615,4.8-7.569a12.742,12.742,0,0,0,.088,1.288,31.268,31.268,0,0,0,.672,3.494C903.968,2140.789,903.989,2140.874,904.008,2140.958Z" transform="translate(-894.168 -2135.923)"/></g><g transform="translate(4.882 45.101)"><path class="f" d="M1056.584,1917.038h0l-1.07-6.388c-.015-.247-.041-.5-.076-.771-.705-5.271-5.293-14.022-5.293-14.022-4.555-7.783-24.146-10.463-24.146-10.463s-20.694.9-22.94-.137-18.875,5.569-18.875,5.569c-5.343,1.206-7.713,8.608-8.86,13.916-.667,3.089-.921,5.468-1.1,5.506l-.1.039c-.483.306-1.055,2.157-1.715,3.478a2.93,2.93,0,0,0-.055,2.584l-.747-.076h0l-1.1-.112-.013-.03s0,0,0,0a3.99,3.99,0,0,1,.477-3.082c.213-.425.426-.936.63-1.428a7.9,7.9,0,0,1,1.244-2.343c.057-.295.129-.718.2-1.107a64.912,64.912,0,0,1,1.556-7.176c1.465-5.061,4.09-10.495,9.108-11.708,1.941-.769,14.673-5.75,18.649-5.75a3.257,3.257,0,0,1,1.384.26c.139.048,1.281.351,7.266.351,6.554,0,14.844-.358,14.928-.361l.145-.006.143.019c.832.113,20.423,2.883,25.318,11.246.241.456,4.927,9.446,5.536,14.941.019.164.034.326.045.485l.965,6.529.008.054Z" transform="translate(-970.367 -1883.535)"/></g><g class="r" transform="translate(74.72 31.011)"><path class="f" d="M2094.377,1668.271c-.6,2.932-1,7.178-4.139,8.2-4.138,1.353-9.333,1.469-13.656,1.866-18.013,1.657-12.992.1-16.227-1.12a71.488,71.488,0,0,1,12.484-8.015,24.771,24.771,0,0,1,6.247-2.146s5.936-1.75,8.912-3.031a4.875,4.875,0,0,1,5.316.923,3.639,3.639,0,0,1,1.037,1.706A3.5,3.5,0,0,1,2094.377,1668.271Z" transform="translate(-2060.355 -1663.62)"/></g><g transform="translate(32.671 46.182)"><path class="f" d="M1434.747,1901.14a9.7,9.7,0,0,0-2.823.707c-3.085,1.61-13.214,12.191-23.409.252,0,0-1.952-.407-4.436-.877,2.35-.651,4.245-1,4.9-.7,2.246,1.038,22.94.137,22.94.137S1433.016,1900.809,1434.747,1901.14Z" transform="translate(-1404.079 -1900.411)"/></g><g transform="translate(20.658 35.534)"><path class="g" d="M1216.585,1736.738s19.066.83,20.575.327c0,0,6.641-6.338,15.9-.1,0,0,25.454-.2,27.718-.6,0,0-5.534,4.645-6.339,7.6,0,0-14.907-.453-17.993,1.157s-13.213,12.191-23.409.252c0,0-12.14-2.532-14.421-2.264C1218.614,1743.1,1217.929,1740.765,1216.585,1736.738Z" transform="translate(-1216.585 -1734.218)"/></g><g class="r" transform="translate(5.037 31.896)"><path class="f" d="M990.553,1690.882l-6.761.028c-2.648.011-6.1.626-8.669,0-4.737-1.158-1.15-7.978.75-10.219a12.282,12.282,0,0,1,3.577-2.888,3.017,3.017,0,0,1,3.958,1.031,30.092,30.092,0,0,0,2.867,3.84h.005a9.094,9.094,0,0,0,1,.961,11.347,11.347,0,0,1,2.773,3.254c.969,1.712,4.578,3.249,5.1,3.542C994.415,1690.432,991.287,1690.878,990.553,1690.882Z" transform="translate(-972.776 -1677.444)"/></g><g transform="translate(5.037 30.866)"><path class="n" d="M992.758,1674.792l-2.2.008h-.16l-5.737.024-.863,0c-2.648.012-6.1.627-8.669,0a2.766,2.766,0,0,1-2.319-2.529,5.2,5.2,0,0,1,.033-1.307.01.01,0,0,1,0,0,11.5,11.5,0,0,1,1.083-3.283l.014-.029c.177-.364.365-.716.557-1.05a14.394,14.394,0,0,1,1.346-1.973l.036-.043c.072-.086.147-.171.222-.255s.154-.169.232-.252l.12-.125.122-.123c.082-.082.166-.163.252-.243l.141-.131c.047-.043.095-.087.143-.129.1-.086.2-.17.3-.254.017-.014.033-.026.049-.041l.111-.09c.092-.074.188-.148.284-.22l.122-.091.059-.043c.02-.014.04-.028.06-.043l.09-.064.03-.02.027-.019c.1-.069.2-.137.3-.205,0,0,0,0,0,0l.172-.109.042-.026.109-.067c.018-.012.036-.023.056-.034l.115-.069.038-.022c.03-.018.062-.036.093-.053l.092-.053.031-.018.157-.087.048-.026.036-.018.02-.009a3.022,3.022,0,0,1,3.854,1.085q.113.174.232.356c.445.676.958,1.415,1.5,2.117.373.486.757.953,1.139,1.367h.005a9.22,9.22,0,0,0,1,.961,11.391,11.391,0,0,1,2.773,3.254c.445.788.944,1.633,1.4,2.344l.072.112.09.137A5.445,5.445,0,0,0,992.758,1674.792Z" transform="translate(-972.779 -1661.364)"/></g><g transform="translate(86.134 33.64)"><path class="f" d="M2259.068,1709.593a9.022,9.022,0,0,1-.6,2.876c-.037.089-.077.176-.119.262a4.29,4.29,0,0,1-.888,1.241c-1.753,1.681-5.183,1.565-7.459,1.915a42.87,42.87,0,0,1-5.186.618,10.107,10.107,0,0,1-3.776-.47,3.706,3.706,0,0,1-2.54-3.847,4.587,4.587,0,0,1,1.912-3.25,14.666,14.666,0,0,1,3.782-2.3,30.051,30.051,0,0,1,10.094-1.952,6.4,6.4,0,0,1,2.906.323,2.794,2.794,0,0,1,.567.334C2258.994,1706.281,2259.171,1708.052,2259.068,1709.593Z" transform="translate(-2238.502 -1704.663)"/></g><g transform="translate(88.218 33.64)"><path class="e" d="M2288.912,1712.469c-.006.11-.011.221-.019.331l-.1-.07a12.36,12.36,0,0,0-5.928-2.158c.7-1.064.1-2.577.986-3.334-2.149.527-4.285,1.107-6.427,1.663a22.532,22.532,0,0,1,.8,4.331,12.568,12.568,0,0,0-3.08.365,12.717,12.717,0,0,1,.114,2.907,10.106,10.106,0,0,1-3.776-.47c-.047-.113-.088-.228-.126-.343-1.066-3.256.563-6.934,3.28-9.05a30.05,30.05,0,0,1,10.094-1.952,6.4,6.4,0,0,1,2.907.323,2.953,2.953,0,0,1,.616,1.306A19.983,19.983,0,0,1,2288.912,1712.469Z" transform="translate(-2271.028 -1704.663)"/></g><g transform="translate(77.954 30.312)"><path class="n" d="M2141.618,1657.363c-.074.366-2.069,8.613-3.1,7.772l-4.838-3.945,1.668-2.28.187-.255,1.19-1.627a89.959,89.959,0,0,1-11.254,1.679,11.969,11.969,0,0,1,1.257,3.854l-4.708-.432a14.717,14.717,0,0,1,1.716,4.651c.045.241.085.485.117.729-4.309.421-8.673.191-13.021.719a17.546,17.546,0,0,1,6.779-8.466,21.027,21.027,0,0,1,2.47-1.465,24.741,24.741,0,0,1,6.248-2.146s5.936-1.75,8.912-3.032a4.875,4.875,0,0,1,5.316.924,4.07,4.07,0,0,1,.588.7,3.315,3.315,0,0,1,.448,1A3.486,3.486,0,0,1,2141.618,1657.363Z" transform="translate(-2110.83 -1652.712)"/></g><g transform="translate(120.97 57.953)"><path class="h" d="M2801.835,2093.331c-.088.755-.209,1.56-.377,2.36a12.121,12.121,0,0,1-1.568,4.167,3.716,3.716,0,0,1-2.355,1.721l-5.432.545-7.774.778-.033,0a16.238,16.238,0,0,0,.339-1.795c.04-.28.079-.589.113-.926a30.038,30.038,0,0,0-2.333-14.925s0-.005,0-.008c-.063-.144-.127-.288-.192-.432,0,0,0-.007,0-.021v0c0-.075-.008-.312-.022-.667a21.258,21.258,0,0,0,8.644,6.591A36.829,36.829,0,0,0,2801.835,2093.331Z" transform="translate(-2782.195 -2084.127)"/></g><g transform="translate(131.078 29.125)"><path class="g" d="M2939.959,1634.19a22.35,22.35,0,0,1,1.088,2.455c.08.209.161.419.234.63s.153.421.221.635l.212.639.2.642a47.548,47.548,0,0,1,1.254,5.234c.079.442.163.883.229,1.327s.14.887.192,1.333l.085.668.042.334c.014.111.024.223.035.335.045.447.094.893.136,1.34.158,1.79.225,3.586.236,5.381s-.075,3.591-.2,5.381l-.123,1.34-.062.67c-.022.223-.051.446-.076.668l-.158,1.336c-.025.223-.063.444-.1.666l-.1.665a74.363,74.363,0,0,1-2.347,10.475c.743-3.5,1.361-7.014,1.785-10.551.219-1.768.373-3.542.49-5.317l.067-1.333c.01-.222.024-.444.033-.666l.017-.667c.011-.444.03-.889.035-1.333l0-1.333,0-.333-.006-.333-.012-.666-.012-.667c0-.222-.018-.444-.025-.666l-.026-.666c-.01-.222-.015-.444-.031-.666l-.083-1.331c-.033-.443-.073-.885-.109-1.328-.01-.111-.018-.222-.029-.332l-.036-.331-.071-.663c-.042-.443-.109-.882-.162-1.323s-.12-.881-.185-1.321-.141-.878-.216-1.316c-.037-.219-.074-.439-.119-.656l-.124-.656c-.039-.219-.086-.436-.133-.654l-.138-.653-.153-.65-.076-.325-.081-.324c-.207-.866-.453-1.722-.714-2.574l-.1-.32-.1-.318c-.068-.212-.143-.422-.217-.633C2940.29,1635.019,2940.134,1634.6,2939.959,1634.19Z" transform="translate(-2939.959 -1634.19)"/></g><g class="s" transform="translate(115.856 6.72)"><g class="t"><path class="k" d="M2710.831,1290.757l-6.358,9.481c-.315-.858-.609-1.8-.878-2.762-.219-.779-.42-1.567-.6-2.325-.242-1-.449-1.956-.617-2.766,1.5-3.192,3.765-7.18,5.105-7.875.263.424.531.868.8,1.329.405.7.815,1.434,1.221,2.21q.671,1.278,1.326,2.7Z" transform="translate(-2702.375 -1284.511)"/></g></g><g class="s" transform="translate(126.88 12.501)"><g class="t"><path class="k" d="M2880.551,1381.362l-2.761,4.117c-.647.159-1.165.232-1.308.109a34.077,34.077,0,0,1-1.528-4.123c-.14-.407-.289-.833-.445-1.272l-.079-.224a52.965,52.965,0,0,1,2.623-5.236l0,.008a25.335,25.335,0,0,1,1.963,3.12q.413.774.786,1.614C2880.073,1380.078,2880.323,1380.706,2880.551,1381.362Z" transform="translate(-2874.43 -1374.732)"/></g></g><g class="u" transform="translate(118.522 21.705)"><path class="e" d="M2765.34,1561.834c-.051.335-.109.663-.176.982a.449.449,0,0,1-.887-.1c0-.018,0-.035,0-.053.011-.5.021-1.037.031-1.612.09-5.674.031-14.561-1.233-14.262a.461.461,0,0,0-.2.115.414.414,0,0,0-.059.068,6.352,6.352,0,0,0-.489.847s0,0,0,0c-.059.118-.122.25-.186.394-.112.247-.23.532-.35.857s-.245.7-.366,1.107h0a28.71,28.71,0,0,0-1.038,6.662c-.008.144-.014.29-.02.437v.006c-.032.791-.043,1.633-.029,2.53,0,0,.024,1.8-.165,4.025-.056.644-.128,1.326-.225,2.008-.016.117-.034.235-.052.352h0c-.021.133-.042.265-.065.4a16.228,16.228,0,0,1-.833,3.2q-.119.3-.251.566a5.757,5.757,0,0,1-.3.536,2.547,2.547,0,0,1-1.394,1.176.484.484,0,0,1-.063.013l-3.948.539h0l-5.7.779-.024,0s.121-.609.237-1.689c0-.034.008-.07.011-.105.029-.28.057-.59.083-.926.006-.085.012-.171.018-.259,0-.02,0-.039,0-.06.009-.132.016-.266.024-.4a40.1,40.1,0,0,0-1.758-14.207s0-.006,0-.009c-.045-.144-.092-.287-.14-.432,0,0,0-.006,0-.021v0c0-.075-.005-.312-.017-.668-.069-2.248-.394-9.276-1.77-10.6l-.023-.022a80.068,80.068,0,0,1,8.527-24l.033-.058a3.09,3.09,0,0,1,5.64.6q.131.42.259.843l.111.37h0q.149.5.295,1c.049.167.1.335.145.5,0,.013.007.024.01.037.03.1.06.21.09.316.015.051.029.1.043.154.061.212.119.425.177.637q.07.253.137.5.19.7.373,1.4.116.447.23.9.082.319.163.641c.01.035.018.071.027.106.022.087.044.175.066.263q.131.528.26,1.057c.052.211.1.421.154.632h0c.452,1.88.883,3.769,1.306,5.657q.083.372.166.745c.583,2.613,1.154,5.219,1.75,7.79C2763.953,1544.11,2766.41,1554.72,2765.34,1561.834Z" transform="translate(-2743.99 -1518.379)"/></g><g transform="translate(117.018 19.583)"><path class="f" d="M2720.514,1493l.847,2.415s13.784,1.576,17.372-2.817c0,0,.939-9.994-13.951-6.64-1.636.368-.067,6.707-.067,6.707S2721.989,1493.465,2720.514,1493Z" transform="translate(-2720.514 -1485.265)"/></g><g class="t" transform="translate(31.668 4.24)"><path class="k" d="M1446.487,1249.237q-.582-.855-1.106-1.744c.12.2-2.051,3-2.3,3.3-.859,1.028-1.828,1.238-2.989,1.783a46.478,46.478,0,0,0-5.3,3.135l-1.774-3.256a52.7,52.7,0,0,1-2.912,5.965l-4.628,2.6-1.733.972-3.151,1.767-1.224,0-.974,0-.73,0-1.2,0-.981,0-.722,0-1.02,0-1.013,0-.5,0-1,0-.5,0-.5,0-.987,0-1.754.009-.566,0h-.107l-1.424.009h-.144l-1.254.008-.921.007-.837.006-1.523.014-.511,0-.651.006-.213,0-.211,0-.21,0h-.069l-.349,0-.526.006-.241,0h-.057l-.4,0h-.015l-.385,0-.318,0-.231,0-.253,0-1.1.015-.219,0-.367.005h-.067l-.427.007h-.051l-.357.006h-.012l-.412.007-.444.008-.359.006-.39.008-.94.019-.253.005-.6.014h-.036l-.256.006-.564.014-.177,0h-.024l-.2.005-.391.011c6.541-3.353,20.712-10.63,34.094-17.578l.489-.02.623-.024.192-.008.441-.017.737-.028,1.514-.056.664-.024.255-.009.625-.022c2.085-.072,4.24-.139,6.423-.2l.861-.024,1.863-.047.894-.021q1.187-.027,2.375-.05l.466-.009.472-.009.925-.016.671-.011.53-.008.191,0,.865-.012q1.412-.021,2.8-.031l.9-.008.764,0h.177c1.04-.005,2.065-.007,3.068,0h.306Z" transform="translate(-1388.416 -1245.805)"/><g transform="translate(51.859 4.807)"><path class="k" d="M2222.965,1320.836c-.043,5.387-.528,14.13-3.192,13.2,0,0-9.548-.042-21.97-.06C2206.825,1329.31,2216.064,1324.5,2222.965,1320.836Z" transform="translate(-2197.802 -1320.836)"/></g></g><g transform="translate(87.552 32.492)"><path class="k" d="M2280.623,1688.765a29.382,29.382,0,0,1-3.034,1c-.7.3-1.375.637-2.041,1l.187-.255q.595-.814,1.189-1.627a89.926,89.926,0,0,1-11.254,1.679,11.909,11.909,0,0,1,.948,2.388,11.784,11.784,0,0,1,.309,1.466l-4.708-.432a14.742,14.742,0,0,1,1.716,4.651l-3.307-4.325a5.569,5.569,0,0,1,3.1-.745.591.591,0,0,0,.486-.11c1.084-1.208-.793-2.178,1.142-3.155a13.827,13.827,0,0,1,1.993-.558,72.841,72.841,0,0,0,7.444-2.587,4.876,4.876,0,0,1,5.316.924A1.737,1.737,0,0,1,2280.623,1688.765Z" transform="translate(-2260.628 -1686.749)"/></g><g transform="translate(8.87 31.896)"><path class="k" d="M1047.31,1688.929a48.218,48.218,0,0,1-11.719-6.536,18.579,18.579,0,0,1-2.988-2.78,12.387,12.387,0,0,1,2.629-1.824,3.082,3.082,0,0,1,3.958,1,29.153,29.153,0,0,0,2.867,3.706h.005a8.951,8.951,0,0,0,1,.927,11.072,11.072,0,0,1,2.773,3.141c.446.761.943,1.577,1.4,2.262Z" transform="translate(-1032.603 -1677.444)"/></g></g><g transform="translate(121.713 76.592)"><g transform="translate(1.384)"><path class="h" d="M2445.556,1916.076a30.736,30.736,0,0,0,5.143,9.974.387.387,0,0,0,.543,0,.393.393,0,0,0,0-.544,29.728,29.728,0,0,1-4.945-9.635.385.385,0,0,0-.741.2Z" transform="translate(-2445.538 -1915.602)"/></g><g transform="translate(0 2.558)"><path class="h" d="M2423.969,1955.989a46.823,46.823,0,0,0,6.131,10.678c.3.387.965,0,.664-.388a46.131,46.131,0,0,1-6.054-10.495c-.185-.451-.929-.254-.741.2Z" transform="translate(-2423.938 -1955.529)"/></g><g transform="translate(2.764 3.753)"><path class="h" d="M2469.655,1974.44a50.464,50.464,0,0,0-2.576,10.561c-.028.208.2.382.385.384a.393.393,0,0,0,.384-.384,49.58,49.58,0,0,1,2.55-10.357c.169-.466-.573-.667-.742-.2Z" transform="translate(-2467.076 -1974.178)"/></g></g><g transform="translate(144.629 25.779)"><g transform="translate(13.528 25.05)"><path class="v" d="M3019.833,1546.49a52.756,52.756,0,0,1-9.271-3.48c-1.719-.866-2.912-1.714-2.66-2.3.758-1.774.689-6.048.689-6.048a11.5,11.5,0,0,1-6.482,4.031l-5.334-2.291-4.055-1.741s.88-.8,1.874-1.631c.558-.465,1.153-.939,1.646-1.282a5.707,5.707,0,0,1,.613-.383c1.2-.62,1.57-2.314,3.554-3.389s5.5-8.638,6.7-11.325,3.017-2.728,3.306-2.811l9.021-.331S3020.163,1546.366,3019.833,1546.49Z" transform="translate(-2992.72 -1513.508)"/></g><g class="w" transform="translate(15.402 27.112)"><path class="x" d="M3041.975,1573.723q-2.025-.248-4.037-.588c-1.719-.866-2.912-1.714-2.66-2.3.758-1.774.689-6.049.689-6.049a11.5,11.5,0,0,1-6.482,4.031l-5.334-2.291c-.667-.9-1.277-1.85-1.85-2.8-.114-.187-.227-.379-.331-.577.558-.465,1.152-.939,1.646-1.282a11.607,11.607,0,0,0,4.793.121,15.492,15.492,0,0,0,2.545-1.074,9.756,9.756,0,0,0,2.842-1.332,7.209,7.209,0,0,0,1.68-2.483,11.775,11.775,0,0,0,1.349-2.783,37.831,37.831,0,0,0,1-8.5c-.251-.329.37.113.753.268a1.415,1.415,0,0,1,.667.995,29.837,29.837,0,0,1,1.209,7.837,4.7,4.7,0,0,1-.1,1.257,13.73,13.73,0,0,1-.535,1.351,7.407,7.407,0,0,0-.354,2.426A35.064,35.064,0,0,0,3041.975,1573.723Z" transform="translate(-3021.97 -1545.695)"/></g><g transform="translate(29.259 35.79)"><path class="y" d="M3238.4,1681.123c.116.205.229.415.333.63s.184.438.267.663.146.453.21.684c.03.115.056.232.083.348s.057.233.077.35a12.622,12.622,0,0,1,.2,2.847,14.815,14.815,0,0,1-.386,2.815c-.025.115-.058.229-.088.344s-.06.229-.093.342c-.066.227-.14.452-.214.676s-.164.444-.252.663-.192.434-.3.646c.01-.238.029-.473.052-.706s.041-.466.062-.7l.126-1.381c.081-.917.147-1.827.184-2.737s.041-1.817,0-2.727S3238.531,1682.063,3238.4,1681.123Z" transform="translate(-3238.242 -1681.123)"/></g><g class="z" transform="translate(34.69 43.127)"><path class="x" d="M3323.8,1806.428a3.76,3.76,0,0,0,2.879,2.474.8.8,0,0,0,.533-.085.933.933,0,0,0,.3-.707c.241-2.176.645-4.526.131-6.691a4.352,4.352,0,0,0-1.681-2.465c-.574-.554-2.772-2.662-2.776-3.311C3323.2,1799.076,3322.492,1803.161,3323.8,1806.428Z" transform="translate(-3323.007 -1795.643)"/></g><g transform="translate(30.151 25.29)"><path class="y" d="M3259.148,1548.2l-1.625-1.726s-1.192-.9-1.938-1.6a6.106,6.106,0,0,1-1.2-4.381,97.806,97.806,0,0,0-.743-9.754,8.962,8.962,0,0,0-1.48-3.178c.4-1.312,3.711-1.038,3.711-1.038a15.265,15.265,0,0,0-2.645-1.4,65.06,65.06,0,0,0,1.075-6.7l1.407-1.165a5.289,5.289,0,0,1,1.386,1.812c1.175,2.485,1.112,6.747.182,15.29-.143,1.313-.225,2.51-.257,3.6C3256.817,1545.038,3258.667,1547.646,3259.148,1548.2Z" transform="translate(-3252.165 -1517.259)"/></g><g transform="translate(3.005 83.605)"><path class="x" d="M2853.831,2437.907a1.834,1.834,0,0,1-.2,1.009c-.736.814-5.5.931-6.28.62s-1.008-1.4-1.551-1.24a10.587,10.587,0,0,0-1.938,1.24l-14.576-.465s-.916.147-.789-1.7c0-.052.008-.107.014-.162.117-1.223,1.091-2.188,2.825-2.933a19.861,19.861,0,0,1,4.307-1.177,5.757,5.757,0,0,0,4.808-4.962s9.613-1.667,11.086,0c.989,1.12,1.926,5.229,2.212,8.054A14.139,14.139,0,0,1,2853.831,2437.907Z" transform="translate(-2828.482 -2427.398)"/></g><g transform="translate(52.7 79.074)"><path class="x" d="M3619.084,2365.749s.15,5.621-.681,7.288-.482,2.209-3.66,3.024-9.381.891-10.156.543c-.332-.149-.515-.762-.49-1.488a3.3,3.3,0,0,1,1.343-2.7,6.836,6.836,0,0,0,4.6-7.2c.1-1.357.127-2.578.127-2.726,0-.31,5.195-5.814,5.195-5.814a20.185,20.185,0,0,1,5.179,1.119,2.257,2.257,0,0,1,.293.176,1.054,1.054,0,0,1,.264.256C3621.837,2359.314,3621.488,2363.307,3619.084,2365.749Z" transform="translate(-3604.095 -2356.678)"/></g><g transform="translate(55.285 93.839)"><path class="e" d="M3644.448,2587.784a6.139,6.139,0,0,1,1.437-.474,9.085,9.085,0,0,1,1.488-.183,8.959,8.959,0,0,1,1.5.063,6.087,6.087,0,0,1,1.47.36,11.884,11.884,0,0,1-1.482.211c-.488.043-.972.073-1.457.092s-.97.028-1.46.023A12.07,12.07,0,0,1,3644.448,2587.784Z" transform="translate(-3644.448 -2587.12)"/></g><g class="u" transform="translate(58.647 79.074)"><path class="e" d="M3707.411,2357.8a12.645,12.645,0,0,1-6.2,6.142,14.285,14.285,0,0,1-2.644.858l-1.654.421c.1-1.357.127-2.578.127-2.726,0-.31,5.195-5.814,5.195-5.814A20.19,20.19,0,0,1,3707.411,2357.8Z" transform="translate(-3696.91 -2356.678)"/></g><g class="u" transform="translate(5.855 83.605)"><path class="e" d="M2895.468,2437.907a1.666,1.666,0,0,1-1.224-.882,7.858,7.858,0,0,0-4.217-3.709c-1.988-.753-3.341-.268-5.292.11a37.408,37.408,0,0,1-11.766.851,19.847,19.847,0,0,1,4.308-1.177,5.757,5.757,0,0,0,4.807-4.962s9.614-1.667,11.086,0c.989,1.12,1.926,5.229,2.212,8.054A14.077,14.077,0,0,1,2895.468,2437.907Z" transform="translate(-2872.97 -2427.398)"/></g><g transform="translate(7.337 49.356)"><path class="aa" d="M2955.922,1920.541a5.53,5.53,0,0,1-2.778,4.3c-.011.627-3.465,5.931-3.894,5.8,0,0-1.513-.455-3.024-1.095a2.009,2.009,0,0,0-1.932.211,6.88,6.88,0,0,1-2.6.817c-2.617.272-9.711-.33-14.933-.911s-7.977-1.977-8.675-3.262a12.623,12.623,0,0,1-.931-5.925c.175-1.919,2.325-4.536,2.325-4.536s-.163-.1-.432-.277a28.583,28.583,0,0,1-3.754-2.863c-1.57-1.511-5.116-5.814-5.116-5.814s3.43,15.816,4.015,16.672,2.614,5.192.521,6.471a3.047,3.047,0,0,1-1.236.417c-1.961.239-4.337-1.078-5.858-1.7-1.86-.756-4.187.7-4.187.7a10.179,10.179,0,0,1-1.745-5.889c.115-3.313-1.884-8.968-3.929-14.978q-.071-.206-.141-.414c-2.094-6.164-1.4-8.373-1.4-8.373s.085-.18.258-.483c1.115-1.952,5.9-9,15.21-5.681,2.986,1.065,5.9,2.062,8.552,2.946,6.9,2.3,12.032,3.839,12.032,3.839l.915,5.893S2956.227,1917.744,2955.922,1920.541Z" transform="translate(-2896.107 -1892.852)"/></g><g class="u" transform="translate(7.337 53.178)"><path class="e" d="M2955.922,1976.374a5.53,5.53,0,0,1-2.778,4.3c-.011.626-3.465,5.931-3.894,5.8,0,0-1.513-.455-3.024-1.1a2.008,2.008,0,0,0-1.932.211,1.534,1.534,0,0,0-.255-.128,27.032,27.032,0,0,0-3.152-.44c-2.645-.6-5.212-1.455-7.8-2.257-1.858-.576-3.964-.129-5.547-1.421a32.182,32.182,0,0,0,7.573-2.359c1.469-.748,3.027-1.89,3.12-3.537a3.773,3.773,0,0,0-.688-2.2,7.259,7.259,0,0,0-4.715-3,21.846,21.846,0,0,0-5.011-1.11c-3.068-.087-5.932,1.269-8.775,2.361a28.6,28.6,0,0,1-3.754-2.863c-1.57-1.512-5.116-5.815-5.116-5.815s3.43,15.816,4.015,16.672,2.614,5.192.521,6.471a3.045,3.045,0,0,1-1.236.417,4.016,4.016,0,0,1-.2-.384c-1.26-2.7-2-5.612-3.07-8.4a16.8,16.8,0,0,0-4.86-7.377c-1.354-1.073-2.947-1.8-4.369-2.781a17.039,17.039,0,0,1-3.215-2.929q-.071-.206-.141-.414c-2.094-6.164-1.4-8.374-1.4-8.374s.085-.18.258-.483a10.644,10.644,0,0,1,1.775-.168,170.234,170.234,0,0,0,20.541-2.215,6.172,6.172,0,0,0,1.445-.352c6.9,2.3,12.032,3.839,12.032,3.839l.915,5.893S2956.227,1973.578,2955.922,1976.374Z" transform="translate(-2896.107 -1952.508)"/></g><g transform="translate(32.101 67.906)"><path class="e" d="M3282.6,2186.334a25.491,25.491,0,0,1,2.658-1.345q1.36-.6,2.761-1.094t2.834-.886a25.27,25.27,0,0,1,2.913-.624c-.9.433-1.816.805-2.734,1.167s-1.843.7-2.771,1.028-1.862.643-2.8.942S3283.573,2186.1,3282.6,2186.334Z" transform="translate(-3282.601 -2182.384)"/></g><g transform="translate(0 39.243)"><path class="j" d="M2806.965,1745.963a19.958,19.958,0,0,1-.944,3.534c-.615,1.811-1.352,3.644-2.172,5.506q-.144.328-.292.656c-.385.857-.786,1.726-1.24,2.581-.182.344-.438,1.01-.785,1.218-.2.122-1.411-.446-3.146-1.395l-.05-.027c-1.492-.818-3.384-1.924-5.362-3.124-1.029-.624-2.084-1.274-3.117-1.922l-.383-.241c-3.929-2.473-7.429-4.839-7.815-5.418-.347-.522.667-2.408,2.063-4.537.35-.536.724-1.084,1.105-1.63h0c.54-.772,1.1-1.537,1.624-2.25.267-.361.529-.709.778-1.038.628-.827,1.18-1.536,1.58-2.042.362-.458.6-.752.654-.816q2.11,1.092,4.112,2.193,1.04.569,2.052,1.137c2.042,1.144,4.012,2.284,5.885,3.468l.431.274c.765.491,1.533,1.047,2.263,1.618.16.126.319.253.475.379A25.143,25.143,0,0,1,2806.965,1745.963Z" transform="translate(-2781.589 -1735.018)"/><g transform="translate(0.872 0.925)"><path class="k" d="M2818.6,1759.555s-1.245,3.867-2.461,7.175c-.891,2.421-1.766,4.541-2.126,4.623,0,0-.632-.333-1.662-.885-1.915-1.025-5.274-2.844-8.559-4.723l-.418-.24c-3.982-2.289-7.72-4.6-8.172-5.413,0,0,6.146-9.752,7.123-10.634,0,0,2.7,1.758,5.877,3.8,3.08,1.972,6.57,4.178,8.627,5.379A10.985,10.985,0,0,0,2818.6,1759.555Z" transform="translate(-2795.2 -1749.458)"/></g><g transform="translate(3.608 3.503)"><path class="ab" d="M2838.687,1796.934l4.69-6.726a.28.28,0,0,0-.111-.4l-.107-.065a.331.331,0,0,0-.438.066l-4.762,6.726a.3.3,0,0,0,.115.438l.119.065A.389.389,0,0,0,2838.687,1796.934Z" transform="translate(-2837.904 -1789.692)"/><g class="ac" transform="translate(3.253 0.597)"><path class="ab" d="M2889.1,1805.267l3.991-5.964a.189.189,0,0,0-.074-.264h0a.211.211,0,0,0-.283.046l-4.026,5.964a.2.2,0,0,0,.077.286h0A.242.242,0,0,0,2889.1,1805.267Z" transform="translate(-2888.67 -1799.004)"/></g><g class="ac" transform="translate(3.936 0.976)"><path class="ab" d="M2899.75,1811.192l3.932-5.963a.19.19,0,0,0-.074-.263h0a.207.207,0,0,0-.28.047l-3.966,5.963a.2.2,0,0,0,.077.286h0A.239.239,0,0,0,2899.75,1811.192Z" transform="translate(-2899.329 -1804.931)"/></g><g transform="translate(0.187 7.363)"><path class="ab" d="M2844.668,1906.131a.276.276,0,0,0-.106-.4l-1.376-.752-.458-.249-.14-.077a.351.351,0,0,0-.449.1l-1.27,1.845a.279.279,0,0,0,.107.412l2.044,1.075a.351.351,0,0,0,.448-.114Zm-.213-.116-1.206,1.841a.074.074,0,0,1-.094.024l-2.038-1.075a.058.058,0,0,1-.023-.087l1.263-1.846a.075.075,0,0,1,.1-.021l.3.164h0l.473.258,1.2.656A.059.059,0,0,1,2844.455,1906.016Z" transform="translate(-2840.818 -1904.613)"/></g><g transform="translate(1.526 6.539)"><path class="ab" d="M2863.079,1894.634l-.012.016a.229.229,0,0,1-.178.082,5.069,5.069,0,0,0-.91.094.215.215,0,0,1-.26-.149.205.205,0,0,1,.172-.238,5.75,5.75,0,0,1,.716-.092,6.153,6.153,0,0,1-.294-2.438.212.212,0,0,1,.243-.163.2.2,0,0,1,.182.218,6.44,6.44,0,0,0,.361,2.507A.182.182,0,0,1,2863.079,1894.634Z" transform="translate(-2861.714 -1891.744)"/></g><g transform="translate(7.272 2.835)"><path class="ab" d="M2951.8,1840.183l3.646-5.956a.191.191,0,0,0-.075-.259h0a.192.192,0,0,0-.266.051l-3.678,5.957a.2.2,0,0,0,.078.281h0A.222.222,0,0,0,2951.8,1840.183Z" transform="translate(-2951.394 -1833.936)"/></g><g transform="translate(7.919 3.196)"><path class="ab" d="M2961.9,1845.822l3.592-5.954a.191.191,0,0,0-.075-.258h0a.189.189,0,0,0-.263.052l-3.623,5.955a.2.2,0,0,0,.078.28h0A.218.218,0,0,0,2961.9,1845.822Z" transform="translate(-2961.504 -1839.579)"/></g><g transform="translate(4.446 9.614)"><path class="ab" d="M2910.892,1941.2a.277.277,0,0,0-.107-.388l-1.024-.56-.3-.161h0l-.433-.237-.118-.064a.319.319,0,0,0-.419.1l-1.156,1.839a.28.28,0,0,0,.108.4l1.109.583.825.435a.321.321,0,0,0,.419-.121Zm-.2-.11-1.1,1.834a.069.069,0,0,1-.088.025l-.836-.441-1.093-.577a.06.06,0,0,1-.023-.086l1.15-1.837a.068.068,0,0,1,.089-.023l.271.148.449.244.157.086,1,.544A.059.059,0,0,1,2910.691,1941.085Z" transform="translate(-2907.292 -1939.745)"/></g><g transform="translate(5.684 8.784)"><path class="ab" d="M2927.888,1929.618l-.011.016a.211.211,0,0,1-.166.084,4.581,4.581,0,0,0-.852.11.2.2,0,0,1-.246-.141.2.2,0,0,1,.157-.237,5.192,5.192,0,0,1,.67-.1,6.34,6.34,0,0,1-.319-2.392.2.2,0,0,1,.226-.165.191.191,0,0,1,.174.211,6.61,6.61,0,0,0,.384,2.459A.189.189,0,0,1,2927.888,1929.618Z" transform="translate(-2926.609 -1926.786)"/></g><g transform="translate(11.086 4.966)"><path class="ab" d="M3011.309,1873.431l3.33-5.943a.192.192,0,0,0-.075-.254h0a.177.177,0,0,0-.25.056l-3.36,5.944a.2.2,0,0,0,.078.275h0A.2.2,0,0,0,3011.309,1873.431Z" transform="translate(-3010.93 -1867.205)"/></g><g transform="translate(11.702 5.311)"><path class="ab" d="M3020.91,1878.8l3.281-5.939a.193.193,0,0,0-.075-.253h0a.175.175,0,0,0-.247.057l-3.309,5.941a.2.2,0,0,0,.078.274h0A.2.2,0,0,0,3020.91,1878.8Z" transform="translate(-3020.535 -1872.583)"/></g><g transform="translate(8.481 11.749)"><path class="ab" d="M2973.633,1974.455a.279.279,0,0,0-.108-.38l-1.169-.64-.411-.224-.2-.108a.292.292,0,0,0-.392.112l-1.054,1.829a.283.283,0,0,0,.109.395l1.835.965a.294.294,0,0,0,.392-.126Zm-.192-.105-1,1.824a.062.062,0,0,1-.083.026l-1.83-.966a.06.06,0,0,1-.023-.083l1.049-1.829a.061.061,0,0,1,.082-.023l.341.185h0l.426.232,1.015.553A.058.058,0,0,1,2973.441,1974.349Z" transform="translate(-2970.263 -1973.068)"/></g><g transform="translate(9.727 10.969)"><path class="ab" d="M2990.912,1963.672l-.01.016a.2.2,0,0,1-.154.086,4.106,4.106,0,0,0-.8.124.186.186,0,0,1-.233-.134.2.2,0,0,1,.143-.236,4.679,4.679,0,0,1,.626-.115,6.485,6.485,0,0,1-.343-2.347.19.19,0,0,1,.209-.167.186.186,0,0,1,.167.2,6.763,6.763,0,0,0,.4,2.411A.193.193,0,0,1,2990.912,1963.672Z" transform="translate(-2989.712 -1960.898)"/></g><g class="ac" transform="translate(14.712 6.999)"><path class="ab" d="M3067.876,1905.126l3.04-5.923a.194.194,0,0,0-.075-.249h0a.163.163,0,0,0-.235.06l-3.067,5.925a.2.2,0,0,0,.078.269h0A.188.188,0,0,0,3067.876,1905.126Z" transform="translate(-3067.517 -1898.927)"/></g><g class="ac" transform="translate(15.297 7.328)"><path class="ab" d="M3077.008,1910.251l2.994-5.919a.2.2,0,0,0-.075-.249h0a.161.161,0,0,0-.232.061l-3.021,5.921a.2.2,0,0,0,.078.268h0A.185.185,0,0,0,3077.008,1910.251Z" transform="translate(-3076.652 -1904.057)"/></g><g transform="translate(12.308 13.777)"><path class="ab" d="M3033.189,2005.888a.272.272,0,0,0-.137-.219l-1.112-.608-.391-.214h0l-.186-.1a.27.27,0,0,0-.367.118l-.959,1.819a.285.285,0,0,0,.109.386l1.742.917a.271.271,0,0,0,.366-.13l.7-1.4.207-.415A.28.28,0,0,0,3033.189,2005.888Zm-.212.055-.911,1.812a.057.057,0,0,1-.077.028l-1.738-.917a.06.06,0,0,1-.023-.082l.954-1.818a.058.058,0,0,1,.078-.025l.323.176h0l.4.221.965.525A.061.061,0,0,1,3032.977,2005.943Z" transform="translate(-3030.002 -2004.714)"/></g><g transform="translate(13.478 13)"><path class="ab" d="M3049.4,1995.3l-.009.016a.182.182,0,0,1-.144.087,3.707,3.707,0,0,0-.749.137.175.175,0,0,1-.222-.128.2.2,0,0,1,.131-.235,4.234,4.234,0,0,1,.588-.125,6.656,6.656,0,0,1-.363-2.3.178.178,0,1,1,.355.03,6.93,6.93,0,0,0,.421,2.366A.2.2,0,0,1,3049.4,1995.3Z" transform="translate(-3048.267 -1992.581)"/></g></g><g transform="translate(1.642 2.745)"><g transform="translate(0.171)"><path class="ab" d="M2811.8,1783.381l3.065-4.373a.3.3,0,0,0-.123-.424l-1.135-.661a.376.376,0,0,0-.486.074l-3.187,4.375a.3.3,0,0,0,.125.454l1.225.659A.406.406,0,0,0,2811.8,1783.381Z" transform="translate(-2809.878 -1777.867)"/></g><g transform="translate(0 0.541)"><path class="ab" d="M2810.436,1786.917h0l-.388-.222-.491-.282a.748.748,0,0,0-.954.148l-1.28,1.715a.569.569,0,0,0,.236.849l.514.282.405.223.332-.46v0Zm-1.056.331-1,1.36a.131.131,0,0,1-.082.049.158.158,0,0,1-.1-.017.107.107,0,0,1-.044-.158l1-1.361a.126.126,0,0,1,.081-.047.152.152,0,0,1,.1.018A.106.106,0,0,1,2809.38,1787.248Z" transform="translate(-2807.215 -1786.306)"/></g></g><g class="ad" transform="translate(6.938 13.613)"><path class="x" d="M2905.195,1953.854q-.144.328-.292.656c-.385.857-.787,1.726-1.24,2.581-.182.344-.438,1.011-.785,1.218-.2.122-1.411-.446-3.146-1.4l-.05-.027c-1.586-.853-3.134-1.781-4.676-2.709-1.615-.971-2.314-2.519-3.328-4.076-.34-.523-.688-1.03-1.066-1.521a10.758,10.758,0,0,0-.738-1.1c2.083.343,4.057.442,6.027,1.375a34.273,34.273,0,0,0,6.487,2.337,4.226,4.226,0,0,1,2.14,1.069A2.591,2.591,0,0,1,2905.195,1953.854Z" transform="translate(-2889.874 -1947.481)"/></g></g><g transform="translate(23.411 10.517)"><path class="ae" d="M3167.752,1296.793a41.94,41.94,0,0,0-1.626,5.4c-.441,1.93-.747,3.9-1.338,5.786a11.524,11.524,0,0,1-2.948,5.081c-.207.192-.486.386-.75.287a.76.76,0,0,1-.338-.331,8.229,8.229,0,0,1-1.1-4.478c0-1.4.572-3.15-.02-4.471-.063-.142-1-1.244-1.266-1.686-.061-.1-.088-.165-.064-.18-.951.569-1.652,1.664-2.883,1.717a2.789,2.789,0,0,1-2.5-1.411c-.185-.382-1.334-2.218-1.077-2.614a.957.957,0,0,1-.063.083,1.706,1.706,0,0,1-1.961.38.722.722,0,0,1-.085-.06c-.5-.4-.284-.881-.222-1.469.089-.851.451-1.921.1-2.746-.646-1.507-1.324-3-2.061-4.465l-.125-.251c-.62-1.28-.765-2.064.534-3.133a7.162,7.162,0,0,1,2.007-1.3c1.393-.511,2.891-.114,4.382.135.37.062.739.115,1.107.143a26.412,26.412,0,0,1,3.07.151,9.9,9.9,0,0,1,3.127,1.416,10.134,10.134,0,0,1,1.513,1.041,4.129,4.129,0,0,1,.508.53,14.888,14.888,0,0,1,1.041,1.791,39.724,39.724,0,0,0,2.888,3.58,1.13,1.13,0,0,1,.262.532A1.2,1.2,0,0,1,3167.752,1296.793Z" transform="translate(-3146.967 -1286.682)"/></g><g transform="translate(34.554 13.542)"><path class="ae" d="M3320.934,1335.808l.009.191a2.6,2.6,0,0,1,.02-1.186,1.4,1.4,0,0,1,1.15-.916,1.5,1.5,0,0,1,1.349.611,2.458,2.458,0,0,1,.382,1.283,6.129,6.129,0,0,1-.765,3.387" transform="translate(-3320.884 -1333.889)"/></g><g class="af" transform="translate(34.812 13.65)"><path class="ag" d="M3334.3,1342.565a41.863,41.863,0,0,0-1.626,5.4c-.442,1.93-.747,3.9-1.338,5.786a11.532,11.532,0,0,1-2.948,5.081c-.208.192-.486.386-.75.287a.762.762,0,0,1-.339-.331,8.227,8.227,0,0,1-1.1-4.478c0-1.4.572-3.15-.02-4.471-.063-.142-1-1.244-1.267-1.686,1.313-1.167,2.619-2.35,3.9-3.559-2.072,1.959-2.256,5.74-1.88,8.3a2.5,2.5,0,0,0,2.2,2.066c.661.629.611-.619,1.087-1.4a5.651,5.651,0,0,0,.533-2.653,17.221,17.221,0,0,1,1.063-4.959,10.9,10.9,0,0,0,.8-2.551,2.6,2.6,0,0,0-.864-2.408c-.756-.554-1.835-.475-2.608-1.005a2.311,2.311,0,0,1-.93-1.852,3.015,3.015,0,0,1,1.5-2.552,4.161,4.161,0,0,1,.507.53,14.809,14.809,0,0,1,1.041,1.791,39.856,39.856,0,0,0,2.888,3.58,1.132,1.132,0,0,1,.262.532A1.217,1.217,0,0,1,3334.3,1342.565Z" transform="translate(-3324.92 -1335.588)"/></g><g class="af" transform="translate(23.411 10.517)"><path class="ag" d="M3158.253,1292.308c-.321-.371-.653-.318-1.057-.469a6.115,6.115,0,0,0-.91-.418c-.536-.1-1.041.255-1.568.4-1.092.292-2.171-.666-3.146-1.054a5.251,5.251,0,0,0-2.385-.351,2.079,2.079,0,0,0-1.759.956c-.62-1.28-.765-2.064.534-3.133a7.162,7.162,0,0,1,2.007-1.3c1.393-.511,2.891-.114,4.382.135.225.1.447.215.665.33a4.793,4.793,0,0,1,1.454,1.066,5.635,5.635,0,0,1,.826,1.529Q3157.774,1291.15,3158.253,1292.308Z" transform="translate(-3146.967 -1286.682)"/></g><g transform="translate(20.061 0)"><path class="ah" d="M3121.438,1132.729a1.58,1.58,0,0,0-.313.472,2.533,2.533,0,0,0-.181,1.138c0,.032,0,.063.006.095.047.607.228,1.2.3,1.8a5.073,5.073,0,0,1-1.217,3.892,5.574,5.574,0,0,0-.847,1.033,1.8,1.8,0,0,0-.2.96,1.7,1.7,0,0,0,.067.369c-.681.015-.943-.735-1.085-1.4a1.17,1.17,0,0,1-.819.225,7.7,7.7,0,0,1-3.081-.953,4.874,4.874,0,0,1-1.634-1.069c-.505-.573-.754-1.392-1.41-1.782a1.489,1.489,0,0,0-1.617.072,2.764,2.764,0,0,0-.492.943,3.611,3.611,0,0,0-.99-1.536.138.138,0,0,0-.218-.035l-.823.5a2.7,2.7,0,0,1-1.425.372h0a3.763,3.763,0,0,1-2.16-.736c-.467-.346-.842-.806-1.318-1.139a2.945,2.945,0,0,0-2.125-.505l-.188.03a2.033,2.033,0,0,0-1.634.78,9.3,9.3,0,0,0,.471,1.11c.153.372.232.231.259.633a2.64,2.64,0,0,1-.364,1.514c-.069-.043-.08-.3-.149-.343a2.642,2.642,0,0,1-.379.766,1.353,1.353,0,0,1-1.441.426,1.814,1.814,0,0,0,.14-.885,3.047,3.047,0,0,0-.344-.977c-.039-.082-.08-.166-.122-.254a6.394,6.394,0,0,1-.392-4.467c.036-.114.076-.226.12-.336l-.02,0a1.324,1.324,0,0,0-1,1.042,5.489,5.489,0,0,1-.109-1.457,4.342,4.342,0,0,1,1.07-2.16,3.864,3.864,0,0,1,2.038-1.137c-.028-.106.257-.088.264-.171a.048.048,0,0,0,0-.023,2.44,2.44,0,0,1-.1-.3,3.447,3.447,0,0,1,1.833-3.65,6.311,6.311,0,0,1,3.514-.6c.371.027.739.074,1.1.132.009-.066.021-.131.036-.194.456-2,3.512-2.439,5.18-2.385a12.5,12.5,0,0,1,5.677,1.679,11.069,11.069,0,0,1,2.742,1.77,8.672,8.672,0,0,1,1.135,1.522c.15.262.364,1.161.565,1.511a.384.384,0,0,0,.1.124,2.369,2.369,0,0,1-.4-.346,2.345,2.345,0,0,1-.3-.4c.007.053.016.106.026.159a4.943,4.943,0,0,0,1.18,2.253,13.8,13.8,0,0,0,1.15,1.175.512.512,0,0,1,.192.283C3121.734,1132.456,3121.567,1132.6,3121.438,1132.729Z" transform="translate(-3094.693 -1122.54)"/></g><g transform="translate(31.929 3.762)"><path class="e" d="M3279.925,1181.331a2.479,2.479,0,0,1,1.223,0,4.8,4.8,0,0,1,1.153.444q.27.143.525.3c.169.1.337.212.5.324a10.329,10.329,0,0,1,.958.735,6.922,6.922,0,0,1,1.56,1.886,5.041,5.041,0,0,1,.459,1.144,3.662,3.662,0,0,1,.117,1.209,8.328,8.328,0,0,0-1.173-1.96,12.382,12.382,0,0,0-1.56-1.594c-.284-.247-.576-.488-.874-.729l-.449-.361c-.15-.12-.3-.239-.447-.354a7.625,7.625,0,0,0-.927-.629A3.8,3.8,0,0,0,3279.925,1181.331Z" transform="translate(-3279.925 -1181.253)"/></g><g transform="translate(35.011 19.55)"><path class="k" d="M3338.137,1463.778s-3.76,5.427-4.729,4.419-1.667-5.621-1.628-7.366a5.323,5.323,0,0,0-2.171-4.341,6.35,6.35,0,0,1-1.59-2.378c.032-1.092.114-2.289.256-3.6.93-8.543.992-12.8-.182-15.29.089-.1.172-.2.233-.266.164.241.343.507.525.788.252.386.514.8.767,1.208a1.372,1.372,0,0,1-.005.281c-.02.179-.063.369-.082.6a13.3,13.3,0,0,0-.05,1.6,6.541,6.541,0,0,0,.344,2.055q.036.1.079.194c.363.829,1.116,1.447,2.03,1.014,1.473-.7,1.706-4.341,1.706-5.814,0-1.178,2.184-6.36,3.059-8.388.219-.509.357-.819.357-.819a4.5,4.5,0,0,0,1.391,2.307C3339.69,1431.2,3338.137,1463.778,3338.137,1463.778Z" transform="translate(-3328.02 -1427.668)"/></g><g transform="translate(35.011 19.55)"><path class="n" d="M3338.137,1463.778s-3.76,5.427-4.729,4.419-1.667-5.621-1.628-7.366a5.323,5.323,0,0,0-2.171-4.341,6.35,6.35,0,0,1-1.59-2.378c.032-1.092.114-2.289.256-3.6.93-8.543.992-12.8-.182-15.29.089-.1.172-.2.233-.266.164.241.343.507.525.788l.761,1.489.408.8q-.1,1.726-.2,3.452c-.13,2.3-.608,4.822-.047,7.076.5,2.018.992,4.057,1.431,6.089.359,1.665,1.643,3.088,1.789,4.808.169,1.99-.861,3.58.067,5.592.2.436.555.9,1.034.873s.764-.5.946-.929a14.515,14.515,0,0,0,.54-7.8,64.088,64.088,0,0,1-1.131-7.833c-.038-1.506.121-3.019-.055-4.515a19.18,19.18,0,0,1-.371-3.23,9.817,9.817,0,0,1,.45-2.174q.864-3.013,1.729-6.026a9.6,9.6,0,0,0,.491-4.924c.219-.509.357-.819.357-.819a4.5,4.5,0,0,0,1.391,2.307C3339.69,1431.2,3338.137,1463.778,3338.137,1463.778Z" transform="translate(-3328.02 -1427.668)"/></g><g transform="translate(37.962 37.726)"><path class="j" d="M3374.076,1711.338a29.628,29.628,0,0,0,3.16,9.332" transform="translate(-3374.076 -1711.338)"/></g><g transform="translate(21.661 55.081)"><path class="k" d="M3123.207,1989.222c-1.822-.271-3.024-.233-3.411-.853a.91.91,0,0,1-.1-.339,28.07,28.07,0,0,1,.487-5.334c.046-.28.077-.458.083-.488,0,.006,0,.021-.006.043l3.644.3v.8S3125.029,1989.493,3123.207,1989.222Z" transform="translate(-3119.665 -1982.208)"/></g><g transform="translate(23.411 19.193)"><path class="v" d="M3194.505,1477.87c-.617.83-4.807,2.562-8.018,3.78-2.035.771-3.677,1.337-3.766,1.337a9.675,9.675,0,0,1-4.729-.543c-1.938-.93-3.993-6.707-4.5-8.373s-1.2-4.109-1.59-3.334a1.2,1.2,0,0,1-.8.68,11.067,11.067,0,0,1-3.234.1,32.332,32.332,0,0,1-9.759-2.4c-1.815-.93-11.143-4.264-11.143-4.264.766-1.046.746-6.474,1.405-6.9a22.327,22.327,0,0,1,4.624.3c4.826.554,11.682,1.556,11.682,1.556s2.092-4.008,1.927-4.762a.209.209,0,0,0-.013-.045,12.866,12.866,0,0,1-.529-1.786c-.293-1.715.057-2.184.054-3.756a19.3,19.3,0,0,0-.385-3.437c-.89-4.851.892-15.9,1.65-17.686s.532-6.236.532-6.236c.15.095.32.2.506.309l.116.069.158.093.15.087.275.159.255.146.329.186.113.063.119.067.22.122c.185.1.377.208.573.316l.239.131.324.177c5.1,2.775,13.054,6.786,13.054,6.786,4.729,2.558,6.241,25.546,6.512,27.058s2.52,13.064,2.791,14.265S3195.512,1476.513,3194.505,1477.87Z" transform="translate(-3146.97 -1422.098)"/></g><g transform="translate(44.258 19.122)"><path class="x" d="M3472.34,1421.24a1.084,1.084,0,0,1,.077-.252C3472.438,1421.047,3472.385,1421.146,3472.34,1421.24Z" transform="translate(-3472.34 -1420.988)"/></g><g class="w" transform="translate(43.934 19.91)"><path class="x" d="M3471.884,1446.2a7.168,7.168,0,0,1-.185,2.275,45.2,45.2,0,0,1-3.03,10.846,19.544,19.544,0,0,1-1.389,2.485c.542-.819.153-3.631.2-4.644q.109-2.444.224-4.888.2-4.213.425-8.426a.065.065,0,0,1,0-.015c.018-.363.038-.724.057-1.087q.132-2.443.271-4.885c.063-1.1-.12-3.215.454-4.583l.255.146.33.186.113.063.119.067.22.122c.185.1.377.208.573.317l.238.131.324.177a11.945,11.945,0,0,1,.643,1.517c.674,1.884,1.776,6.806-1.467,7A7.188,7.188,0,0,1,3471.884,1446.2Z" transform="translate(-3467.28 -1433.278)"/></g><g transform="translate(41.933 19.193)"><path class="y" d="M3441.778,1435.156c.227.532-.1,1.536-.17,2.09q-.151,1.207-.32,2.412a44.8,44.8,0,0,1-1.408,7.937c-.147.437-.295.856-.441,1.262-.785,2.176-1.555,3.988-2.274,6.187a.209.209,0,0,0-.013-.045,12.88,12.88,0,0,1-.529-1.786c-.438-2.565.561-2.343-.33-7.193s.891-15.9,1.65-17.686.532-6.236.532-6.236c.15.095.32.2.506.309l.116.069.158.093.15.087.275.159.255.146.329.186.114.063.119.067.219.122.574.316.238.131a26.972,26.972,0,0,0,.934,7.625c-1.315.132-2.435,1.2-3.564,1.9l-.042.026a.1.1,0,0,1,.042-.011A7.683,7.683,0,0,1,3441.778,1435.156Z" transform="translate(-3436.048 -1422.098)"/></g><g class="w" transform="translate(47.547 46.41)"><path class="x" d="M3539.051,1879.222c-2.035.771-3.677,1.337-3.767,1.337a9.676,9.676,0,0,1-4.729-.543c-1.938-.93-3.993-6.706-4.5-8.373s-1.2-4.109-1.591-3.334a1.2,1.2,0,0,1-.8.68,16.5,16.5,0,0,1,1.045-1.365c1.8-2.167,3.78-4.195,5.448-6.469a17.955,17.955,0,0,0,3.255-6.726c.946-1.614,1.842-3.35,2.845-4.793a10.989,10.989,0,0,1,2.747-2.748c.115,4.407-1.444,8.67-2.085,13.032-.939,6.385.112,12.932,2.062,19.084C3539.01,1879.077,3539.031,1879.15,3539.051,1879.222Z" transform="translate(-3523.67 -1846.888)"/></g><g transform="translate(48.345 46.201)"><path class="y" d="M3549.269,1843.62c-.775,1.979-1.674,3.9-2.623,5.8s-1.958,3.765-3.03,5.6q-.4.686-.817,1.368l-.835,1.348c-.276.447-.545.9-.835,1.356a14.547,14.547,0,0,1-.937,1.329,10.578,10.578,0,0,1-1.134,1.175c-.392.361-.781.707-1.132,1.084a6.182,6.182,0,0,0-.491.59,6.581,6.581,0,0,0-.4.661c-.128.231-.254.469-.4.7a3.383,3.383,0,0,1-.507.622,5.82,5.82,0,0,0,.676-1.423,5.746,5.746,0,0,1,.332-.744,6.108,6.108,0,0,1,.45-.687c.657-.874,1.469-1.578,2.039-2.4.588-.838,1.072-1.767,1.6-2.693.066-.116.133-.232.2-.348l.2-.341.4-.682q.4-.681.8-1.365l3.188-5.48C3547.089,1847.258,3548.156,1845.432,3549.269,1843.62Z" transform="translate(-3536.126 -1843.62)"/></g><g transform="translate(38.461 80.131)"><path class="e" d="M3381.868,2375.449c2.335.02,4.663.092,6.989.122s4.649.048,6.97.008c.29,0,.581-.012.871-.018s.58-.012.87-.024l.87-.028.87-.037c.58-.019,1.159-.061,1.738-.088l.869-.057c.29-.018.58-.036.867-.06a18.371,18.371,0,0,0,3.406-.526,9.584,9.584,0,0,0,1.627-.561,4.612,4.612,0,0,0,.745-.428,3.56,3.56,0,0,0,.644-.58,3.364,3.364,0,0,1-.575.665,4.721,4.721,0,0,1-.719.521,6.561,6.561,0,0,1-.793.4c-.271.115-.545.225-.824.323a14.159,14.159,0,0,1-1.709.47c-.289.062-.58.114-.87.16s-.583.089-.874.123c-.583.073-1.163.128-1.746.188s-1.165.1-1.749.137c-.292.019-.584.038-.876.053l-.876.041c-.292.014-.584.021-.877.03s-.584.019-.876.022q-3.508.058-7.006-.166C3386.5,2375.994,3384.18,2375.771,3381.868,2375.449Z" transform="translate(-3381.868 -2373.172)"/></g><g transform="translate(6.981 46.628)"><g transform="translate(10.26 0.99)"><g transform="translate(0.037 0.04)"><path class="h" d="M3051.443,1869.386c-.052.016-.1.029-.149.039l-.039-.212a14.123,14.123,0,0,0,3.333-2,.185.185,0,0,0,.074-.2l-.181-.59.232-.071.182.59a.4.4,0,0,1-.161.437A15.39,15.39,0,0,1,3051.443,1869.386Z" transform="translate(-3051.255 -1866.347)"/></g><path class="h" d="M3050.726,1868.878l-.051-.274.031-.006a14.1,14.1,0,0,0,3.32-2,.154.154,0,0,0,.063-.167l-.19-.621.293-.09.191.621a.434.434,0,0,1-.172.472,15.483,15.483,0,0,1-3.3,2.018h0c-.054.017-.1.03-.152.04Zm.024-.225.027.148c.036-.009.074-.019.114-.031a15.45,15.45,0,0,0,3.281-2.008.37.37,0,0,0,.149-.4l-.172-.559-.17.052.172.559a.217.217,0,0,1-.086.237A14.513,14.513,0,0,1,3050.749,1868.653Z" transform="translate(-3050.675 -1865.722)"/></g><g transform="translate(0 0)"><path class="p" d="M2905.209,1851.261a2.017,2.017,0,0,1-.444.276c-.69.37-2.132,1.053-3.966,1.826a67.637,67.637,0,0,1-9.389,3.23l-.86-.044.617-.562s3.432-1.642,6.934-3.176a59.21,59.21,0,0,1,6.195-2.43c.144-.041.277-.074.4-.1C2904.693,1850.279,2905.352,1851.008,2905.209,1851.261Z" transform="translate(-2890.55 -1850.279)"/></g><g transform="translate(13.746)"><path class="h" d="M3106,1851.258a1.986,1.986,0,0,1-.445.276,4.362,4.362,0,0,0-.469-1.157c.144-.04.277-.074.4-.1C3105.479,1850.276,3106.139,1851,3106,1851.258Z" transform="translate(-3105.082 -1850.276)"/></g></g><g class="ai" transform="translate(6.903 49.127)"><g transform="translate(0.078 0.033)"><path class="h" d="M2900.8,1890.34a67.654,67.654,0,0,1-9.389,3.23l-.86-.044.617-.562s3.432-1.642,6.934-3.176A13.764,13.764,0,0,1,2900.8,1890.34Z" transform="translate(-2890.55 -1889.788)"/></g><path class="h" d="M2890.268,1893.125l-.941-.048.681-.619c.035-.016,3.473-1.66,6.936-3.176l.008,0h.009a13.779,13.779,0,0,1,2.7.553l.084.026-.081.034a68.891,68.891,0,0,1-9.393,3.232Zm-.785-.1.779.04a68.716,68.716,0,0,0,9.3-3.193,13.739,13.739,0,0,0-2.6-.524c-3.4,1.491-6.782,3.1-6.922,3.17Z" transform="translate(-2889.327 -1889.278)"/></g><g transform="translate(7.183 49.355)"><path class="ae" d="M2908.2,1904.385c-1.671-.664-3.959-.431-5.5-1.039a13.818,13.818,0,0,1-3.133-2c-.488-.393-.805-.68-.805-.68a2.107,2.107,0,0,0-.886-.366c-.6-.1-1.282-.076-1.649-.667-.051-.082-.568-.8-.277-.8a.429.429,0,0,1-.4-.222,1.77,1.77,0,0,1,.09-1.446.449.449,0,0,1-.43-.1.886.886,0,0,1-.243-.386,1.752,1.752,0,0,1-.077-.834c-.691.485-1.234-.781-1.2-.8a11.658,11.658,0,0,0,1.631-1.236,3.961,3.961,0,0,1,1.79-.958,3.554,3.554,0,0,1,.91.085c.35.034.7.022,1.054.07q.72.1,1.438.209a11.874,11.874,0,0,1,2.061.366c.443.152,2.579,3.495,3.143,4.12a5.86,5.86,0,0,0,1.825.95c.454.172.882.315,1.145.4A28.055,28.055,0,0,0,2908.2,1904.385Z" transform="translate(-2893.693 -1892.838)"/></g><g transform="translate(9.443 55.349)"><path class="aj" d="M2928.968,1986.4a7.5,7.5,0,0,0,2.626,0" transform="translate(-2928.968 -1986.402)"/></g><g transform="translate(9.133 52.758)"><path class="aj" d="M2924.127,1946.875a5.01,5.01,0,0,1,.759-.461,6.335,6.335,0,0,1,.815-.344c.071-.023.142-.046.219-.066.038-.01.076-.019.118-.026a.991.991,0,0,1,.12-.016,2.516,2.516,0,0,1,.46,0,3.29,3.29,0,0,1,.873.2c-.3.043-.588.061-.873.089-.142.014-.282.029-.413.053-.033.006-.065.012-.095.02a.956.956,0,0,0-.094.026c-.065.019-.133.041-.2.065-.27.09-.546.183-.826.264A6.522,6.522,0,0,1,2924.127,1946.875Z" transform="translate(-2924.127 -1945.952)"/></g><g transform="translate(8.382 50.846)"><path class="aj" d="M2912.415,1917.626a3.4,3.4,0,0,1,.273-.46,3.872,3.872,0,0,1,.336-.418,2.676,2.676,0,0,1,.41-.367,1.172,1.172,0,0,1,.12-.078c.021-.012.041-.026.063-.037l.069-.032.069-.031.078-.023c.025-.007.053-.016.077-.021l.07-.012a4.9,4.9,0,0,1,1.076-.015,5.812,5.812,0,0,1,1.047.176c-.353.056-.7.084-1.049.11s-.7.042-1.016.088l-.059.009c-.019,0-.033.009-.05.014l-.048.013-.051.021-.051.021c-.017.007-.034.018-.051.027-.034.019-.069.035-.1.058a4.053,4.053,0,0,0-.406.289C2912.949,1917.168,2912.69,1917.4,2912.415,1917.626Z" transform="translate(-2912.415 -1916.11)"/></g><g transform="translate(2.448 53.941)"><path class="ae" d="M2829.171,1970.016a1.862,1.862,0,0,1-.177.781.415.415,0,0,1-.159.2.45.45,0,0,1-.263.029,11.928,11.928,0,0,0-1.278-.14,2.3,2.3,0,0,1-.544-.022.5.5,0,0,1-.388-.342.265.265,0,0,0-.042-.13.176.176,0,0,0-.116-.049c-.374-.049-1.063.156-1.3-.255-.074-.128-.015-.241-.159-.334s-.387-.022-.552-.114c-.278-.154-.535-.341-.812-.494a1.671,1.671,0,0,1-.689-.572,1.735,1.735,0,0,1-.195-.885,5.917,5.917,0,0,1-.7-.081,1.322,1.322,0,0,1-.8-.494,6.479,6.479,0,0,1-.9-1.56c-.465-1.174-.233-.948-.233-.948a.7.7,0,0,1,.6-.184,3.781,3.781,0,0,1,1.318.475c.054,0,.262.052.315.053a2.043,2.043,0,0,0,.66.719c.144.109.294.213.435.32.291.221.557.472.834.712.1.083.193.164.292.243a12.038,12.038,0,0,0,1.147.768l2.342,1.439.706.433c.063.038.123.077.181.116C2828.851,1969.806,2829,1969.91,2829.171,1970.016Z" transform="translate(-2819.802 -1964.419)"/></g><g transform="translate(4.945 55.274)"><path class="aj" d="M2860.757,1987.708a3.454,3.454,0,0,0-.32-1.185,2.2,2.2,0,0,0-.154-.251c-.028-.04-.058-.078-.089-.116a.625.625,0,0,0-.045-.053c-.014-.016-.031-.032-.048-.048a2.062,2.062,0,0,0-.223-.183,2.189,2.189,0,0,0-.246-.155,1.226,1.226,0,0,0-.254-.11.452.452,0,0,0-.217-.022l-.01,0h0s0,0,0,0,0,0,0,0-.005.007-.009.011a.434.434,0,0,0-.042.1,1.855,1.855,0,0,0-.047.284c-.019.2-.024.412-.032.622-.006.106-.008.212-.015.319a2.089,2.089,0,0,1-.037.32c-.008-.053-.018-.1-.03-.157l-.032-.156c-.023-.1-.042-.208-.063-.313a4.583,4.583,0,0,1-.075-.644,1.7,1.7,0,0,1,.02-.345.676.676,0,0,1,.065-.2.357.357,0,0,1,.036-.054.328.328,0,0,1,.121-.1l.02-.009.014,0,.028-.008a.757.757,0,0,1,.408.008,1.517,1.517,0,0,1,.33.136,2.2,2.2,0,0,1,.543.418,1.146,1.146,0,0,1,.112.141,1.7,1.7,0,0,1,.092.144,2,2,0,0,1,.234.633,2.038,2.038,0,0,1,.035.33A2.545,2.545,0,0,1,2860.757,1987.708Z" transform="translate(-2858.764 -1985.23)"/></g><g transform="translate(7.448 57.293)"><path class="aj" d="M2897.906,2018.73a1.928,1.928,0,0,1-.064-.561,2.084,2.084,0,0,1,.089-.557,1.643,1.643,0,0,1,.262-.514,1.052,1.052,0,0,1,.457-.354c-.081.178-.149.335-.208.5s-.112.319-.163.481-.1.328-.155.5A2.854,2.854,0,0,1,2897.906,2018.73Z" transform="translate(-2897.841 -2016.743)"/></g><g transform="translate(8.949 58.371)"><path class="aj" d="M2921.265,2035a1.554,1.554,0,0,1,.137-.451,2.407,2.407,0,0,1,.53-.73,1.536,1.536,0,0,1,.387-.27,1.723,1.723,0,0,1-.159.442,2.854,2.854,0,0,1-.234.381,2.822,2.822,0,0,1-.291.34A1.77,1.77,0,0,1,2921.265,2035Z" transform="translate(-2921.265 -2033.553)"/></g><g transform="translate(26.239 16.33)"><g transform="translate(4.142 6.661)"><path class="ah" d="M3255.946,1483.635a.182.182,0,0,1-.025-.362,2.134,2.134,0,0,0,1.729-1.759.182.182,0,0,1,.355.074,2.492,2.492,0,0,1-2.033,2.044Z" transform="translate(-3255.765 -1481.37)"/></g><path class="ah" d="M3195.9,1378.05a5.243,5.243,0,0,0-2.344-.645,4.355,4.355,0,0,0-1.834.353c-.222.1-.728.239-.58.594.131.313.565.182.8.1.391-.129.794-.263,1.2-.365A5.563,5.563,0,0,1,3195.9,1378.05Z" transform="translate(-3191.114 -1377.403)"/><g transform="translate(1.102 2.099)"><g transform="translate(0 0)"><g transform="translate(0)"><ellipse class="ah" cx="0.616" cy="0.688" rx="0.616" ry="0.688" transform="translate(0 0.437) rotate(-20.773)"/></g></g></g><g transform="translate(1.029 1.916)"><path class="ah" d="M3209.481,1407.44a2.788,2.788,0,0,0-.333-.079c-.111-.02-.222-.036-.333-.046a2.664,2.664,0,0,0-.659.021,2.609,2.609,0,0,0-.323.068.856.856,0,0,0-.3.154,1.055,1.055,0,0,0-.232.265,1,1,0,0,0-.13.36l.024.021c.087-.071.166-.138.249-.2a2.794,2.794,0,0,1,.252-.154l.26-.139a1.416,1.416,0,0,1,.275-.12,2.232,2.232,0,0,1,.3-.072,2.942,2.942,0,0,1,.309-.043,3.684,3.684,0,0,1,.641-.007Z" transform="translate(-3207.174 -1407.304)"/></g><g class="l" transform="translate(3.537 1.852)"><g transform="translate(0 0)"><g transform="translate(0)"><ellipse class="ak" cx="2.637" cy="1.306" rx="2.637" ry="1.306" transform="translate(0 2.112) rotate(-23.61)"/></g></g></g><g class="al" transform="translate(6.557 2.168)"><g transform="translate(0 0)"><g transform="translate(0)"><ellipse class="k" cx="0.348" cy="0.381" rx="0.348" ry="0.381" transform="translate(0 0.279) rotate(-23.61)"/></g></g></g></g><g transform="translate(52.7 80.369)"><path class="e" d="M3619.084,2384.664s.15,5.621-.681,7.288-.482,2.209-3.66,3.024-9.381.891-10.156.543c-.332-.149-.515-.762-.49-1.489,2.124-.141,4.248-.289,6.37-.467s4.793-.2,6.164-1.98a8.454,8.454,0,0,0,1.474-5.92c-.209-1.811.8-2.167,1.374-3.623a28.987,28.987,0,0,0,1.358-5.153,1.047,1.047,0,0,1,.264.256C3621.837,2378.229,3621.488,2382.222,3619.084,2384.664Z" transform="translate(-3604.095 -2376.888)"/></g><g transform="translate(3.005 92.4)"><path class="e" d="M2853.627,2567.382c-.736.813-5.5.93-6.28.62s-1.008-1.4-1.551-1.24a10.576,10.576,0,0,0-1.938,1.24l-14.576-.465s-.916.147-.789-1.7c3.535.3,7.082.463,10.63.5,2.592.031,5.186,0,7.777-.079a18.275,18.275,0,0,0,6.845-1.6A5.334,5.334,0,0,1,2853.627,2567.382Z" transform="translate(-2828.482 -2564.659)"/></g><g class="w" transform="translate(29.153 44.324)"><path class="x" d="M3252.976,1819.2q-.133,2.072-.379,4.134c-.176,1.474-.483,3.1-1.664,4-1.319,1.006-3.177.708-4.806.39-3.021-.592-6.088-.943-9.119-1.451a.491.491,0,0,1-.137-.924l.014-.007c4.826.554,11.682,1.556,11.682,1.556s2.092-4.009,1.927-4.762a.224.224,0,0,0-.013-.045,12.844,12.844,0,0,1-.529-1.786c-.293-1.715.057-2.184.054-3.756.14-.729.263-1.469.363-2.228Z" transform="translate(-3236.599 -1814.319)"/></g><g transform="translate(13.057 55.168)"><path class="ag" d="M2994.007,1989.3c-1.671-.664-3.959-.431-5.5-1.039a13.835,13.835,0,0,1-3.133-2,11.979,11.979,0,0,0,2,1.14c2.777,1.055,5.1-1.359,5.984-3.832.455.172.883.315,1.146.4A28.094,28.094,0,0,0,2994.007,1989.3Z" transform="translate(-2985.37 -1983.569)"/></g><g transform="translate(3.107 53.945)"><path class="ag" d="M2832.283,1965.732a.044.044,0,0,1-.026.035.621.621,0,0,0-.2.252l-.643,1.183a20.3,20.3,0,0,0-1.328-2.723,2.438,2.438,0,0,1,1.221.615C2831.465,1965.2,2832.3,1965.582,2832.283,1965.732Z" transform="translate(-2830.086 -1964.478)"/></g><g transform="translate(6.669 56.223)"><path class="ag" d="M2890.565,2003.785a20.087,20.087,0,0,1-1.723-1.16c-.532-.339-.5-.907-1.117-1.057a2.5,2.5,0,0,0-1.252,1.089c-.265-.129-.31-.48-.339-.773a6.6,6.6,0,0,0-.464-1.847q.144.124.292.243a12.028,12.028,0,0,0,1.147.767l2.342,1.439.706.433c.063.039.123.077.181.116A5.015,5.015,0,0,1,2890.565,2003.785Z" transform="translate(-2885.669 -2000.038)"/></g><g class="af" transform="translate(26.266 23.086)"><path class="ag" d="M3193.491,1483.585a1.706,1.706,0,0,1-1.961.381,3.389,3.389,0,0,0,1.918-1.108A4.56,4.56,0,0,0,3193.491,1483.585Z" transform="translate(-3191.53 -1482.858)"/></g><g transform="translate(21.799 12.766)"><path class="e" d="M3124.153,1324.484a2.64,2.64,0,0,1-.363,1.514c-.07-.043-.08-.3-.149-.344a2.645,2.645,0,0,1-.379.766,1.354,1.354,0,0,1-1.441.425,1.82,1.82,0,0,0,.14-.885,4.6,4.6,0,0,0,.578-2,2.345,2.345,0,0,1,2.511-2.16l.009.155a2.032,2.032,0,0,0-1.634.78,9.352,9.352,0,0,0,.47,1.11C3124.047,1324.223,3124.126,1324.082,3124.153,1324.484Z" transform="translate(-3121.82 -1321.789)"/></g><g transform="translate(20.842 8.215)"><path class="e" d="M3112.24,1250.778c-1.243.736-2.57,1.095-3.625,2.2a5.268,5.268,0,0,0-1.152,4.31c.05.407.113.813.174,1.219-.039-.082-.08-.166-.122-.254a6.394,6.394,0,0,1-.392-4.467,8.038,8.038,0,0,1,.848-1.549C3108.958,1250.918,3110.7,1250.693,3112.24,1250.778Z" transform="translate(-3106.885 -1250.762)"/></g><g transform="translate(23.344 6.57)"><path class="e" d="M3151.873,1227.13c-1.327-.292-2.488-1.264-3.8-1.639a3.632,3.632,0,0,0-2.041.051.055.055,0,0,0,0-.022,2.455,2.455,0,0,1-.1-.3,11.032,11.032,0,0,1,2.226-.126A5.427,5.427,0,0,1,3151.873,1227.13Z" transform="translate(-3145.929 -1225.085)"/></g><g transform="translate(32.384 10.783)"><path class="e" d="M3287.02,1290.828a2.7,2.7,0,0,1,.619,1.2C3287.422,1291.628,3287.206,1291.231,3287.02,1290.828Z" transform="translate(-3287.02 -1290.828)"/></g><g transform="translate(28.692 2.389)"><path class="e" d="M3233.605,1161.911c-1.5.018-2.875-1.263-4.216-2.021.37.027.739.074,1.1.132.01-.066.021-.13.035-.194a3.032,3.032,0,0,1,.8.312C3231.837,1160.426,3233.693,1161.266,3233.605,1161.911Z" transform="translate(-3229.39 -1159.828)"/></g><g transform="translate(30.828 11.979)"><path class="e" d="M3276.042,1316.042a2.079,2.079,0,0,0,.07.777.942.942,0,0,0,.157.283,1.732,1.732,0,0,0,.066.369c-.68.015-.942-.736-1.085-1.4a1.171,1.171,0,0,1-.819.225,7.693,7.693,0,0,1-3.081-.953,4.872,4.872,0,0,1-1.634-1.069c-.5-.573-.753-1.392-1.41-1.783a1.49,1.49,0,0,0-1.617.073,2.776,2.776,0,0,0-.492.943,3.611,3.611,0,0,0-.99-1.536.188.188,0,0,0-.109-.073.19.19,0,0,0-.109.038l-.823.5a2.7,2.7,0,0,1-1.426.371,2.79,2.79,0,0,0,2.062-1.657,2.743,2.743,0,0,0,.114-1.651,16.4,16.4,0,0,1,.854,1.706c.148.369.192.862.556,1,.845.312,1.549-.283,2.462.235.832.472,1.74.755,2.548,1.3,1.178.792,2.718,1.431,3.813.02a3.3,3.3,0,0,0,.552-2.387,5.812,5.812,0,0,0,.478,1.028C3276.664,1313.547,3276.094,1314.853,3276.042,1316.042Z" transform="translate(-3262.74 -1309.498)"/></g><g transform="translate(45.054 8.363)"><path class="e" d="M3484.82,1253.517a1.272,1.272,0,0,1-.052-.459C3484.781,1253.214,3484.8,1253.367,3484.82,1253.517Z" transform="translate(-3484.764 -1253.058)"/></g><g transform="translate(44.826 6.264)"><path class="e" d="M3481.21,1220.3c.092.074.193.151.3.222a.393.393,0,0,0,.1.124A2.358,2.358,0,0,1,3481.21,1220.3Z" transform="translate(-3481.21 -1220.298)"/></g><g transform="translate(38.051 2.739)"><path class="e" d="M3382.782,1170.624c-1.151-.809-1.28-2.048-2.264-3.01a9.1,9.1,0,0,0-5.058-2.282c1.811-.075,3.276-.219,4.711,1.034.729.635,1.1,1.5,1.763,2.172l.031.031a4.936,4.936,0,0,0,1.18,2.254A2.74,2.74,0,0,1,3382.782,1170.624Z" transform="translate(-3375.46 -1165.285)"/></g><g transform="translate(45.11 8.823)"><path class="e" d="M3486.841,1263.215a7.525,7.525,0,0,1-1.2-2.977,3.59,3.59,0,0,0,1.383,1.839A2.538,2.538,0,0,0,3486.841,1263.215Z" transform="translate(-3485.639 -1260.238)"/></g><g transform="translate(43.882 0.977)"><path class="ah" d="M3466.5,1137.792a3.63,3.63,0,0,1,.551.2,3.98,3.98,0,0,1,.517.287,4.726,4.726,0,0,1,.9.781,6.135,6.135,0,0,1,.7.973,8.735,8.735,0,0,1,.512,1.076c.146.366.287.741.413,1.1s.227.706.333,1.037c.025.084.054.165.083.246l.044.119.049.117a4.009,4.009,0,0,0,.229.456,2.741,2.741,0,0,0,.706.808l-.028.086a1.531,1.531,0,0,1-.615-.129,2.126,2.126,0,0,1-.546-.342,2.782,2.782,0,0,1-.438-.473c-.064-.086-.122-.177-.178-.268s-.1-.184-.148-.278a4.545,4.545,0,0,1-.36-1.145c-.072-.38-.129-.743-.233-1.1a8.135,8.135,0,0,0-.364-1.039,5.646,5.646,0,0,0-.517-.965,4.138,4.138,0,0,0-1.643-1.46Z" transform="translate(-3466.467 -1137.792)"/></g></g><g transform="translate(148.537 0)"><g transform="translate(0 0)"><g transform="translate(0 0)"><path class="am" d="M2837.716,628.935a1.546,1.546,0,0,1-.622-.121c-5.38-2.258-7.963-5.513-9.183-7.847a8,8,0,0,1-.905-3.712l-.164-10.614a1.545,1.545,0,0,1,2.038-1.489,7.536,7.536,0,0,0,2.524.382,10.711,10.711,0,0,0,5.1-1.522,1.553,1.553,0,0,1,1.666-.023,10.706,10.706,0,0,0,5.137,1.361,7.539,7.539,0,0,0,2.511-.459,1.544,1.544,0,0,1,2.082,1.426l.164,10.614a8,8,0,0,1-.79,3.737c-1.147,2.371-3.628,5.705-8.937,8.128A1.545,1.545,0,0,1,2837.716,628.935Z" transform="translate(-2826.842 -603.757)"/></g><g transform="translate(5.003 6.253)"><g transform="translate(0 0)"><path d="M2867.834,607.826a1.305,1.305,0,0,1-.893-.333l-2.672-2.391a1.309,1.309,0,1,1,1.745-1.951l1.778,1.591,6.357-6.085a1.309,1.309,0,0,1,1.791,1.909l-7.232,6.906A1.3,1.3,0,0,1,2867.834,607.826Z" transform="translate(-2863.833 -598.303)"/></g></g></g></g></g></g></g></svg>