<svg xmlns="http://www.w3.org/2000/svg" width="172.807" height="144.639" viewBox="0 0 172.807 144.639"><defs><style>.a{fill:#061832;}.b{fill:#f3f5f4;}.c{fill:#9ab5a9;}.d{fill:#fff;}.e{fill:#a8c47a;}.f{fill:#84a05c;}.g{opacity:0.47;}.h{fill:#ffc83e;}.i{fill:#f28b0f;}.j{opacity:0.32;}.k{fill:#b78f74;}.l{fill:#936241;}.m{opacity:0.2;}.n{opacity:0.73;}.o{opacity:0.08;}.p{fill:#d3e0db;}.q{fill:#b6cec4;}.r{fill:#8e1c02;}.s{opacity:0.52;}.t{fill:#070208;}.u{fill:#fcdccd;}.v{fill:#524e53;}.w{opacity:0.39;}.x{fill:#2d0202;}.y{opacity:0.78;}.z{fill:#f2ad94;}.aa{fill:#530905;}.ab{fill:#fdb23d;}.ac{opacity:0.67;}.ad{fill:#c46906;}.ae{fill:#571e1e;}.af{opacity:0.55;}.ag{fill:#f98262;}.ah{opacity:0.68;}.ai{opacity:0.63;}.aj{fill:#0b3f42;}.ak{fill:#72120c;}.al{opacity:0.69;}.am{fill:#c73f00;}.an{fill:#ac2a03;}.ao{fill:#ea9378;}.ap{fill:#282828;}.aq{fill:#fed45c;stroke:#fed45c;stroke-width:2px;}</style></defs><g transform="translate(0 0)"><g transform="translate(0 0)"><g transform="translate(24.896 137.901)"><path class="a" d="M1409.022,2662.9c-7.309.435-14.655.864-21.879-.077a38.078,38.078,0,0,0-6.471-.773c-7.5.267-14.971.821-22.485.915-15.151.19-30.306-.218-45.456.139a19.044,19.044,0,0,0-5.661.864c-.787.232-1.6.812-1.618,1.631-.024,1.185,1.477,1.693,2.653,1.838,16.631,2.055,33.067.758,49.689,1.172q6.779.168,13.561.171,22.6.01,45.16-1.816c1.179-.1,11.472.4,11.418-1.815a.866.866,0,0,0-.277-.523c-2.038-2.269-4.96-2.255-7.86-2.211C1416.229,2662.465,1412.63,2662.681,1409.022,2662.9Z" transform="translate(-1305.453 -2662.039)"/></g><g transform="translate(5.449 3.164)"><path class="b" d="M1149.615,497.758v0a41.724,41.724,0,0,1-2.412,9.112q-.31.788-.654,1.565-.726,1.633-1.61,3.206c-.069.124-.14.247-.211.37q-.337.582-.7,1.154-.4.633-.811,1.25a51.414,51.414,0,0,1-5.773,7.136q-1.578,1.631-3.28,3.12-1.262,1.106-2.586,2.138-2.139,1.668-4.428,3.147A75.871,75.871,0,0,1,1114,536.683q-1.444.577-2.911,1.105c-2.688.97-5.429,1.82-8.2,2.562q-1.149.309-2.3.592a139.12,139.12,0,0,1-21.953,3.461c-4.478.36-8.965.513-13.453.493q-1.111,0-2.221-.024a241.417,241.417,0,0,1-32.937-3.081c-8.708-1.355-17.5-3.074-25.355-7.073-11.616-5.915-18.148-16.773-20.674-29a58.955,58.955,0,0,1-1-6.93,72.069,72.069,0,0,1,1.361-20.775,73.606,73.606,0,0,1,2.359-8.607c.719-2.109,1.526-4.147,2.412-6.093.624-1.373,1.248-2.62,1.9-3.78l.018-.031h0a32.067,32.067,0,0,1,3.682-5.265,40.118,40.118,0,0,1,3.6-3.643q.327-.293.655-.583.563-.5,1.136-.98a80.172,80.172,0,0,1,7.409-5.552q2.8-1.863,5.748-3.5a97.56,97.56,0,0,1,16.559-7.25,113.764,113.764,0,0,1,15.075-3.893,142.607,142.607,0,0,1,22.174-2.438q1.627-.045,3.254-.049c3.123,0,6.241.113,9.332.368a88.968,88.968,0,0,1,15.073,2.5c2.51.653,5.024,1.439,7.523,2.351h0a86.69,86.69,0,0,1,19.071,9.788,79.751,79.751,0,0,1,8,6.229q2.1,1.864,4.041,3.873a65.939,65.939,0,0,1,7.013,8.564q.17.249.339.5.785,1.172,1.512,2.376.366.607.717,1.222.181.318.359.638l.1.174a53.563,53.563,0,0,1,4.278,10.058,55.91,55.91,0,0,1,1.546,6.315s0,0,0,0,0,0,0,0,0,0,0,0A50.255,50.255,0,0,1,1149.615,497.758Z" transform="translate(-982.765 -426.351)"/></g><path class="c" d="M984.552,499.02c-13.627,0-28.292-1.8-45.746-5.58-15.795-3.425-31.574-8.707-40.015-24.03a52.811,52.811,0,0,1-5.841-18.494,71.29,71.29,0,0,1,.329-20.622,67.387,67.387,0,0,1,6.255-19.57,47.4,47.4,0,0,1,11.966-15.33,87.187,87.187,0,0,1,23.242-13.55,110.078,110.078,0,0,1,25.969-6.685,135.234,135.234,0,0,1,27.976-.987,145.946,145.946,0,0,1,20.987,2.741c.871.2-.15-.065,2.613.587s31.086,9.876-.134.6q-1.307-.291-2.615-.587a145.365,145.365,0,0,0-20.9-2.728,134.638,134.638,0,0,0-27.848.983c-19.144,2.581-36.054,9.532-48.9,20.1-18.715,15.4-24.819,50.991-12.56,73.245,8.322,15.107,23.954,20.331,39.607,23.725,19.142,4.151,34.915,5.9,49.639,5.513l.483-.014a138.836,138.836,0,0,0,19.452-1.772c24.029-4.093,53.01-19.122,55.607-48.01a.307.307,0,1,1,.612.055,43.935,43.935,0,0,1-6.26,19.077,52.442,52.442,0,0,1-13.171,14.328c-9.7,7.4-22.73,12.779-36.685,15.156a139.467,139.467,0,0,1-19.538,1.781l-.483.014Q986.586,499.02,984.552,499.02Z" transform="translate(-892.353 -373.844)"/><g transform="translate(8.769 3.046)"><g transform="translate(0.118 0.118)"><path class="d" d="M1195.863,462.9v41.213H1039.875q-.026-.975-.039-1.951c0-.249-.006-.5-.009-.749-.036-3.747.051-7.5.259-11.238a164.384,164.384,0,0,1,4.563-30.589h0l.02-.081h0a32.078,32.078,0,0,1,3.682-5.265,40.1,40.1,0,0,1,3.6-3.643q.326-.293.655-.583.563-.5,1.136-.98a80.149,80.149,0,0,1,7.409-5.552q2.8-1.863,5.748-3.5a97.558,97.558,0,0,1,16.559-7.25,113.753,113.753,0,0,1,15.075-3.893,142.6,142.6,0,0,1,22.174-2.438q1.627-.045,3.255-.049c3.123,0,6.241.113,9.331.368a88.975,88.975,0,0,1,15.073,2.5c2.509.653,5.025,1.439,7.523,2.351h0a86.684,86.684,0,0,1,19.071,9.788,79.8,79.8,0,0,1,8,6.229q2.1,1.864,4.041,3.873a65.9,65.9,0,0,1,7.013,8.564q.171.249.339.5Q1195.136,461.7,1195.863,462.9Z" transform="translate(-1039.819 -426.351)"/></g><g transform="translate(83.9 39.49)"><g transform="translate(56.585 6.812)"><path class="e" d="M3368.993,1200.088c-.241-2.7.058-5.168,3.21-7.4a4.275,4.275,0,0,1,.035,4.585A7.532,7.532,0,0,1,3368.993,1200.088Z" transform="translate(-3368.928 -1192.692)"/></g><path class="e" d="M2495.669,1099.77c-1.778-.783-5.789-1.025-7.734.515a2.774,2.774,0,0,0-1.024,1.588c.647-2.864-.028-5.535-.25-8.01q-.117.059-.236.114l-.029-1.453c-2.678-8.08-10.777-14.223-19.161-12.61-2.766.531-6.287,3.046-7.178,6.2h0a5.317,5.317,0,0,0-.02,2.9s0,0,0,0c.016.059.034.118.052.177l-.079-.04h0q-.613-.3-1.263-.557h0l-.081-.032c-.163-.064-.328-.125-.493-.184h0a21.553,21.553,0,0,0-8.114-1.166h0a19.79,19.79,0,0,0-2.6.291h0a16.083,16.083,0,0,0-3.013.84,17.756,17.756,0,0,0-7.3,5.559,30.2,30.2,0,0,0-5.436,11.35c-.872,3.414-.857,6.868-1.588,10.3-.04.182-.077.364-.113.547h51.373a6.847,6.847,0,0,1,.85,4.052c3.7-.211,7.569-1.349,10.07-4.052h8.119v-13.117A15.175,15.175,0,0,0,2495.669,1099.77Zm-9.191-3.057-.041-2.07A3.736,3.736,0,0,1,2486.479,1096.713Z" transform="translate(-2430.012 -1079.654)"/><g transform="translate(36.362 8.928)"><path class="f" d="M3034.121,1237.391c-.159,0,.021.286.139.181s.06-.3,0-.442a10.628,10.628,0,0,1,.417-9.332,8.091,8.091,0,0,1-.3,9.409Z" transform="translate(-3033.373 -1227.798)"/></g><g class="g" transform="translate(42.387 16.956)"><path class="f" d="M3134.35,1370.593c-.158,0,.021.286.139.181s.073-.3,0-.442c-1.94-3.453-1.153-6.512.417-9.332,1.927,2.758,3.211,5.741-.3,9.409Z" transform="translate(-3133.34 -1360.999)"/></g><g class="g" transform="translate(0 14.242)"><path class="f" d="M2453.876,1334.474a19.317,19.317,0,0,1,8.871,3.7h-32.735c.036-.183.073-.365.113-.546.731-3.433.716-6.888,1.588-10.3a30.2,30.2,0,0,1,5.436-11.35,19.455,19.455,0,0,0,1.026,2.494q1.482,3.121,3.222,6.111c2.061,3.538,5.6,6.425,9,8.589-.061-2.772,2.592-5.542,5.057-6.615a3.985,3.985,0,0,1,.826,4.23A11.516,11.516,0,0,1,2453.876,1334.474Z" transform="translate(-2430.012 -1315.979)"/></g><g class="g" transform="translate(44.039 32.364)"><path class="f" d="M3168.085,1620.754h-7.211a7.688,7.688,0,0,1,.357-4.064A7.585,7.585,0,0,1,3168.085,1620.754Z" transform="translate(-3160.751 -1616.678)"/></g><g class="g" transform="translate(53.624 19.499)"><path class="f" d="M3336.585,1407.031v13.117h-8.119c.125-.136.247-.276.365-.419,2.478-3.006,2.649-8.058-.4-10.484a10.36,10.36,0,0,1-4.817,1.93c-1.748.071-3.678-1.077-3.819-2.821a6.687,6.687,0,0,0,5.663-.432c-1.375-.416-1.9-2.246-1.364-3.582v0c1.946-1.539,5.956-1.3,7.734-.515A15.176,15.176,0,0,1,3336.585,1407.031Z" transform="translate(-3319.797 -1403.208)"/></g><g transform="translate(14.674 3.651)"><path class="e" d="M2678.331,1145.584l-.045-.017a8,8,0,0,1-4.781-5.3,4.8,4.8,0,0,1,5.394,5.559Z" transform="translate(-2673.505 -1140.227)"/></g><g transform="translate(27.218 2.737)"><path class="f" d="M2883.835,1133.329l-.651-1.164a11.311,11.311,0,0,1-1.482-3.555,3.835,3.835,0,0,1,1.06-3.546,8.039,8.039,0,0,1,1.288,7.974l-1.147-2.272Z" transform="translate(-2881.636 -1125.064)"/></g><g transform="translate(46.7 3.347)"><path class="f" d="M3205.775,1142.106l-.314-1.066a9.439,9.439,0,0,1-.55-3.163,3.2,3.2,0,0,1,1.516-2.687,6.7,6.7,0,0,1-.423,6.719l-.514-2.058Z" transform="translate(-3204.903 -1135.19)"/></g><g transform="translate(14.705 17.316)"><path class="f" d="M2680.484,1370.488a7.021,7.021,0,0,1-6.469-2.973,4.132,4.132,0,0,1,4.338.191,12.146,12.146,0,0,1,3.173,3.272Z" transform="translate(-2674.015 -1366.982)"/></g><g transform="translate(26.455 11.705)"><path class="h" d="M2870.435,1277.311a1.762,1.762,0,0,0,.857-3.021c-1.094-1.2-2.687.459-2.241,1.8C2869.358,1277.019,2869.906,1277.352,2870.435,1277.311Z" transform="translate(-2868.974 -1273.874)"/></g><g transform="translate(42.754 26.212)"><path class="h" d="M3140.9,1518.035a1.762,1.762,0,0,0,.857-3.021c-1.094-1.2-2.687.459-2.241,1.8C3139.822,1517.743,3140.369,1518.076,3140.9,1518.035Z" transform="translate(-3139.438 -1514.598)"/></g><g transform="translate(58.794 30.809)"><path class="i" d="M3407.036,1594.306a1.762,1.762,0,0,0,.857-3.021c-1.094-1.2-2.687.459-2.241,1.8C3405.959,1594.014,3406.507,1594.347,3407.036,1594.306Z" transform="translate(-3405.575 -1590.869)"/></g><g transform="translate(27.751 26.325)"><path class="h" d="M2891.31,1518.464c.55-.009,1-.906.332-1.72-.61-.738-1.372.167-1.093.963C2890.743,1518.255,2891.038,1518.469,2891.31,1518.464Z" transform="translate(-2890.49 -1516.471)"/></g><g transform="translate(44.65 2.784)"><path class="h" d="M3171.718,1127.838c.55-.009,1-.906.332-1.72-.61-.738-1.372.168-1.093.963C3171.151,1127.629,3171.446,1127.843,3171.718,1127.838Z" transform="translate(-3170.898 -1125.845)"/></g></g><g class="j" transform="translate(59.996 4.625)"><path class="e" d="M2041.416,526.176s-4.4.9-4.824-2.393-.151-2.632-2.264-5.773-.361-7.467,1.949-9.266.84-5.173,4.373-7.205c2.144-1.234,6.182.408,6.925,4.312.634,3.332,1.8,2.2,3.662,4.852s.149,6.457-2.074,8.4S2047.9,528.582,2041.416,526.176Z" transform="translate(-2033.379 -501.135)"/><g transform="translate(3.175 10.432)"><path class="f" d="M2086.055,677.355a3.339,3.339,0,0,0,4.572-1.827,4.428,4.428,0,0,0,4.916-1.29s.714,3.2,4.607,2.765c0,0-2.173,4.843-10.376,3.412A5.617,5.617,0,0,1,2086.055,677.355Z" transform="translate(-2086.055 -674.239)"/></g><g transform="translate(0 11.332)"><path class="f" d="M2049.957,695.011a8.256,8.256,0,0,1-.793.8c-2.224,1.941-1.262,9.482-7.746,7.076,0,0-4.4.9-4.823-2.393s-.151-2.632-2.264-5.772a6.282,6.282,0,0,1-.562-5.543,9.992,9.992,0,0,0,.949,3.322c1.493,2.882,4.832.866,7.219,5.159C2044.178,701.689,2046.491,694.214,2049.957,695.011Z" transform="translate(-2033.38 -689.175)"/></g><g transform="translate(3.859 11.835)"><path class="k" d="M2097.412,719.692a62.49,62.49,0,0,0,5.227-17.157c.1-.679.193-1.317.265-1.908q.088-.708.148-1.323c.063-.628.108-1.18.139-1.643a4.329,4.329,0,0,0,.834-.149c.143,1.561.192,3.262.175,5.011q0,.3-.009.6c-.016.89-.048,1.789-.093,2.685a142.715,142.715,0,0,1-1.615,14.772Z" transform="translate(-2097.412 -697.513)"/></g><g transform="translate(9.674 13.192)"><path class="k" d="M2194.868,724.285a7.935,7.935,0,0,1,1.456-.68,4.821,4.821,0,0,0,.511-.22h0a8.517,8.517,0,0,0,3.271-3.35h0a4.994,4.994,0,0,0,.549.043,9.93,9.93,0,0,1-1.234,2.18,9.823,9.823,0,0,1-2.525,2.383,7.463,7.463,0,0,0-2.122,2.328s0,0,0,0a11.867,11.867,0,0,0-.873,1.68Z" transform="translate(-2193.903 -720.036)"/></g><g transform="translate(7.058 12.345)"><path class="k" d="M2152.963,708.679c-.056-.031-.114-.065-.174-.1a7.462,7.462,0,0,1-1.856-1.563c-.164-.192-.309-.383-.437-.568a3.919,3.919,0,0,0,.353-.473l.116.1a6.343,6.343,0,0,0,1.973,1.177c.076.029.15.054.221.078Q2153.061,708.007,2152.963,708.679Z" transform="translate(-2150.495 -705.974)"/></g><g transform="translate(1.61 0)"><path class="f" d="M2070.266,502.09c-1.12-.6-2.729-.087-2.512,2.755.307,4.025-4.059,5.266-7.658,5.248a6.862,6.862,0,0,1,1.288-1.348c2.31-1.8.84-5.173,4.373-7.205A4.393,4.393,0,0,1,2070.266,502.09Z" transform="translate(-2060.096 -501.136)"/></g><g transform="translate(9.278 20.128)"><path class="l" d="M2188.076,841.7a6.1,6.1,0,0,1-.663-3.611,10.981,10.981,0,0,1,1.186-2.98C2188.486,837.394,2188.291,839.658,2188.076,841.7Z" transform="translate(-2187.33 -835.112)"/></g><g transform="translate(8.637 14.95)"><path class="l" d="M2176.7,753.65c.177-.9.325-1.753.449-2.549.1-.679.193-1.317.266-1.908,0,0,.316.081.675.189C2178.413,749.479,2177.694,751.442,2176.7,753.65Z" transform="translate(-2176.696 -749.193)"/></g></g><g class="j" transform="translate(0.118 18.915)"><path class="e" d="M1122.636,767.347c5.077-6.879,13.076-10.959,21.077-13.973a126.209,126.209,0,0,1,43.62-8.078,6.079,6.079,0,0,1,2.979.5,5.747,5.747,0,0,1,2.2,2.855c2.821,6.234,3.762,13.128,4.655,19.912.706,5.363,1.4,10.869.14,16.13s-4.894,10.3-10.136,11.639a22.452,22.452,0,0,1-6.112.406l-36.607-.915c-5.243-.131-12.1-1.483-17.162-.139-2.041.541-3.127,1.537-5.465,1.793a92.183,92.183,0,0,1-9.629.044c-6.03.014-72.323-.274-72.323-.3q-.025-.976-.039-1.951c0-.249-.006-.5-.008-.749-.037-3.747.051-7.5.259-11.238a164.41,164.41,0,0,1,4.563-30.591l.021-.082a32.087,32.087,0,0,1,3.682-5.265,40.047,40.047,0,0,1,3.6-3.643q.326-.293.655-.583.563-.5,1.137-.98,2.42-2.045,4.991-3.885c1.488.038,2.976.151,4.452.3a93.844,93.844,0,0,1,23.795,5.34q1.956.755,3.88,1.59.632.275,1.259.559.441.2.88.4l.157.074q2.544,1.181,5.017,2.51c.28.15.557.3.836.454l.333.184q1.236.686,2.451,1.408l.043.026.2.121.051.031q1.517.91,3,1.876.934.608,1.853,1.239.429.293.856.594,2.823,1.984,5.493,4.18C1116.526,761.8,1119.508,764.592,1122.636,767.347Z" transform="translate(-1039.819 -738.252)"/><g transform="translate(26.23 8.141)"><path class="f" d="M1475.12,879.954c-.111-.054-.079.209.04.173s.139-.191.141-.315a8.291,8.291,0,0,1,3.338-6.478,6.312,6.312,0,0,1-3.281,6.57Z" transform="translate(-1475.052 -873.335)"/></g><g class="g" transform="translate(28.068 15.88)"><path class="f" d="M1505.62,1008.362c-.111-.054-.079.209.04.173s.151-.192.141-.315c-.249-3.08,1.306-4.99,3.338-6.478.466,2.582.4,5.115-3.281,6.57Z" transform="translate(-1505.552 -1001.743)"/></g><g transform="translate(23.142 0.715)"><path class="f" d="M1423.969,756.329l-.081-1.037a8.823,8.823,0,0,1,.109-3,2.992,2.992,0,0,1,1.908-2.167,6.27,6.27,0,0,1-1.687,6.071l-.072-1.984Z" transform="translate(-1423.813 -750.122)"/></g><g transform="translate(36.405 7.629)"><path class="f" d="M1643.881,869.535l.125-.858a7.362,7.362,0,0,1,.641-2.42,2.5,2.5,0,0,1,1.95-1.41,5.226,5.226,0,0,1-2.49,4.623l.307-1.626Z" transform="translate(-1643.881 -864.847)"/></g><g transform="translate(10.64 6.949)"><path class="f" d="M1219.986,857.795a5.478,5.478,0,0,1-3.615-4.216,3.224,3.224,0,0,1,3.012,1.55,9.48,9.48,0,0,1,1.182,3.353Z" transform="translate(-1216.371 -853.55)"/></g><g transform="translate(27.106 22.452)"><path class="h" d="M1490.195,1113.313a1.375,1.375,0,0,0,1.593-1.862c-.383-1.21-2.054-.551-2.176.547C1489.526,1112.755,1489.806,1113.17,1490.195,1113.313Z" transform="translate(-1489.596 -1110.804)"/></g><g transform="translate(36.974 30.939)"><path class="i" d="M1653.927,1254.137a1.375,1.375,0,0,0,1.592-1.862c-.383-1.21-2.054-.551-2.176.547C1653.258,1253.579,1653.538,1253.994,1653.927,1254.137Z" transform="translate(-1653.328 -1251.627)"/></g><g transform="translate(16.753 17.421)"><path class="h" d="M1318.1,1028.814c.393.173,1.008-.314.8-1.111-.191-.722-1.027-.329-1.088.326C1317.769,1028.481,1317.909,1028.729,1318.1,1028.814Z" transform="translate(-1317.804 -1027.317)"/></g><g transform="translate(36.405 6.248)"><path class="h" d="M1644.18,843.42c.392.173,1.007-.314.8-1.111-.191-.722-1.027-.329-1.088.326C1643.846,843.087,1643.986,843.335,1644.18,843.42Z" transform="translate(-1643.88 -841.923)"/></g><g transform="translate(63.331 15.554)"><path class="f" d="M2090.755,1002.181c-.1-.074-.116.19.006.178s.174-.161.2-.282a8.29,8.29,0,0,1,4.5-5.731,6.313,6.313,0,0,1-4.462,5.833Z" transform="translate(-2090.675 -996.345)"/></g><g class="g" transform="translate(63.675 23.501)"><path class="f" d="M2096.468,1134.038c-.1-.074-.116.19.006.178s.184-.16.2-.283c.337-3.071,2.225-4.654,4.5-5.731-.03,2.624-.569,5.1-4.462,5.833Z" transform="translate(-2096.388 -1128.202)"/></g><g transform="translate(51.004 4.39)"><path class="e" d="M1887.163,816.654l-.02-.031a6.243,6.243,0,0,1-.629-5.53,3.741,3.741,0,0,1,.9,5.975Z" transform="translate(-1886.137 -811.093)"/></g><g transform="translate(61.944 7.397)"><path class="f" d="M2067.66,866.718l.116-1.034a8.853,8.853,0,0,1,.673-2.928,2.993,2.993,0,0,1,2.283-1.768,6.27,6.27,0,0,1-2.8,5.643l.3-1.962Z" transform="translate(-2067.66 -860.988)"/></g><g transform="translate(73.797 16.791)"><path class="f" d="M2264.334,1020.976l.284-.819a7.363,7.363,0,0,1,1.087-2.256,2.494,2.494,0,0,1,2.181-1.016,5.225,5.225,0,0,1-3.318,4.07l.609-1.539Z" transform="translate(-2264.334 -1016.868)"/></g><g transform="translate(45.616 16.042)"><path class="f" d="M1799.486,1009.261a5.478,5.478,0,0,1-2.754-4.823,3.223,3.223,0,0,1,2.665,2.091,9.483,9.483,0,0,1,.527,3.516Z" transform="translate(-1796.731 -1004.438)"/></g><g transform="translate(58.691 12.731)"><path class="h" d="M2014.109,951.835a1.375,1.375,0,0,0,1.915-1.528c-.148-1.26-1.913-.929-2.24.126C2013.557,951.161,2013.754,951.621,2014.109,951.835Z" transform="translate(-2013.687 -949.494)"/></g><g transform="translate(62.446 29.333)"><path class="h" d="M2076.406,1227.322a1.375,1.375,0,0,0,1.916-1.528c-.148-1.26-1.913-.929-2.24.126C2075.855,1226.648,2076.051,1227.108,2076.406,1227.322Z" transform="translate(-2075.985 -1224.981)"/></g><g transform="translate(70.534 39.53)"><path class="i" d="M2210.613,1396.521a1.375,1.375,0,0,0,1.916-1.528c-.148-1.26-1.913-.929-2.241.126C2210.062,1395.847,2210.258,1396.307,2210.613,1396.521Z" transform="translate(-2210.191 -1394.18)"/></g><g transform="translate(53.349 22.321)"><path class="h" d="M1925.24,1110.039c.353.243,1.049-.119.992-.941-.052-.745-.946-.517-1.13.115C1924.975,1109.648,1925.065,1109.918,1925.24,1110.039Z" transform="translate(-1925.042 -1108.631)"/></g><g transform="translate(74.756 15.059)"><path class="h" d="M2280.45,989.528c.353.244,1.049-.118.991-.941-.052-.745-.946-.517-1.13.115C2280.186,989.138,2280.276,989.407,2280.45,989.528Z" transform="translate(-2280.253 -988.121)"/></g></g><g transform="translate(15.161 48.703)"><g transform="translate(36.133 0.585)"><path class="e" d="M1890.019,1247.765c-1.068-1.71-1.659-3.385-.068-5.533a3.037,3.037,0,0,1,1.536,2.983A4.408,4.408,0,0,1,1890.019,1247.765Z" transform="translate(-1888.973 -1242.232)"/></g><path class="e" d="M1346.476,1249.874c-.936-5.216-5.014-8.891-11.286-9.367-1.569-.119-4.606.608-5.535,2.041a1.588,1.588,0,0,0-.232,1.262c-.466-2.011-1.844-3.6-2.822-5.17-.045.042-.091.085-.137.126l-.5-.942c-4.635-4.681-12.632-6.9-18.284-4-1.864.956-3.634,3.373-3.252,5.626a3.735,3.735,0,0,0,.939,1.894s0,0,0,0c.031.035.063.069.1.1l-.071-.008q-.553-.061-1.116-.086h0l-.071,0c-.141-.005-.282-.009-.424-.011a18.95,18.95,0,0,0-6.369,1.028,15.418,15.418,0,0,0-1.82.763,11.428,11.428,0,0,0-1.946,1.212,10.576,10.576,0,0,0-3.549,5.235,16.57,16.57,0,0,0-.545,6.868q.543,1.627,1.254,3.222.454,1.023.973,2.033h50.044l4.374-3.886A18.443,18.443,0,0,0,1346.476,1249.874Zm-19.071-9.336-.711-1.342A2.668,2.668,0,0,1,1327.405,1240.538Z" transform="translate(-1289.424 -1232.521)"/><g transform="translate(21.406 6.859)"><path class="f" d="M1647.4,1352.717c-.118.033.109.182.162.087s-.054-.207-.149-.287a7.338,7.338,0,0,1-2.765-6.18c2.329,1.375,3.558,4.026,2.877,6.2Z" transform="translate(-1644.613 -1346.337)"/></g><g class="g" transform="translate(28.663 10.71)"><path class="f" d="M1767.828,1416.615c-.118.033.109.182.162.087s-.046-.214-.149-.287a6.128,6.128,0,0,1-2.765-6.18c2.329,1.375,4.258,3.037,2.876,6.2Z" transform="translate(-1765.023 -1410.235)"/></g><g class="g" transform="translate(1.384 27.146)"><path class="f" d="M1312.394,1682.948a37.1,37.1,0,0,0,3.649,2.033h-2.677Q1312.848,1683.971,1312.394,1682.948Z" transform="translate(-1312.394 -1682.948)"/></g><g class="g" transform="translate(21.424 7.973)"><path class="f" d="M1680.261,1382.143l-4.374,3.886h-29.239c-.406-1.518-2.105-2.921-1.665-4.649a8.518,8.518,0,0,1,2.951-4.145,1.1,1.1,0,0,0,.244,1.307c.331.393.786.705,1.121,1.1,1.173,1.363.584,3.15-.056,4.617,1.04-2.384,4.116-.621,5.886.1,2.951,1.208,6.994,2.089,8.2-1.332-2.957-.528-5.468-3-5.628-5.531,3.042-1.1,7.317.736,8.354,3.6,2.795-1,5.385-2.71,6.223-5.217a5.538,5.538,0,0,0-3.745-6.751,6.957,6.957,0,0,1-2.917,2.321,3.361,3.361,0,0,1-3.745-1,5.269,5.269,0,0,0,4.034-1.531,2.264,2.264,0,0,1-2.186-2.037c.928-1.433,3.965-2.16,5.535-2.041,6.272.475,10.35,4.151,11.286,9.367A18.442,18.442,0,0,1,1680.261,1382.143Z" transform="translate(-1644.911 -1364.824)"/></g><g transform="translate(2.761 8.168)"><path class="e" d="M1340.549,1370.807h-.038a7.608,7.608,0,0,1-5.27-2.4,4.517,4.517,0,0,1,3.494.014,4.009,4.009,0,0,1,2.314,2.424Z" transform="translate(-1335.241 -1368.06)"/></g><g transform="translate(12.299 4.874)"><path class="f" d="M1497.243,1318.556l-.863-.616a9.794,9.794,0,0,1-2.264-1.992,2.375,2.375,0,0,1-.385-2.547,6.161,6.161,0,0,1,3.575,4.918l-1.594-1.229Z" transform="translate(-1493.503 -1313.401)"/></g><g transform="translate(26.948 0.89)"><path class="f" d="M1738.807,1251.941l-.583-.627a7.313,7.313,0,0,1-1.447-1.942,1.869,1.869,0,0,1,.233-2.087,4.591,4.591,0,0,1,1.9,4.476l-1.056-1.229Z" transform="translate(-1736.571 -1247.286)"/></g><g transform="translate(7.444 16.823)"><path class="f" d="M1418.689,1513.093a6.622,6.622,0,0,1-5.75-.514,3.428,3.428,0,0,1,3.262-.832,11.769,11.769,0,0,1,3.417,1.435Z" transform="translate(-1412.94 -1511.663)"/></g><g transform="translate(14.534 10.781)"><path class="h" d="M1532.354,1413.7c.761-.29.965-1.559-.363-2.16-1.2-.544-1.83.892-1.06,1.67A1.348,1.348,0,0,0,1532.354,1413.7Z" transform="translate(-1530.593 -1411.416)"/></g><g transform="translate(31.331 16.652)"><path class="h" d="M1811.068,1511.114c.761-.29.965-1.559-.363-2.16-1.2-.544-1.83.892-1.059,1.671A1.347,1.347,0,0,0,1811.068,1511.114Z" transform="translate(-1809.307 -1508.833)"/></g><g transform="translate(44.673 16.115)"><path class="i" d="M2032.447,1502.2c.761-.29.965-1.559-.363-2.16-1.2-.544-1.831.892-1.06,1.67A1.347,1.347,0,0,0,2032.447,1502.2Z" transform="translate(-2030.685 -1499.918)"/></g><g transform="translate(20.071 20.23)"><path class="h" d="M1623.513,1569.478c.4-.127.443-.812-.322-1.2-.693-.347-.957.412-.489.869C1623.025,1569.468,1623.313,1569.541,1623.513,1569.478Z" transform="translate(-1622.467 -1568.195)"/></g><g transform="translate(24.783 1.146)"><path class="h" d="M1701.7,1252.823c.4-.127.443-.812-.321-1.2-.693-.347-.957.412-.489.869C1701.208,1252.812,1701.5,1252.886,1701.7,1252.823Z" transform="translate(-1700.65 -1251.54)"/></g></g><g class="m" transform="translate(0.015 33.411)"><path class="d" d="M1196.117,987.977v41.214H1040.128q-.025-.976-.039-1.951h154.177V985.1q.171.249.339.5Q1195.389,986.773,1196.117,987.977Z" transform="translate(-1039.969 -984.72)"/><path d="M1194.37,1023.37H1038.149l0-.115c-.017-.662-.031-1.319-.039-1.953v-.12h154.179v-42.4l.215.314q.171.25.34.5c.526.786,1.035,1.587,1.514,2.38l.017.028Zm-155.992-.236h155.756V982.071c-.472-.782-.974-1.57-1.492-2.343l-.123-.183v41.873H1038.344C1038.352,1021.977,1038.364,1022.553,1038.378,1023.134Z" transform="translate(-1038.105 -978.782)"/></g><g transform="translate(81.009 0.118)"><path class="c" d="M2385.3,426.353v78.1h-3.254V426.4Q2383.668,426.356,2385.3,426.353Z" transform="translate(-2382.042 -426.353)"/></g><g class="n" transform="translate(93.595 0.487)"><path class="d" d="M2649.642,509.8h-20.175l-.947-1.9-37.64-75.444a88.98,88.98,0,0,1,15.073,2.5c2.509.653,5.024,1.439,7.523,2.351h0l19.768,39.623h0l6.633,13.3s0,0,0,0l1.225,2.454,2.974,5.961,4.617,9.254Z" transform="translate(-2590.881 -432.462)"/></g><g class="n" transform="translate(27.201 6.498)"><path class="d" d="M1541.349,603.541h-20.175l-.947-1.9L1489.2,539.461a97.556,97.556,0,0,1,16.559-7.25l34.64,69.433Z" transform="translate(-1489.204 -532.211)"/></g><g transform="translate(0.126 33.792)"><path class="c" d="M1197.065,989.837q-.177-.32-.359-.638-.352-.615-.718-1.222-.728-1.205-1.512-2.376-.168-.251-.339-.5v42.138H1039.953q.012.977.047,1.951.019.536.044,1.071h154.094a2.99,2.99,0,0,0,.7-.082,3.026,3.026,0,0,0,2.269-2.366,3.1,3.1,0,0,0,.055-.574V989.506C1197.13,989.616,1197.1,989.727,1197.065,989.837Z" transform="translate(-1039.953 -985.101)"/></g><g class="o"><path class="d" d="M1194.013,460.021V502.16H1039.836c0-.249-.006-.5-.008-.749-.037-3.747.051-7.5.259-11.238a164.381,164.381,0,0,1,4.563-30.589h0l.021-.081h0a32.086,32.086,0,0,1,3.682-5.265,40.047,40.047,0,0,1,3.6-3.643q.326-.293.655-.583.563-.5,1.137-.98,2.42-2.046,4.991-3.885,1.193-.857,2.417-1.668,2.8-1.863,5.748-3.5a97.547,97.547,0,0,1,16.558-7.25,113.652,113.652,0,0,1,15.076-3.893,142.6,142.6,0,0,1,22.174-2.438q1.627-.045,3.255-.049c3.122,0,6.241.113,9.331.369a88.958,88.958,0,0,1,15.073,2.5c2.509.653,5.025,1.439,7.523,2.351h0a86.664,86.664,0,0,1,19.071,9.788,79.752,79.752,0,0,1,8,6.229q2.1,1.863,4.04,3.872A65.935,65.935,0,0,1,1194.013,460.021Z" transform="translate(-1039.701 -426.229)"/><path d="M1192.292,500.438H1037.881v-.116c0-.229-.005-.458-.008-.688v-.062c-.036-3.723.051-7.506.259-11.246a164,164,0,0,1,4.563-30.6h0l.021-.082v-.016l.015-.028a32,32,0,0,1,3.695-5.284,40.177,40.177,0,0,1,3.613-3.654c.223-.2.444-.4.656-.584.358-.315.741-.645,1.138-.981,1.595-1.348,3.276-2.657,5-3.891.785-.564,1.6-1.126,2.421-1.67,1.84-1.223,3.777-2.4,5.756-3.5a97.884,97.884,0,0,1,16.579-7.259,114.071,114.071,0,0,1,15.091-3.9,142.406,142.406,0,0,1,22.193-2.44c1.1-.031,2.2-.047,3.257-.049,3.2,0,6.339.12,9.341.369a89.287,89.287,0,0,1,15.093,2.5c2.5.651,5.031,1.441,7.515,2.348l.02.007a86.345,86.345,0,0,1,19.1,9.8,79.964,79.964,0,0,1,8.007,6.238c1.406,1.249,2.768,2.554,4.047,3.878a66.287,66.287,0,0,1,7.026,8.579l.02.03Zm-154.179-.236h153.943V458.218a66.047,66.047,0,0,0-6.98-8.518c-1.275-1.32-2.633-2.621-4.034-3.866a79.785,79.785,0,0,0-7.983-6.22,86.126,86.126,0,0,0-19.025-9.768l-.02-.007c-2.482-.907-5.01-1.7-7.512-2.348a89.061,89.061,0,0,0-15.053-2.5c-2.951-.244-6.038-.368-9.177-.368h-.144c-1.055,0-2.149.018-3.251.049a142.163,142.163,0,0,0-22.155,2.436A113.818,113.818,0,0,0,1081.66,431a97.648,97.648,0,0,0-16.539,7.241c-1.974,1.1-3.9,2.275-5.74,3.5-.818.543-1.63,1.1-2.414,1.665-1.717,1.23-3.394,2.535-4.984,3.879-.4.336-.778.665-1.135.978-.212.187-.432.382-.654.582a39.978,39.978,0,0,0-3.592,3.632,31.783,31.783,0,0,0-3.66,5.232l-.017.068a163.724,163.724,0,0,0-4.56,30.567c-.208,3.734-.3,7.513-.259,11.23v.062C1038.11,499.822,1038.111,500.012,1038.114,500.2Z" transform="translate(-1037.863 -424.389)"/></g><g transform="translate(0.344 17.248)"><g transform="translate(0 10.759)"><path class="p" d="M1052.674,941.887a16.236,16.236,0,0,1-6.053,1.509c-1.586.153-2.8.159-2.8.159a20,20,0,0,1-.208-3.483c0-.009,0-.018,0-.027,0-.3-.01-.624-.014-.963,0-.035,0-.071,0-.108-.008-.6-.014-1.251-.018-1.951-.02-3.141-.006-7.253.032-11.987.05-6.131.139-13.306.251-20.768.719-2.109,1.526-4.147,2.412-6.093.624-1.372,1.248-2.619,1.9-3.78l.018-.031h0a32.059,32.059,0,0,1,3.682-5.265c.109,14.027.337,28.531.52,38.778.068,3.666.127,6.787.174,9.146,0,.036,0,.072,0,.108.013.682.026,1.3.038,1.843,0,.019,0,.037,0,.055s0,.036,0,.053c.008.353.013.674.02.963,0,.036,0,.073,0,.108C1052.661,941.277,1052.674,941.887,1052.674,941.887Z" transform="translate(-1043.573 -889.099)"/></g><g transform="translate(11.925)"><path class="p" d="M1250.635,710.578c-.2,9.228-.452,18.884-.7,27.824-.362,12.932-.727,24.369-.939,30.859,0,.036,0,.072,0,.108-.022.67-.042,1.286-.06,1.843,0,.018,0,.037,0,.055s0,.036,0,.053c-.011.344-.023.666-.033.963,0,.036,0,.073,0,.108-.055,1.623-.085,2.514-.085,2.514a2.672,2.672,0,0,1-.815.35,30.944,30.944,0,0,1-6.355.538c-.071-.465-.12-1.643-.15-3.4,0-.035,0-.072,0-.108,0-.3-.01-.625-.014-.963v-.053c0-.018,0-.037,0-.055q-.009-.855-.014-1.843v-.108c-.017-3.825.013-9.055.076-15.106.112-10.832.328-24.294.557-37.044q.563-.5,1.136-.98A80.182,80.182,0,0,1,1250.635,710.578Z" transform="translate(-1241.452 -710.578)"/></g></g><g transform="translate(0.344 33.303)"><path class="c" d="M1048.18,976.987c0,.017,0,.033,0,.05-.264,5.808-.477,11.606-1.057,17.395a177.735,177.735,0,0,0-1.194,18.826c.007,1.11-.064,3.608.034,6.357.023.642.055,1.3.1,1.951.025.358.052.716.085,1.071a29.31,29.31,0,0,0,.477,3.351c-1.586.152-2.8.159-2.8.159a20,20,0,0,1-.208-3.483c0-.009,0-.018,0-.027,0-.3-.01-.625-.014-.963,0-.036,0-.071,0-.108-.008-.6-.014-1.251-.018-1.951-.02-3.141-.006-7.253.032-11.987.05-6.131.139-13.306.251-20.768.719-2.109,1.526-4.147,2.412-6.093C1046.9,979.394,1047.525,978.147,1048.18,976.987Z" transform="translate(-1043.573 -976.987)"/></g><g transform="translate(12.27 22.8)"><path class="c" d="M1247.991,861.834a30.964,30.964,0,0,1-6.355.538c-.071-.465-.12-1.643-.15-3.4,0-.035,0-.072,0-.108,0-.3-.01-.625-.014-.963v-.053c0-.018,0-.037,0-.055q-.009-.855-.014-1.843v-.108c-.017-3.825.013-9.055.076-15.106.112-10.832.328-24.294.557-37.044q.563-.5,1.136-.98c.053,10.083.066,20.191.2,30.227a106.7,106.7,0,0,0,1.114,16.867,53.114,53.114,0,0,0,1.415,6.037q.29.981.62,1.951.181.537.375,1.071.153.425.315.847A18.681,18.681,0,0,1,1247.991,861.834Z" transform="translate(-1241.452 -802.709)"/></g></g><g transform="translate(116.252 62.231)"><g transform="translate(17.485 0.273)"><path class="c" d="M3111.455,1419.578V1447.5a3.821,3.821,0,0,0,3.72,3.915h16.269a4.015,4.015,0,0,0,3.908-4.114v-27.72a8.386,8.386,0,0,0-8.163-8.593h-7.571A8.387,8.387,0,0,0,3111.455,1419.578Z" transform="translate(-3111.455 -1410.985)"/></g><g transform="translate(17.525 40.767)"><path class="p" d="M3115.035,2082.9v10.5q-1.444.578-2.911,1.105v-11.6Z" transform="translate(-3112.124 -2082.896)"/></g><g transform="translate(17.525 40.767)"><path class="c" d="M3112.128,2082.9v6.1c.913-.234,1.913-.464,2.911-.685V2082.9Z" transform="translate(-3112.128 -2082.901)"/></g><g transform="translate(17.485)"><path class="p" d="M3132.1,1415.042v27.72a4.015,4.015,0,0,1-3.908,4.114h-13.019a3.82,3.82,0,0,1-3.719-3.915v-27.919a8.986,8.986,0,0,1,.47-2.88,8.2,8.2,0,0,1,7.693-5.713h4.32A8.386,8.386,0,0,1,3132.1,1415.042Z" transform="translate(-3111.456 -1406.449)"/></g><g transform="translate(0 39.649)"><path class="c" d="M2859.345,2065.251v.844q-2.138,1.667-4.428,3.147h-32.729a.857.857,0,0,1-.857-.857,4.032,4.032,0,0,1,4.063-4.032l1.247.009,2.879.02c2.9.019,6.3.04,9.748.056l.825,0,.337,0c2.733.011,5.464.019,7.966.022,4.029,0,7.465-.01,9.365-.053.263-.006.5-.012.7-.019A.858.858,0,0,1,2859.345,2065.251Z" transform="translate(-2821.331 -2064.353)"/></g></g><g transform="translate(85.043 85.251)"><g transform="translate(71.809 3.206)"><path class="q" d="M3505.787,1841.615q-.1.185-.211.37-.337.582-.7,1.153-.4.632-.811,1.25h-4.932l-.841,7.135q-1.578,1.631-3.279,3.12l.019-.229.761-9.066.282-3.364.032-.37Z" transform="translate(-3495.017 -1841.615)"/></g><g transform="translate(0.607 3.206)"><path class="q" d="M2353.489,1870.321q-1.148.309-2.3.593L2350,1859.928l-.528-4.881-1.152-10.66h-28.942l-3.6,30.48q-1.111,0-2.222-.024l2.759-32.859.031-.37h35l.027.37.977,13.082.364,4.861Z" transform="translate(-2313.559 -1841.615)"/></g><g transform="translate(15.757 0)"><path class="q" d="M2633.369,1788.422q-.726,1.633-1.61,3.206l-.211.37h-65.139a1.3,1.3,0,0,1-.893-.37,1.938,1.938,0,0,1-.579-1.418,1.989,1.989,0,0,1,.433-1.262,1.35,1.35,0,0,1,1.039-.526Z" transform="translate(-2564.937 -1788.422)"/></g><path class="p" d="M2304.953,1788.418H2343.8a1.658,1.658,0,0,1,1.472,1.788h0a1.658,1.658,0,0,1-1.472,1.788h-38.846a1.658,1.658,0,0,1-1.472-1.788h0A1.658,1.658,0,0,1,2304.953,1788.418Z" transform="translate(-2303.481 -1788.418)"/></g><g transform="translate(71.354 21.866)"><g transform="translate(17.686 109.423)"><g transform="translate(0.029 0.03)"><path class="r" d="M2389.283,2560.706c-5.031.373-18.292-.556-18.292-.556s-.659-.09-.715-.682a1.185,1.185,0,0,1,.075-.507c.365-1.051,2.561-1.006,4.573-2.042s7.271-3.9,7.5-4.084c0,0,4.939.412,5.853,1.188a1.4,1.4,0,0,1,.335.59A29.078,29.078,0,0,1,2389.283,2560.706Z" transform="translate(-2370.272 -2552.833)"/></g><path class="r" d="M2385.736,2560.349c-5.935,0-15.1-.636-15.205-.644-.009,0-.686-.1-.743-.709a1.234,1.234,0,0,1,.077-.519c.22-.632,1.072-.873,2.15-1.177a12.788,12.788,0,0,0,2.437-.882c2.011-1.036,7.263-3.9,7.5-4.082l.009-.008h.012c.2.017,4.958.422,5.87,1.2a1.431,1.431,0,0,1,.344.6,29.239,29.239,0,0,1,.672,6.1v.027l-.028,0C2387.992,2560.323,2386.929,2560.349,2385.736,2560.349Zm-3.763-7.959c-.341.244-5.506,3.056-7.495,4.081a12.8,12.8,0,0,1-2.448.886c-1.062.3-1.9.537-2.11,1.14a1.163,1.163,0,0,0-.074.494c.053.562.664.653.69.656.131.009,13.266.921,18.257.558a28.6,28.6,0,0,0-.669-6.057,1.382,1.382,0,0,0-.326-.577C2386.923,2552.826,2382.235,2552.413,2381.973,2552.39Z" transform="translate(-2369.783 -2552.329)"/></g><g class="s" transform="translate(17.719 111.232)"><path class="t" d="M2389.349,2588.436c-5.03.373-18.291-.556-18.291-.556s-.659-.09-.715-.682a50.824,50.824,0,0,0,11.584-1.357c2.508-.592,5.182-1.545,6.752-3.5A29.058,29.058,0,0,1,2389.349,2588.436Z" transform="translate(-2370.343 -2582.342)"/></g><g transform="translate(33.646 109.527)"><g transform="translate(0.029 0.03)"><path class="r" d="M2654.119,2562.437l-.1.007c-4.371.3-14.6-.326-17.446-.514l-.618-.041-.128-.009a.786.786,0,0,1-.677-1.066c.01-.04.022-.08.037-.123v0a1.027,1.027,0,0,1,.376-.48c.793-.588,2.555-.713,4.2-1.558,2.012-1.037,7.27-3.9,7.5-4.086,0,0,.742.062,1.7.183,1.52.191,3.589.53,4.149,1.007C2654.027,2556.531,2654.119,2562.437,2654.119,2562.437Z" transform="translate(-2635.108 -2554.564)"/></g><path class="r" d="M2650.538,2562.082c-4.918,0-12-.435-14.426-.594l-.618-.041-.128-.009a.922.922,0,0,1-.687-.482.943.943,0,0,1-.018-.622c.01-.039.022-.08.038-.124a1.046,1.046,0,0,1,.388-.5,5.858,5.858,0,0,1,1.764-.68,12.77,12.77,0,0,0,2.436-.881c2.01-1.036,7.263-3.9,7.494-4.082l.009-.007h.012c.007,0,.753.063,1.7.183,1.591.2,3.605.538,4.165,1.013.914.777,1.012,6.464,1.016,6.706v.027l-.127.01C2652.733,2562.058,2651.7,2562.082,2650.538,2562.082Zm-15.166-.7.127.009.617.041c2.994.2,13.1.815,17.441.513l.072,0c-.008-.442-.133-5.9-.995-6.634-.548-.466-2.55-.8-4.134-1-.887-.111-1.595-.174-1.691-.181-.341.243-5.506,3.056-7.5,4.081a12.8,12.8,0,0,1-2.446.885,5.826,5.826,0,0,0-1.745.671.989.989,0,0,0-.364.461v0l0,.01q-.021.059-.035.117a.757.757,0,0,0,.652,1.03Z" transform="translate(-2634.619 -2554.061)"/></g><g transform="translate(1.468 43.7)"><path class="u" d="M2109.763,1465.122l-.333.109-.483.158s-.374.321-.966.754a15.529,15.529,0,0,1-3.135,1.819.653.653,0,0,0-.178-.026c-.461.244-1.194-.6-1.194-.6a4.7,4.7,0,0,1-2.092-3.17c-.142-.077-.341-.194-.693-.375,0-.006,0-.013,0-.019.022-.105.041-.188.054-.242l.019-.078.708-.11c1.161-.183,3.526-.562,5.388-.912l.216-.041c.233-.044.456-.088.667-.13l.053-.011.155-.032a7.657,7.657,0,0,0,1.491-.4C2110.126,1461.414,2109.763,1465.122,2109.763,1465.122Z" transform="translate(-2100.689 -1461.791)"/></g><g transform="translate(26.924 41.558)"><path class="v" d="M2548.545,1495.68a5.625,5.625,0,0,1-2.369,0c-1.586-.252-3.6-2.125-4.756-1.394a1.792,1.792,0,0,1-2.561-.365c-.183-.548.183-4.573,0-6.463-.147-1.526-3.04-7.185-4.148-9.309-.265-.507-.427-.812-.427-.812a27.833,27.833,0,0,1-.975,6.584c-.425,1.212-.427,4.05-.364,6.635a33.349,33.349,0,0,1,.02,5.124,3.7,3.7,0,0,1-3.414,1.479c-2.3-.175-4.764-3.787-4.764-3.787.744-3.658-1.537-25.242-1.367-28.849s-.657-22.183-.2-25.368a54.849,54.849,0,0,0,.355-5.712c.03-1.253.039-2.426.04-3.278,0-.833,0-1.36,0-1.36l13.779-2.561s.727,2.011,1.613,4.539c.422,1.206.881,2.53,1.314,3.808a10.744,10.744,0,0,1,.484,2.438c.351,3.8-.665,8.495-.923,10.677-.317,2.682.377,9.267.927,12.194a12.434,12.434,0,0,1,.407,3.012,6.086,6.086,0,0,0,.238,2.622c.309.759.862,1.222,1.12,2.017.438,1.354.689,2.8,1.04,4.178,0,0-3.537-11.035.731,2.439S2548.545,1495.68,2548.545,1495.68Z" transform="translate(-2523.083 -1426.244)"/></g><g class="w" transform="translate(27.421 45.02)"><path class="t" d="M2548.553,1491.014a5.389,5.389,0,0,0-3.112,2.9,1.7,1.7,0,0,1-.7.827,1.364,1.364,0,0,1-.592.085,12.562,12.562,0,0,1-4.57-1.278c-1.638-.9-2.245-2.416-3.376-3.769-.982-1.176-2.789-1.485-4.247-2.069-.208-.083-.42-.176-.628-.28.029-1.253.038-2.425.04-3.278,3.771-.779,7.8-.42,11.673.01a25.778,25.778,0,0,1,3.716.608c.423,1.206.881,2.529,1.314,3.808A10.726,10.726,0,0,1,2548.553,1491.014Z" transform="translate(-2531.325 -1483.691)"/></g><g transform="translate(29.96 1.333)"><path class="x" d="M2575.531,763.407c-.9-.035-1.676-1.046-1.92-1.795a3.191,3.191,0,0,1,.379-2.728c.184-.274.484.117.765.291a3.854,3.854,0,0,1,1.73,2.535,1.675,1.675,0,0,1,.013.668,2.541,2.541,0,0,1-.242.769.692.692,0,0,1-.376.222A1.214,1.214,0,0,1,2575.531,763.407Z" transform="translate(-2573.46 -758.789)"/></g><g transform="translate(28.63 2.293)"><path class="u" d="M2563.99,790.995l-4.877,3.354s-8.322,2.165-5.268-1.1a11.018,11.018,0,0,0,.787-.939,8.707,8.707,0,0,0,1.514-3.116,7.057,7.057,0,0,0,.181-1.071,4.761,4.761,0,0,0-.02-1.215l-.183.009c-1.542.083-2.581.276-3.138-.839a6.339,6.339,0,0,1-.2-3.125h0c.026-.261.048-.421.048-.421a1.192,1.192,0,0,1-1.4-.505.775.775,0,0,1,.125-.739,8.607,8.607,0,0,0,1.523-2.5c.241-.891.474-1.909.644-2.707.153-.714.256-1.253.271-1.368l4.211.533,1.093.138.224.458,1.143,2.342,2.779,5.691c0,.009,0,.018,0,.027a13.146,13.146,0,0,0,.125,5.729A9.448,9.448,0,0,0,2563.99,790.995Z" transform="translate(-2551.383 -774.716)"/></g><g class="y" transform="translate(33.372 12.668)"><path class="z" d="M2633.217,946.866a7.442,7.442,0,0,1-2.942,3.034,4.818,4.818,0,0,0-.02-1.215l-.184.009.148-.158A12.752,12.752,0,0,0,2633.217,946.866Z" transform="translate(-2630.072 -946.866)"/></g><g class="y" transform="translate(34.246 11.395)"><path class="z" d="M2651.139,931.57a9.151,9.151,0,0,1-6.563.856c1.012-.414,2.026-.829,3.009-1.312.722-.355,2.094-.842,2.43-1.623.284-.66-.1-1.19-.493-1.684a3.26,3.26,0,0,1-.49-.8,2.242,2.242,0,0,1-.141-1.1l1.725-.149c.133.025.265.054.4.086A13.154,13.154,0,0,0,2651.139,931.57Z" transform="translate(-2644.576 -925.755)"/></g><g transform="translate(34.666 0.363)"><path class="aa" d="M2651.7,742.731a1.659,1.659,0,0,1-.169-.021A.156.156,0,0,1,2651.7,742.731Z" transform="translate(-2651.534 -742.693)"/></g><g class="y" transform="translate(30.969 2.293)"><path class="z" d="M2597.13,778.187c-.07.64-.053,1.229-.611,1.584a2.212,2.212,0,0,0-.877,1.085,5.329,5.329,0,0,0-.209,1.61.078.078,0,0,1-.025.064c-.024.014-.054,0-.077-.019-1.635-1.173-.515-3.2-.777-4.823a.47.47,0,0,0-.207-.377c-.4-.184-.853.268-1.281.18a7.684,7.684,0,0,1-1.754-.658,4.689,4.689,0,0,1-1.124-.75c.153-.714.255-1.253.271-1.368l4.211.533a10.579,10.579,0,0,1,1.317.6Z" transform="translate(-2590.188 -774.716)"/></g><g transform="translate(30.711)"><path class="aa" d="M2598,746.089c-.239,1.245-.788,2.855-.464,4.109a3.061,3.061,0,0,1-.552-.045h0a1.411,1.411,0,0,1-1.28-.949.388.388,0,0,0,.21.487.565.565,0,0,1-.134.114,1.1,1.1,0,0,1-1.034-.094,1.809,1.809,0,0,1-.4-.28,2.469,2.469,0,0,1-.737-1.941c.017-.567.137-1.712-.427-2.095-.508-.343-.99.2-1.25.6-.2.314-.345.87-.714.7-.231-.109-.366-.588-.484-.8a1.415,1.415,0,0,1-.173-1.078,11.04,11.04,0,0,0,.482-2.713,2.406,2.406,0,0,0-.442-1.17.489.489,0,0,0-.3-.23.59.59,0,0,0-.319.09,2.989,2.989,0,0,1-3.081-.422,2.683,2.683,0,0,1-.362-.357,2.409,2.409,0,0,1-.29-2.821,2.072,2.072,0,0,1,.124-.17.087.087,0,0,1,.047-.035c.035-.005.06.031.078.061a2.156,2.156,0,0,0,1.821.794,2.746,2.746,0,0,0,.28-.015h0a9.729,9.729,0,0,1,1.621-.211c.272.018,1.085-.2,1.324-.091a1.459,1.459,0,0,0-.722-.086.759.759,0,0,1-.568-.156,1.937,1.937,0,0,0-.214-.209c.8.062,1.566-.4,2.393-.4a3.3,3.3,0,0,1,2.336.908.711.711,0,0,0,.234.174l.042.012a.544.544,0,0,0,.164,0l.234-.021a2.094,2.094,0,0,1,1.417.288,4.493,4.493,0,0,1,1.645,3.713A19.925,19.925,0,0,1,2598,746.089Z" transform="translate(-2585.912 -736.672)"/></g><g transform="translate(0 43.92)"><path class="u" d="M2085.138,1465.486l-.135.115-.1.083-.013.011-.624.531-.456.389c-.652.556-1.426,1.218-2.036,1.745-.486.421-.867.755-1,.882.11-.282-.635-1.384-1.43-1.447a1.512,1.512,0,0,1-.817-.192c-.142-.077-.34-.194-.693-.375l-.037-.019c-.133-.067-.285-.145-.465-.231l-.041-.021a2.24,2.24,0,0,1-.814-.6.989.989,0,0,1-.06-.089c-.271-.46.12-.785.337-.69a1.526,1.526,0,0,0,.408.031h.139c.418-.005,1.03-.034,1.7-.067a29.763,29.763,0,0,1,3.577-.058,10.91,10.91,0,0,0,1.418.094h.22a6.776,6.776,0,0,0,.713-.042A.663.663,0,0,0,2085.138,1465.486Z" transform="translate(-2076.326 -1465.445)"/></g><g transform="translate(32.24 48.996)"><path class="u" d="M2620.365,1552.833c-.494.579-.97,3.354-1.244,3.841-.018.033-.044.075-.076.127a6.13,6.13,0,0,1-4.974-1.738,4.96,4.96,0,0,1-.344-.373,6.416,6.416,0,0,0,.639-1.858,3.308,3.308,0,0,1-2.816-.315,1.8,1.8,0,0,1-.16-.135.345.345,0,0,1,.121-.575l1.658-.592a2.131,2.131,0,0,1,.574-.119,23.18,23.18,0,0,0,2.612-.27l.022-.006c.488-.152,1.1-.945,1.28-1.158C2617.657,1549.663,2620.858,1552.254,2620.365,1552.833Z" transform="translate(-2611.281 -1549.663)"/></g><g class="y" transform="translate(32.508 48.996)"><path class="z" d="M2624.548,1552.833c-.494.579-.97,3.354-1.244,3.841-.019.033-.044.075-.076.127a6.131,6.131,0,0,1-4.975-1.738,5,5,0,0,1-.343-.373,6.4,6.4,0,0,0,.639-1.858,3.308,3.308,0,0,1-2.816-.315,7.57,7.57,0,0,0,3.159-.155,3.279,3.279,0,0,0,.421,2.249,3.422,3.422,0,0,0,2.472.692c1.342-.385-.173-1.412-.466-1.946a3.23,3.23,0,0,1-.2-.889,17.055,17.055,0,0,0-.583-1.641l.022-.006c.488-.152,1.1-.945,1.28-1.158C2621.841,1549.663,2625.042,1552.254,2624.548,1552.833Z" transform="translate(-2615.733 -1549.663)"/></g><g transform="translate(7.845 16.948)"><path class="ab" d="M2244.741,1048.39c-.75.94-1.425,1.785-1.921,2.451-2.378,3.194-1.768,3.512-3.292,2.933a7,7,0,0,1-2.553-2.23,3.79,3.79,0,0,1-.618-.99,11.4,11.4,0,0,1,.868-1.706c.192-.339.342-.6.351-.611-1.22.74-7.194-.284-8.169-.772s0,0-1.158.091-3.109-.457-2.743-1.158a2.354,2.354,0,0,0,.175-.511,13.59,13.59,0,0,0,.251-2.214,1.966,1.966,0,0,1-.544.592c-1.315,1.028-4.446,2.126-6.894,2.865-1.346.406-3.7,1.026-5.9,1.5-2.576.553-4.925.9-5.139.455-.013-.027-.027-.057-.041-.09a15.031,15.031,0,0,1-.915-4c-.008-.4.055-.681.224-.727a35.059,35.059,0,0,0,6.4-1.829,17.624,17.624,0,0,0,6.707-4.207c1.042-.971,4.2-5.88,5.6-8.107.239-.38.427-.682.544-.873.081-.13.127-.209.136-.226.091-.183.854-4.314.854-4.314.185-.764.932-3.126,1.918-3.974a.954.954,0,0,1,1.463.072c1.132-.609,1.945-1.654,3.265-1.857a5.506,5.506,0,0,0,1.03-.191c.3-.107.564-.29.863-.391a3.431,3.431,0,0,1,.92-.135c1.333-.073,2.324.131,3.657.059a.465.465,0,0,1,.319-.405,7.639,7.639,0,0,1,2.039,2.017,10.769,10.769,0,0,1,.594.945,22.5,22.5,0,0,1,1.542,3.688c1.637,4.745,4.821,8.919,6.413,13.692C2251.545,1039.891,2247.593,1044.822,2244.741,1048.39Z" transform="translate(-2206.5 -1017.884)"/></g><g class="ac" transform="translate(13.94 28.309)"><path class="i" d="M2321.018,1206.409q-.006,2.06-.011,4.121a16.942,16.942,0,0,1-.07,1.827c-.076.69-.237,1.369-.278,2.062a19.527,19.527,0,0,0,.13,2.48,15.522,15.522,0,0,1-.361,4.528c-1.314,1.028-4.447,2.126-6.894,2.865-1.346.406-3.7,1.026-5.9,1.5a6.587,6.587,0,0,1,1.563-.934,11.7,11.7,0,0,0,4.285-2.125,12.458,12.458,0,0,0,1.384-1.738,30.61,30.61,0,0,0,3.7-6.36,20.785,20.785,0,0,0,1.882-6.927c.007-.138.013-.28.021-.422C2320.712,1206.9,2320.9,1206.6,2321.018,1206.409Z" transform="translate(-2307.635 -1206.409)"/></g><g transform="translate(26.914 19.309)"><g transform="translate(0 8.774)"><path class="ad" d="M2523.478,1202.652c.05.623.067,1.244.081,1.865l.008.465,0,.465c0,.31,0,.62-.01.931s-.027.62-.042.931l-.046.934c-.031.622-.069,1.244-.127,1.866l-.023.233-.019.23-.02.229c0,.077-.008.154-.011.23l-.013.23-.005.23-.006.23v.231c0,.615.036,1.232.061,1.852.01.31.02.621.022.933,0,.156,0,.312,0,.468s-.008.313-.011.469a9.574,9.574,0,0,1-.233,1.861l-.033-.005c.033-.622.03-1.238,0-1.855q-.022-.463-.05-.926t-.056-.929c-.03-.621-.045-1.246-.02-1.873l.009-.235c0-.078.01-.157.017-.235l.018-.235c.009-.078.019-.156.028-.234s.02-.156.031-.234l.042-.233.042-.231.045-.228a10.3,10.3,0,0,0,.2-1.844c0-.155,0-.31,0-.465s-.014-.309-.025-.464c-.021-.311-.04-.621-.052-.932s-.015-.622-.007-.933l.009-.466.017-.466c.028-.621.067-1.242.146-1.862Z" transform="translate(-2522.917 -1202.652)"/></g><g transform="translate(2.233)"><path class="ad" d="M2563.485,1057.1q-.077.078-.156.153c-.026.025-.052.049-.078.075l-.073.08c-.049.053-.1.1-.147.158s-.092.11-.137.165a5.126,5.126,0,0,0-.478.7c-.038.06-.068.124-.1.187s-.066.125-.094.19l-.087.193-.078.2c-.1.265-.19.534-.267.809s-.152.553-.209.836c-.032.141-.053.284-.078.427s-.044.289-.068.433l-.272,1.729c-.046.288-.093.576-.146.862s-.112.571-.168.855-.109.569-.162.853l-.148.854-.151.856q-.038.213-.072.427c-.024.143-.047.285-.068.428a17.131,17.131,0,0,0-.179,1.727h-.033a8.512,8.512,0,0,1-.05-1.756c.01-.146.02-.293.034-.438s.031-.291.047-.436c.034-.291.076-.579.12-.867.087-.578.217-1.151.354-1.717q.1-.425.214-.847l.229-.841a11.86,11.86,0,0,0,.345-1.7c.017-.144.027-.289.039-.433s.018-.292.032-.438.029-.293.047-.439c.008-.074.023-.146.034-.219s.024-.146.041-.218a4.74,4.74,0,0,1,.261-.852,4.462,4.462,0,0,1,.415-.793c.042-.062.082-.124.126-.185l.14-.175c.045-.059.1-.114.147-.168s.1-.111.156-.16.108-.1.163-.151.116-.092.174-.138l.088-.067c.03-.021.062-.041.092-.061l.186-.118Z" transform="translate(-2559.962 -1057.072)"/></g><g transform="translate(11.993 11.266)"><path class="ad" d="M2722.793,1244.013c.44.656.875,1.318,1.294,1.987l.314.5.308.506c.207.337.4.679.6,1.024.384.691.74,1.4,1.125,2.089l.144.26a2.242,2.242,0,0,1,.129.276,1.3,1.3,0,0,1,.067.609,1.536,1.536,0,0,1-.071.3,2.341,2.341,0,0,1-.112.283c-.086.182-.182.358-.28.53a7.349,7.349,0,0,0-.516,1.045,3.84,3.84,0,0,0-.16.546l-.026.14-.032.154c-.025.1-.05.2-.083.3a9.671,9.671,0,0,1-.448,1.119c-.167.362-.351.715-.538,1.066s-.388.693-.592,1.032l-.31.508c-.1.168-.211.335-.317.5-.43.666-.873,1.322-1.349,1.956l-.028-.018c.761-1.388,1.548-2.757,2.282-4.149.186-.346.364-.7.537-1.047a10.359,10.359,0,0,0,.465-1.068c.034-.09.059-.181.086-.271l.032-.135.034-.151a3.5,3.5,0,0,1,.2-.582,6.778,6.778,0,0,1,.608-1.039c.109-.165.217-.327.309-.5a1.7,1.7,0,0,0,.2-.535,1.107,1.107,0,0,0-.05-.558c-.018-.044-.033-.09-.055-.132s-.042-.085-.068-.128l-.148-.256c-.4-.68-.851-1.332-1.271-2-.21-.335-.416-.672-.613-1.015l-.3-.513-.292-.516c-.1-.172-.193-.345-.288-.518s-.189-.347-.282-.522c-.185-.35-.37-.7-.531-1.064Z" transform="translate(-2721.911 -1244.013)"/></g></g><g transform="translate(33.807 52.697)"><path d="M2643.036,1614.644a6.1,6.1,0,0,1-4.615-1.779,5.112,5.112,0,0,1-.352-.381,5.052,5.052,0,0,1-.787-1.313l.218-.089a4.829,4.829,0,0,0,.751,1.251,4.735,4.735,0,0,0,.335.364,5.99,5.99,0,0,0,4.888,1.7c.305-.009.634-.029,1.006-.06l.02.235c-.376.031-.709.051-1.018.061C2643.335,1614.641,2643.186,1614.644,2643.036,1614.644Z" transform="translate(-2637.283 -1611.082)"/></g><g transform="translate(29.193 59.127)"><path class="t" d="M2560.79,1717.769c.239.687.457,1.378.667,2.072s.413,1.389.608,2.087.385,1.4.567,2.1.358,1.4.516,2.11c.315,1.413.57,2.843.92,4.248.086.352.179.7.275,1.05l.139.528c.041.177.085.354.128.531q.242,1.063.468,2.129l.22,1.066.108.533.1.533c.138.711.264,1.423.4,2.13s.284,1.413.451,2.109c.082.349.174.693.264,1.038l.149.51c.047.17.109.341.161.512.218.684.447,1.368.677,2.052l.7,2.053c.465,1.37.938,2.739,1.375,4.124l-.062.025c-.327-.649-.634-1.306-.934-1.967l-.224-.5-.219-.5c-.145-.333-.291-.665-.429-1s-.28-.67-.417-1.006-.269-.674-.4-1.013l-.2-.509-.189-.512c-.064-.17-.125-.342-.184-.514s-.121-.344-.178-.517l-.085-.26c-.029-.087-.057-.174-.083-.263-.051-.177-.106-.354-.155-.533l-.133-.535c-.024-.089-.043-.178-.062-.268l-.057-.269-.057-.268-.053-.269-.1-.538c-.062-.359-.125-.718-.18-1.077q-.173-1.077-.311-2.155l-.069-.539-.064-.54-.131-1.078c-.048-.358-.09-.718-.147-1.074s-.115-.713-.182-1.068c-.035-.177-.071-.353-.11-.53s-.086-.349-.13-.524c-.092-.35-.191-.7-.288-1.048-.389-1.4-.852-2.772-1.251-4.166-.2-.7-.383-1.4-.553-2.1s-.337-1.409-.495-2.116-.31-1.416-.449-2.127-.275-1.424-.386-2.143Z" transform="translate(-2560.725 -1717.769)"/></g><g class="ac" transform="translate(28.983 16.948)"><path class="i" d="M2572.051,1019.9a11.041,11.041,0,0,0-5.6,1.028c-.689.315-1.37.619-2.062.9-.672.274-1.015.857-1.625,1.2a.586.586,0,0,1-.6.016.912.912,0,0,1-.284-.626,6.487,6.487,0,0,0-.286-1.048.376.376,0,0,0-.189-.25c-1.06-.373-2.226,1.829-2.48,2.509a19.358,19.358,0,0,0-.767,3.863q-.38,2.453-.76,4.906a17.655,17.655,0,0,1,.528-6.658,18.839,18.839,0,0,0,.6-2.987,7.655,7.655,0,0,0-.145-.977c-.023-.281.137-.722.11-1.041a.954.954,0,0,1,1.463.072c1.132-.609,1.945-1.654,3.265-1.857a5.522,5.522,0,0,0,1.031-.191c.3-.107.563-.29.862-.391a3.426,3.426,0,0,1,.92-.135c1.332-.073,2.324.131,3.656.059a.465.465,0,0,1,.32-.405A7.631,7.631,0,0,1,2572.051,1019.9Z" transform="translate(-2557.249 -1017.884)"/></g><g transform="translate(32.702 15.539)"><path class="ad" d="M2618.952,998.207a3.982,3.982,0,0,1,2.232-1.692c1.724-.64,2.958-.754,3.987-1.1s2.317-.915,2.317-.915a3.3,3.3,0,0,0,1.022,1.5,16.351,16.351,0,0,0,1.28,1.156,9.793,9.793,0,0,0-5.419,1.052c-2.56,1.509-3.361,2.332-4.138,2.241a10.931,10.931,0,0,1-.091-2.652S2620.076,997.174,2618.952,998.207Z" transform="translate(-2618.952 -994.503)"/></g><g transform="translate(31.182 5.744)"><g transform="translate(0.119 1.28)"><g transform="translate(0 0)"><ellipse class="ae" cx="0.42" cy="0.341" rx="0.42" ry="0.341" transform="translate(0 0.833) rotate(-82.523)"/></g></g><g transform="translate(0 1.144)"><path class="ae" d="M2595.112,851.494a1.9,1.9,0,0,0-.318-.187,1.615,1.615,0,0,0-.168-.068,1.174,1.174,0,0,0-.171-.049.793.793,0,0,0-.177-.016h-.175a1.6,1.6,0,0,0-.177.01c-.06.008-.122.021-.188.034l0-.019a.7.7,0,0,1,.186-.16.668.668,0,0,1,.2-.077.486.486,0,0,1,.2,0,1.348,1.348,0,0,1,.183.059,1.39,1.39,0,0,1,.333.185q.077.058.149.125a1.558,1.558,0,0,1,.138.143Z" transform="translate(-2593.733 -850.952)"/></g><g transform="translate(0.073)"><path class="ae" d="M2597.425,832.843a.2.2,0,0,1,0,.132,6.874,6.874,0,0,0-1.143-.388c-.28-.059-.57-.1-.851-.142-.169-.025-.478-.077-.487-.29-.01-.24.347-.174.513-.163a3.437,3.437,0,0,1,1.255.334C2596.9,832.418,2597.345,832.615,2597.425,832.843Z" transform="translate(-2594.945 -831.976)"/></g></g><g class="af" transform="translate(32.142 8.882)"><g transform="translate(0 0)"><ellipse class="ag" cx="0.883" cy="1.56" rx="0.883" ry="1.56" transform="translate(0 1.749) rotate(-82.124)"/></g></g><g class="g" transform="translate(33.245 8.916)"><circle class="d" cx="0.258" cy="0.258" r="0.258"/></g><g class="y" transform="translate(28.677 9.605)"><path class="z" d="M2553.519,896.968c.026-.261.048-.421.048-.421a1.192,1.192,0,0,1-1.4-.505,2.2,2.2,0,0,0,1.7.219A2.409,2.409,0,0,0,2553.519,896.968Z" transform="translate(-2552.163 -896.041)"/></g><g class="ah" transform="translate(31.334 3.106)"><path class="x" d="M2604.468,798.137a1.818,1.818,0,0,1-.4-.28,2.47,2.47,0,0,1-.736-1.941c.017-.567.138-1.712-.428-2.095-.507-.343-.99.2-1.25.6-.205.314-.345.87-.714.7-.231-.109-.366-.588-.484-.8a1.415,1.415,0,0,1-.173-1.078,11.075,11.075,0,0,0,.483-2.713,2.408,2.408,0,0,0-.443-1.17.488.488,0,0,0-.3-.229.592.592,0,0,0-.32.09,2.988,2.988,0,0,1-3.08-.422,2.608,2.608,0,0,1-.362-.357,3.213,3.213,0,0,0,.673.3,4.641,4.641,0,0,0,1.884.1,6.751,6.751,0,0,0,2.495-.638c.086.86.276,1.626.288,2.5.006.469-.261,1.145.031,1.568.336.488,1.087.372,1.575.515,2.037.6.37,3.257.774,4.552A1.916,1.916,0,0,0,2604.468,798.137Z" transform="translate(-2596.256 -788.203)"/></g><g transform="translate(36.063 7.994)"><path class="u" d="M2675.48,873.026a5.923,5.923,0,0,0,1.285-1.353,2.006,2.006,0,0,0,.227-1.789.973.973,0,0,0-.389-.473.962.962,0,0,0-1.173.317,6.434,6.434,0,0,0-.715,2.135" transform="translate(-2674.716 -869.317)"/></g><g transform="translate(40.255 8.388)"><path class="x" d="M2744.529,880a.388.388,0,0,0,.211.487.565.565,0,0,1-.134.114,2.951,2.951,0,0,1-.188-2.268,24.646,24.646,0,0,1,1.04-2.477,6.876,6.876,0,0,0-.363,3.074,8.373,8.373,0,0,0,.119,1.275c.089.32.373.511.595.744A1.411,1.411,0,0,1,2744.529,880Z" transform="translate(-2744.281 -875.859)"/></g><g class="ah" transform="translate(33.395 0.698)"><path class="x" d="M2635.114,748.409a10.721,10.721,0,0,1-4.661.3,9.707,9.707,0,0,1,1.62-.211c.272.018,1.085-.2,1.324-.091a1.458,1.458,0,0,0-.722-.086c.327-.028.655-.061.983-.067A6.081,6.081,0,0,1,2635.114,748.409Z" transform="translate(-2630.453 -748.256)"/></g><g class="ah" transform="translate(39.799 1.072)"><path class="x" d="M2737.487,756.363c-.2-.395-.211-.862-.377-1.274a2.246,2.246,0,0,0-.4-.623.317.317,0,0,0,.042.012.542.542,0,0,0,.163,0c.08-.008.158-.015.234-.021a2.193,2.193,0,0,0,.1.694A3.314,3.314,0,0,1,2737.487,756.363Z" transform="translate(-2736.715 -754.456)"/></g><g transform="translate(43.145 1.708)"><path class="aa" d="M2792.252,765.011a3.557,3.557,0,0,1,.771,1.217,4.783,4.783,0,0,1,.209.7,5.629,5.629,0,0,1,.1.723c.021.242.03.486.03.729a4.74,4.74,0,0,1-.062.724c-.039.238-.091.474-.153.706a6.23,6.23,0,0,1-.223.688l-.033-.006c-.005-.243.008-.482.023-.72s.034-.474.053-.708.041-.467.063-.7a6.033,6.033,0,0,0,.034-.7,5.321,5.321,0,0,0-.056-.7,4.593,4.593,0,0,0-.148-.684,3.621,3.621,0,0,0-.638-1.249Z" transform="translate(-2792.228 -765.011)"/></g><g transform="translate(30.787 11.456)"><path class="x" d="M2589.281,926.779a2.612,2.612,0,0,0-.165.414,1.068,1.068,0,0,1-.277.319c-.033.028-.066.055-.1.08a1.457,1.457,0,0,1-.723.284.7.7,0,0,1-.632-.278.215.215,0,0,1-.019-.024,1.218,1.218,0,0,1-.191-.812c.315.026.637.041.952.046l.837.014A.713.713,0,0,0,2589.281,926.779Z" transform="translate(-2587.173 -926.763)"/></g><g transform="translate(30.997 12.224)"><path class="ag" d="M2592.012,939.563a1.455,1.455,0,0,1-.723.284.705.705,0,0,1-.632-.278,2.908,2.908,0,0,1,.736-.066A5.074,5.074,0,0,1,2592.012,939.563Z" transform="translate(-2590.657 -939.501)"/></g><g class="ai" transform="translate(0.092 44.053)"><path class="z" d="M2086.524,1471.645a15.522,15.522,0,0,1-3.135,1.819.648.648,0,0,0-.179-.025c-.461.244-1.194-.6-1.194-.6a4.7,4.7,0,0,1-2.092-3.17c-.142-.077-.341-.194-.693-.375l0-.019c-.132-.067-.285-.145-.465-.231l-.041-.021a2.249,2.249,0,0,1-.814-.6,1.039,1.039,0,0,1-.06-.089,6.162,6.162,0,0,1,1.435.7c.271.163.543.326.827.463a7.487,7.487,0,0,0,1.451.439c.455.118.854.37,1.332.453a2.588,2.588,0,0,0,.313.038,1.6,1.6,0,0,0,.444-.03,1.653,1.653,0,0,0,.57-.258,2.731,2.731,0,0,0,1-1.4l.018-.058a3.994,3.994,0,0,0,.157-.749c.011-.1.02-.193.025-.289h.179A15.043,15.043,0,0,0,2086.524,1471.645Z" transform="translate(-2077.855 -1467.645)"/></g><g transform="translate(30.194 16.704)"><path class="ad" d="M2580.529,1013.906a8.684,8.684,0,0,1-1.513,3.117c-.759.434-1.6.6-1.678.419-.116-.251.991-1.815,1.285-2.475s1.633-1.117,1.9-1.129C2580.527,1013.837,2580.529,1013.861,2580.529,1013.906Z" transform="translate(-2577.329 -1013.837)"/></g><g class="ac" transform="translate(26.804 28.955)"><path class="i" d="M2537.89,1226.006a2.131,2.131,0,0,1-.173.527l-.841,1.965a32.211,32.211,0,0,1-1.939,4.008,28.612,28.612,0,0,1-1.991,3.464c-.031.038-.062.074-.095.111.2-.349.352-.613.352-.613-1.219.742-7.195-.284-8.17-.771s0,0-1.159.092-3.109-.457-2.743-1.159a2.352,2.352,0,0,0,.175-.511,2.913,2.913,0,0,0,.489.008,6.934,6.934,0,0,0,2.529-.755,11.037,11.037,0,0,0,1.185-.888c.461-.319,1.039-.42,1.5-.767a1.7,1.7,0,0,0,.711-1.843,2.58,2.58,0,0,0-1.329-1.15.365.365,0,0,1-.2-.2c-.049-.184.184-.308.371-.344a18.988,18.988,0,0,1,2.568-.106c1.682-.093,2.51-1.078,3.248-2.5a11.34,11.34,0,0,0,.968-3.9c.167-1.235-.358-2.313-.471-3.55a1.729,1.729,0,0,1,.888,1.15c.545,2.476,2.407,4.191,3.7,6.371A2.164,2.164,0,0,1,2537.89,1226.006Z" transform="translate(-2521.086 -1217.126)"/></g><g class="ac" transform="translate(38.319 47.453)"><path class="i" d="M2719.925,1524.069c-.751.94-1.426,1.785-1.921,2.451-2.378,3.194-1.768,3.512-3.292,2.933a7,7,0,0,1-2.553-2.23c.245-.039.489-.091.724-.149A23.9,23.9,0,0,0,2719.925,1524.069Z" transform="translate(-2712.159 -1524.069)"/></g><g class="w" transform="translate(29.297 59.663)"><path class="t" d="M2571.715,1760.458c-.265-.506-.427-.812-.427-.812a27.84,27.84,0,0,1-.974,6.584c-.425,1.212-.427,4.05-.364,6.634-6.369-14.1-7.338-30.92-7.49-46.208.893,4.091,2.817,8.532,3.689,12.628,1.327,6.235,1.243,12.935,4.271,18.545.367.681.78,1.341,1.081,2.054C2571.581,1760.075,2571.651,1760.266,2571.715,1760.458Z" transform="translate(-2562.459 -1726.658)"/></g><g class="w" transform="translate(32.56 109.741)"><path class="t" d="M2636.72,2565.29l-.1.008c-4.371.3-14.6-.327-17.445-.513l-.619-.041c-.265-.154-.527-.314-.79-.474-.383-.233-.77-.462-1.174-.657l1.159.055q2.871.131,5.743.21c1.518.042,2.924-.578,4.456-.716a55.067,55.067,0,0,0,5.861-.825c.412-.083.882-.216,1.052-.6.273-.62-.437-1.188-1-1.571a7.306,7.306,0,0,1-2.3-2.564c1.521.191,3.589.53,4.149,1.006C2636.629,2559.383,2636.72,2565.29,2636.72,2565.29Z" transform="translate(-2616.593 -2557.6)"/></g></g><g transform="translate(39.244 22.187)"><g transform="translate(22.683 104.039)"><path class="z" d="M1920.026,2477.747l6.448-1.112a.318.318,0,0,0,.3-.436q-.261-3.679-.845-7.325a.808.808,0,0,0-.127-.375c-.187-.242-.561-.2-.853-.1a8.227,8.227,0,0,0-4.55,3.507C1919.595,2473.552,1920.023,2475.992,1920.026,2477.747Z" transform="translate(-1919.909 -2468.321)"/></g><g transform="translate(1.637 105.431)"><path class="z" d="M1579,2491.419a26.438,26.438,0,0,0-4.073,1.351,12.408,12.408,0,0,0-2.53,1.576c-1.291,1.209-1.474,3.392-1.694,5.041-.051.377,2.915-.3,3.186-.355a26.172,26.172,0,0,1,4.817-.477,9.449,9.449,0,0,1-.764-3.075C1577.911,2494.871,1578.348,2491.642,1579,2491.419Z" transform="translate(-1570.699 -2491.419)"/></g><g transform="translate(0.913 48.36)"><path class="aj" d="M1589.051,1577.306c-.53,4.587-.037,1.459,0,1.232-.036.37-.8,8.327-1.341,10.352-.548,2.073,0,15.243,0,15.243a2.205,2.205,0,0,1-.206.244,1.8,1.8,0,0,1-1.805.61,2.833,2.833,0,0,0-1.646-.183l-1.829.793c-1.829.793-.671,1.28-2.2,1.119s-.548-.266-1.045-3.07a62.256,62.256,0,0,1-1.2-12.56,60.81,60.81,0,0,0-.531-8.316c-.044-.374-.087-.74-.131-1.1-.017-.142-.035-.283-.052-.42-.086-.682-.17-1.314-.246-1.871-.166-1.208-.295-2.058-.327-2.27l-.009-.051c-.007.043-.015.087-.023.133-.075.425-.193.945-.344,1.538-.537,2.107-1.5,5.14-2.519,8.122-1.558,4.568-3.239,9.018-3.7,9.839-.854,1.524-1.769,9.146-2.654,8.78s-.943-.366-2.59.366-5.427,1.1-5.853.732a4.283,4.283,0,0,1-.06-1.989c.156-1.869.559-4.66.791-6.668.366-3.171,4.086-15.06,4.512-17.438a9.033,9.033,0,0,1,1.829-3.9c.3-.609.427-4.145.732-6.95.146-1.34.152-4.166.119-6.787-.036-2.868-.119-5.492-.119-5.651l7.349-9.506a8.36,8.36,0,0,1,14.209,1.62l.879,1.911s.083,3.225.152,7.448C1589.312,1565.3,1589.386,1574.4,1589.051,1577.306Z" transform="translate(-1558.686 -1544.432)"/></g><g class="w" transform="translate(18.35 81.122)"><path d="M1848.093,2088.943a5.613,5.613,0,0,1,.271-.875c-.076.425-.193.945-.344,1.538A4.3,4.3,0,0,1,1848.093,2088.943Z" transform="translate(-1848.019 -2088.068)"/></g><g class="w" transform="translate(8.841 48.36)"><path d="M1712.815,1558.658a2.132,2.132,0,0,0-.292.073c-4.24,1.37-6.031,6.094-7.554,9.783a86.321,86.321,0,0,0-3.157,9.044c-.322,1.118-.752,2.4-1.127,3.7-.086-.682-.17-1.314-.246-1.871-.166-1.208-.3-2.058-.327-2.27.012-.032.025-.065.037-.1a56.018,56.018,0,0,0,2.482-9.409c.656-3.354,2.14-6.515.748-9.929-.691-1.7-4.1.717-4.909,1.219a64.834,64.834,0,0,1-7.1,3.37,8.82,8.82,0,0,0-1.028.57c-.036-2.868-.119-5.492-.119-5.651l7.349-9.506a8.361,8.361,0,0,1,14.209,1.62l.879,1.911S1712.746,1554.435,1712.815,1558.658Z" transform="translate(-1690.226 -1544.432)"/></g><g class="w" transform="translate(18.718 53.675)"><path d="M1859.128,1632.625c.073,1.163.052,2.328.018,3.493l-.037.873c-.005.146-.015.291-.025.436l-.029.436q-.028.436-.061.872l-.079.87-.083.87-.1.867-.105.867c-.035.289-.081.577-.121.865l-.128.864c-.044.288-.085.577-.136.863l-.3,1.721-.039.215-.044.214-.088.428-.176.856-.18.855q-.1.426-.2.851c-.136.566-.271,1.133-.411,1.7s-.305,1.124-.461,1.685l-.236.84c-.038.14-.081.28-.125.418l-.131.417q-.261.833-.531,1.663l-.137.414-.147.411c-.1.274-.195.548-.3.821l-.3.818c-.1.271-.206.544-.313.814.061-.285.128-.568.193-.852l.2-.848c.066-.283.139-.564.208-.845l.1-.422.095-.425q.193-.848.395-1.693l.1-.422c.035-.141.068-.281.1-.423l.186-.849.189-.847.192-.846c.115-.567.236-1.133.354-1.7l.181-.848.164-.852.169-.851.085-.425.042-.213.038-.213.313-1.706c.056-.284.1-.569.15-.854l.145-.855c.048-.285.1-.569.145-.855l.135-.857.137-.857.125-.858.129-.859.117-.86c.039-.287.082-.573.118-.86l.11-.862Q1858.96,1634.36,1859.128,1632.625Z" transform="translate(-1854.117 -1632.625)"/></g><g transform="translate(0 108.914)"><path class="ak" d="M1559.926,2556.426c-1.844.109-5.212.29-8.385.366-3.712.088-7.156.032-7.581-.453a2.225,2.225,0,0,1-.417-1.322,10.326,10.326,0,0,1,.294-2.665,1.019,1.019,0,0,1,.6-.714,8.488,8.488,0,0,1,3.271-.673,5.781,5.781,0,0,0,3.358-1.528,1.018,1.018,0,0,1,1.469.186c.13.177.261.341.4.495,1.228,1.4,2.7,1.887,5.478,3.2a8.871,8.871,0,0,1,2.141,1.339.984.984,0,0,1,.332.677A1.017,1.017,0,0,1,1559.926,2556.426Z" transform="translate(-1543.533 -2549.205)"/></g><g transform="translate(21.223 108.661)"><path class="ak" d="M1912.881,2551.059c0,.019,0,.039,0,.057s0,.017,0,.025a1.155,1.155,0,0,1-.228.628,1.1,1.1,0,0,1-.8.439l-.031,0c-4.206.245-14.93.779-15.7-.1a1.985,1.985,0,0,1-.4-1.074,9.467,9.467,0,0,1,.259-2.854,1.122,1.122,0,0,1,.674-.8,8.438,8.438,0,0,1,3.212-.649,5.671,5.671,0,0,0,3.28-1.465,1.12,1.12,0,0,1,1.6.2c.071.094.142.184.214.271,1.255,1.518,2.734,1.99,5.606,3.353a9.816,9.816,0,0,1,1.89,1.127A1.081,1.081,0,0,1,1912.881,2551.059Z" transform="translate(-1895.693 -2545.02)"/></g><g transform="translate(11.913 7.615)"><path class="t" d="M1742.133,872.5a5.6,5.6,0,0,1-.428,2.248c.593.2,1.159.468,1.738.053s.569-1.078,1.049-1.494c.521-.452,1-.7,1.227-1.4a2.3,2.3,0,0,0-.393-2.1,5.01,5.01,0,0,0-3.015-1.4,1.194,1.194,0,0,0-.7-.005.758.758,0,0,0-.4.809,2.914,2.914,0,0,0,.354.891A5.6,5.6,0,0,1,1742.133,872.5Z" transform="translate(-1741.212 -868.349)"/></g><g transform="translate(12.439 11.275)"><path class="u" d="M1758.94,936.353c-.115.541-.32,1.079-.489,1.611a1.047,1.047,0,0,1-1.019.917l-1.6.314a4.683,4.683,0,0,1-5.351-1.815,1.7,1.7,0,0,1-.535-.772c-.151-.649,1.332-1.925,1.671-2.5a2.866,2.866,0,0,0,.341-.909c.236-1.19-.173-2.5-.045-3.671.763.025,1.469-.427,2.289-.44,1.179-.018,2.36.036,3.538-.007a28.18,28.18,0,0,0-.365,5.292C1757.507,935.561,1757.926,936.443,1758.94,936.353Z" transform="translate(-1749.938 -929.083)"/></g><g transform="translate(13.03 18.51)"><path class="d" d="M1776.1,1081.2s-.092.065-.266.168c-.082.049-.183.106-.3.169s-.281.147-.451.227a11.155,11.155,0,0,1-7.86.633,12.806,12.806,0,0,1-3.141-1.4l-.065-.04a4.06,4.06,0,0,1-.684-.535,10.177,10.177,0,0,1-2.338-4.695,34.261,34.261,0,0,1-.892-5.149,103.608,103.608,0,0,1-.026-16.8c.087-1.243.176-2.266.242-2.98s.112-1.123.112-1.123a5.426,5.426,0,0,0,1.524,1.131,6.171,6.171,0,0,0,1.32.5,6.4,6.4,0,0,0,1.729.2,3.337,3.337,0,0,0,2.5-.966,2.661,2.661,0,0,0,.407-.577c.012-.022.022-.043.033-.064a2.739,2.739,0,0,0,.159-.4,2.023,2.023,0,0,0,.08-.356l.145.186,3.716,4.758.7.893,1.4,8.353,1.291,13.2.295,3.016Z" transform="translate(-1759.738 -1049.145)"/></g><g class="al" transform="translate(13.03 18.696)"><path class="p" d="M1776.1,1084.1s-.092.065-.266.167c-.082.049-.183.106-.3.169s-.281.147-.451.227a11.153,11.153,0,0,1-7.86.634,12.8,12.8,0,0,1-3.141-1.4l-.065-.04a4.052,4.052,0,0,1-.684-.535,65.085,65.085,0,0,1-2.675-7.833q-.286-1-.555-2.01a103.607,103.607,0,0,1-.026-16.8c.087-1.243.176-2.266.242-2.98s.112-1.123.112-1.123a5.429,5.429,0,0,0,1.524,1.131,6.184,6.184,0,0,0,1.32.5,60.246,60.246,0,0,1,3.231,8.645c1.056,3.662.905,7.782,3.636,10.613a.726.726,0,0,0,.6.3c.351-.067.4-.544.366-.9q-.48-4.977-.96-9.954a11.791,11.791,0,0,0-.431-2.994q-1.105-3.241-2.209-6.482l-.084-.247a2.108,2.108,0,0,1,.684-.793q.109-.088.225-.17l3.716,4.758.7.893,1.4,8.353,1.291,13.2.295,3.016Z" transform="translate(-1759.738 -1052.228)"/></g><g transform="translate(3.839 16.702)"><path class="am" d="M1631.225,1051.459a5.636,5.636,0,0,1-.155,1.154,1.14,1.14,0,0,1-.479.754c-.933.493-5.171-2.1-6.42-2.887-.22-.14-.347-.222-.347-.222s0,.021,0,.031a17.616,17.616,0,0,1-1.1,8.932,6.164,6.164,0,0,1-.743,2.661c-2.745,4.962-12.012,4.322-11.7,3.131.366-1.372-.031-16.98-.061-19.815a22.577,22.577,0,0,0-1.159-6.219c-.4-1.616-1.89-6.86-1.829-11.1s1.981-4.3,2.988-5.061a14.057,14.057,0,0,1,2.078-1.256l.572-.294q.183-.094.366-.19c.44-.23.881-.472,1.317-.75.524-.334,1.026-1.1,1.658-1.191.1-.014.186.07.252.146.1.119.2.238.3.355a16.336,16.336,0,0,1,1.863,2.954,40.262,40.262,0,0,1,2.083,4.88q.259.717.5,1.442a52.473,52.473,0,0,1,2.086,9.192c.046.338.082.677.114,1.017.123,1.333.162,2.678.351,4,.018.129.2.321.5.554a55.038,55.038,0,0,0,6.381,3.62c.419.211.676.338.676.338a3.3,3.3,0,0,0-.092.73C1631.195,1049.214,1631.277,1050.43,1631.225,1051.459Z" transform="translate(-1607.238 -1019.14)"/></g><g transform="translate(8.907 18.645)"><path class="an" d="M1703.282,1073.973c-.008.041-.017.083-.025.124a8.667,8.667,0,0,0-3.223-1.676c.907-3.46-.708-6.183-1.3-9.463a12.77,12.77,0,0,0-.671-2.63,11.274,11.274,0,0,0-1.379-2.29,47.881,47.881,0,0,0-5.358-6.153l0-.026c.19-.1.381-.2.572-.294.122-.063.244-.126.366-.19a29.633,29.633,0,0,1,7.923,7.759l.045.076a52.465,52.465,0,0,1,2.086,9.192c.046.338.083.677.114,1.017.124,1.334.162,2.679.351,4C1702.8,1073.547,1702.982,1073.74,1703.282,1073.973Z" transform="translate(-1691.322 -1051.376)"/></g><g transform="translate(9.425 16.673)"><g transform="translate(0.054 0.03)"><path class="r" d="M1711.345,1039.128c-.474-1.476-.962-2.949-1.527-4.394-.533-1.362-1.256-2.654-1.667-4.053a10.419,10.419,0,0,0-1.921-3.069q-1.341-1.8-2.728-3.568a16.845,16.845,0,0,0-2.692-2.769c.562-.288,1.127-.585,1.683-.939.524-.334,1.026-1.1,1.658-1.192.1-.014.186.07.252.146q.156.178.3.354a16.329,16.329,0,0,1,1.863,2.954,40.279,40.279,0,0,1,2.083,4.88,51.861,51.861,0,0,1,2.582,10.635C1711.277,1038.449,1711.314,1038.788,1711.345,1039.128Z" transform="translate(-1700.811 -1019.141)"/></g><path class="r" d="M1710.559,1038.931l-.082-.254c-.455-1.418-.955-2.932-1.526-4.392-.2-.52-.438-1.037-.665-1.538a19.559,19.559,0,0,1-1-2.518,7.994,7.994,0,0,0-1.507-2.525c-.136-.175-.277-.357-.409-.535-.8-1.078-1.67-2.212-2.727-3.567a16.872,16.872,0,0,0-2.687-2.764l-.035-.029.04-.021c.543-.279,1.12-.581,1.681-.938a4.013,4.013,0,0,0,.563-.476,2.274,2.274,0,0,1,1.107-.72.338.338,0,0,1,.279.156c.1.114.2.233.3.356a16.238,16.238,0,0,1,1.866,2.959,39.9,39.9,0,0,1,2.085,4.883,51.94,51.94,0,0,1,2.583,10.641c.043.319.08.652.114,1.018Zm-10.534-18.112a16.951,16.951,0,0,1,2.661,2.746c1.058,1.356,1.925,2.49,2.729,3.568.132.178.273.359.408.534a8.04,8.04,0,0,1,1.517,2.545,19.43,19.43,0,0,0,1,2.51c.227.5.462,1.02.666,1.541.537,1.374,1.011,2.793,1.444,4.136-.026-.261-.055-.507-.088-.744a51.874,51.874,0,0,0-2.58-10.629,39.916,39.916,0,0,0-2.082-4.876,16.2,16.2,0,0,0-1.86-2.949c-.1-.122-.2-.241-.3-.354-.068-.078-.143-.148-.226-.136a2.236,2.236,0,0,0-1.075.7,4.074,4.074,0,0,1-.572.483C1701.12,1020.248,1700.557,1020.545,1700.024,1020.818Z" transform="translate(-1699.917 -1018.651)"/></g><g transform="translate(7.659 33.648)"><path class="an" d="M1682.281,1323.455a6.163,6.163,0,0,1-.743,2.662c-.311-.883-.65-1.756-.91-2.661a22.278,22.278,0,0,0-1.939-4.622c-1.574-2.857-3.561-5.471-4.99-8.411-1.591-3.274-1.926-6.729-3.087-10.1.195.567.986,1.03,1.223,1.68a11,11,0,0,0,.764,1.976c.989,1.707,2.05,3.376,3.132,5.026a11.922,11.922,0,0,0,2.844,3.314c1.438,1.029,3.237,1.4,4.809,2.209A17.615,17.615,0,0,1,1682.281,1323.455Z" transform="translate(-1670.612 -1300.319)"/></g><g transform="translate(7.621 33.676)"><path class="r" d="M1669.99,1300.791a1.979,1.979,0,0,1,.172.265l.157.274.3.554c.2.37.392.744.588,1.115.387.745.766,1.493,1.145,2.24s.756,1.495,1.138,2.238c.192.371.383.742.58,1.109s.393.734.6,1.092.415.715.644,1.041c.057.081.115.161.174.234.029.037.06.071.089.1l.044.047.051.047c.065.063.141.124.216.185.038.03.079.059.119.088s.078.06.121.088c.328.23.684.44,1.042.644s.727.4,1.1.589c.741.382,1.494.746,2.249,1.108s1.516.717,2.274,1.083c-.811-.227-1.608-.5-2.4-.78s-1.575-.6-2.349-.937c-.387-.171-.771-.349-1.15-.543a11.778,11.778,0,0,1-1.121-.639,4.321,4.321,0,0,1-.538-.409l-.066-.059-.065-.066c-.041-.044-.081-.088-.117-.133-.075-.088-.141-.177-.207-.267-.256-.359-.474-.724-.687-1.093s-.409-.743-.6-1.118-.38-.753-.562-1.133q-.546-1.139-1.046-2.3t-.968-2.327c-.153-.391-.309-.781-.459-1.173l-.226-.588-.113-.294-.059-.146A.89.89,0,0,0,1669.99,1300.791Z" transform="translate(-1669.99 -1300.791)"/></g><g transform="translate(15.547 27.762)"><path class="r" d="M1801.509,1202.658c.1.239.2.48.29.723s.18.486.266.731c.174.488.331.982.487,1.474l.913,2.955c.15.493.294.988.437,1.483l.21.744.051.186c.017.06.034.118.053.177.037.119.077.238.119.358a6.231,6.231,0,0,1,.4,1.569,2,2,0,0,1-.132.874,2.028,2.028,0,0,1-.212.388,2.468,2.468,0,0,1-.28.324l-.222-.356a3.226,3.226,0,0,1,.368-.073,1.4,1.4,0,0,1,.2-.011c.038,0,.073,0,.111.01l.058.013a.271.271,0,0,1,.058.017l.057.023a.6.6,0,0,1,.053.03.561.561,0,0,1,.094.071c.028.025.05.052.074.077s.042.052.059.076c.073.1.133.194.2.283.033.045.069.089.1.131a1.219,1.219,0,0,0,.112.114,1.813,1.813,0,0,0,.268.2c.194.119.406.221.612.332a6.008,6.008,0,0,1-.675-.205,1.984,1.984,0,0,1-.326-.163,1.142,1.142,0,0,1-.152-.113c-.047-.042-.09-.082-.134-.125-.086-.084-.166-.176-.243-.254-.019-.02-.038-.036-.056-.054s-.036-.03-.054-.042a.267.267,0,0,0-.05-.027c-.008,0-.016-.008-.024-.01l-.025-.005a.61.61,0,0,0-.259.024,2.853,2.853,0,0,0-.308.1l-.718.255.5-.611a2.331,2.331,0,0,0,.2-.283,1.466,1.466,0,0,0,.177-.956,3.378,3.378,0,0,0-.174-.688c-.079-.233-.175-.469-.268-.714-.046-.122-.091-.246-.135-.373-.022-.063-.042-.128-.063-.192l-.056-.186-.217-.745c-.142-.5-.284-.995-.419-1.494-.069-.249-.135-.5-.2-.749s-.133-.5-.194-.752c-.124-.5-.235-1.009-.343-1.515s-.21-1.012-.306-1.52c-.05-.254-.1-.507-.147-.762S1801.554,1202.914,1801.509,1202.658Z" transform="translate(-1801.509 -1202.658)"/></g><g transform="translate(20.507 17.509)"><path class="am" d="M1897.5,1073.267c-.061.366-1.1.793-2.5.428a.81.81,0,0,1-.352-.242c-.885-.923-2.114-4.211-2.984-7.3q-.109-.389-.21-.771c-.008-.031-.016-.061-.024-.092-.112-.426-.215-.842-.308-1.243a18.6,18.6,0,0,1-.512-3.092c-.013-.33-.036-.689-.066-1.069-.122-1.517-.364-3.373-.612-5.056-.259-1.758-.525-3.327-.663-4.118-.3-1.738-2.408-10.335-2.988-12.134a28.784,28.784,0,0,0-1.281-3.095l-.011-.024c-.164-.362-.324-.726-.483-1.09l-.007-.016-.191-.44a4.178,4.178,0,0,0-.258-.429,1.406,1.406,0,0,1-.247-.521.388.388,0,0,1,.134-.357c.413-.3,1.649.4,2.012.611q.194.111.383.23c.541.336,1.059.708,1.573,1.084l.455.334.2.146c1.156.845,3.053,2,3.638,3.386.272.644.964,3.26,1.645,6.022.774,3.133,1.534,6.454,1.647,7.294.078.574.372,3.528.713,7.074.005.048.01.1.014.145.038.4.077.8.116,1.2a2.235,2.235,0,0,1-.814-.6,10.249,10.249,0,0,0-1.342,1,4.87,4.87,0,0,1-2.153.4l.3,3.016.366,1.646s-.092.065-.266.168a17.814,17.814,0,0,0,1.866.682,6.1,6.1,0,0,0,1.082.047c.406,0,.774-.122,1.16-.143a1.346,1.346,0,0,1,.377.044l.014,0a.015.015,0,0,0,0,0C1897.259,1070.121,1897.521,1073.126,1897.5,1073.267Z" transform="translate(-1883.8 -1032.529)"/></g><g transform="translate(21.705 18.423)"><path class="an" d="M1916.179,1087.52c-.061.366-1.1.793-2.5.428a.811.811,0,0,1-.352-.242c-.885-.922-2.114-4.211-2.984-7.3q-.11-.389-.211-.771l-.024-.092c-.112-.425-.215-.842-.308-1.243a0,0,0,0,0,0,0c.052-1.029-.03-2.245.006-3.092a3.288,3.288,0,0,1,.092-.73s-.257-.126-.676-.338c-.121-1.517-.364-3.373-.612-5.055-.26-1.758-.525-3.327-.664-4.118-.3-1.738-2.408-10.335-2.987-12.134a28.839,28.839,0,0,0-1.281-3.1,3.436,3.436,0,0,1,.97-1.854.836.836,0,0,1,.362-.183c.541.336,1.06.708,1.573,1.084l.455.334a98.71,98.71,0,0,1,2.226,13.879q.294,3.5.284,7.018c-.008,2.046.749,3.562,2.647,4.3a.753.753,0,0,0,.58.056.7.7,0,0,0,.3-.384,7.152,7.152,0,0,0,.373-2.979,114.02,114.02,0,0,0-.932-12.337c.774,3.133,1.534,6.454,1.647,7.294.078.574.372,3.528.713,7.074,0,.048.009.1.013.145q.058.593.116,1.2a2.24,2.24,0,0,1-.814-.6,10.214,10.214,0,0,0-1.342,1,4.874,4.874,0,0,1-2.152.4l.295,3.016.366,1.646s-.092.064-.266.168a17.886,17.886,0,0,0,1.866.682,6.1,6.1,0,0,0,1.082.047c.406,0,.774-.122,1.16-.143a1.334,1.334,0,0,1,.378.044l.014,0a.012.012,0,0,0,0,0C1915.941,1084.373,1916.2,1087.379,1916.179,1087.52Z" transform="translate(-1903.68 -1047.696)"/></g><g transform="translate(20.477 17.48)"><g transform="translate(0.029 0.029)"><path class="r" d="M1890.24,1051.131a30.629,30.629,0,0,1-.312,3.691c-.259-1.759-.525-3.327-.663-4.118-.3-1.738-2.408-10.335-2.987-12.133a29.207,29.207,0,0,0-1.292-3.12c-.234-.513-.457-1.03-.681-1.547-.1-.224-.5-.719-.505-.949a.389.389,0,0,1,.135-.358c.413-.3,1.649.4,2.012.611a21.709,21.709,0,0,1,1.956,1.315,29.2,29.2,0,0,1,.815,5.023C1888.838,1042.321,1890.3,1048.449,1890.24,1051.131Z" transform="translate(-1883.798 -1032.525)"/></g><path class="r" d="M1889.469,1054.581l-.03-.2c-.279-1.892-.557-3.51-.663-4.117-.29-1.652-2.393-10.285-2.987-12.129a26.512,26.512,0,0,0-1.17-2.852l-.12-.265c-.217-.477-.429-.965-.633-1.436l-.048-.111a2.838,2.838,0,0,0-.192-.325,1.792,1.792,0,0,1-.315-.635.421.421,0,0,1,.146-.383c.363-.262,1.312.187,2.044.61a21.913,21.913,0,0,1,1.958,1.316l.009.006,0,.01a29.207,29.207,0,0,1,.816,5.029,50.228,50.228,0,0,0,.72,5.173,42.551,42.551,0,0,1,.8,6.413h0a30.544,30.544,0,0,1-.313,3.695Zm-5.72-22.475a.435.435,0,0,0-.258.067.366.366,0,0,0-.122.333,1.792,1.792,0,0,0,.306.605,2.934,2.934,0,0,1,.2.333l.048.111c.2.471.416.959.633,1.435l.12.265a26.594,26.594,0,0,1,1.173,2.858c.594,1.845,2.7,10.484,2.988,12.137.1.586.364,2.11.633,3.915a30.055,30.055,0,0,0,.284-3.484h0a42.543,42.543,0,0,0-.8-6.4,50.326,50.326,0,0,1-.721-5.18,29.115,29.115,0,0,0-.812-5.007,21.788,21.788,0,0,0-1.945-1.307A4.2,4.2,0,0,0,1883.748,1032.106Z" transform="translate(-1883.309 -1032.047)"/></g><g transform="translate(27.672 45.903)"><path class="z" d="M2004.4,1508.334s-.092.064-.266.168c-.264-.1-.538-.212-.81-.316l-.152-.058c-.164-.062-.328-.124-.487-.182a24.165,24.165,0,0,0,.16-4.246c.247,0,.561-.01.895-.026l.3,3.016Z" transform="translate(-2002.689 -1503.672)"/></g><g transform="translate(28.727 44.511)"><path class="u" d="M2029.788,1486.566a4.8,4.8,0,0,1-2.5.271,2.456,2.456,0,0,1-1.249.76,2.75,2.75,0,0,1-.949-.166l-.014,0a1.342,1.342,0,0,0-.378-.044c-.385.021-.754.139-1.16.143a6.068,6.068,0,0,1-1.082-.047,17.872,17.872,0,0,1-1.866-.682c.174-.1.266-.168.266-.168l-.366-1.646-.295-3.016a4.872,4.872,0,0,0,2.152-.4,10.258,10.258,0,0,1,1.342-1,2.245,2.245,0,0,0,.814.6c.013.007.027.015.041.021.2.095.36.178.5.25.352.181.551.3.692.375a4.7,4.7,0,0,0,2.093,3.171s.732.841,1.194.6a.65.65,0,0,1,.179.025C2029.432,1485.674,2029.788,1485.877,2029.788,1486.566Z" transform="translate(-2020.199 -1480.574)"/></g><g transform="translate(32.221 42.414)"><path class="u" d="M2080.7,1447.052a2.235,2.235,0,0,1-.224.836,2.715,2.715,0,0,0-.152.4,2.454,2.454,0,0,0-.093.825c-.142-.077-.341-.194-.693-.375-.141-.072-.306-.155-.5-.25l-.041-.021a2.246,2.246,0,0,1-.814-.6c.231-.151.4-.252.4-.252l.3-.352.125-.146,1.162-1.348A1.565,1.565,0,0,1,2080.7,1447.052Z" transform="translate(-2078.178 -1445.77)"/></g><g transform="translate(32.498 50.565)"><path class="ao" d="M2082.768,1581.019c.108.06.207.126.3.191s.194.133.288.2.19.136.284.206.189.142.281.225a1.4,1.4,0,0,1-.348-.112,1.98,1.98,0,0,1-.314-.183,1.934,1.934,0,0,1-.275-.237A1.388,1.388,0,0,1,2082.768,1581.019Z" transform="translate(-2082.768 -1581.019)"/></g><g transform="translate(34.332 49.583)"><path class="ao" d="M2113.212,1564.732c.136.082.264.17.391.259s.252.178.377.268.249.18.373.273.248.186.369.29a2.262,2.262,0,0,1-.438-.18,3.292,3.292,0,0,1-.763-.551A2.258,2.258,0,0,1,2113.212,1564.732Z" transform="translate(-2113.212 -1564.732)"/></g><g class="y" transform="translate(14.391 11.275)"><path class="z" d="M1787.818,934.375a13.461,13.461,0,0,1-5.417-1.174c.236-1.19-.173-2.5-.045-3.671.763.025,1.469-.427,2.289-.44,1.179-.018,2.36.036,3.539-.007A28.176,28.176,0,0,0,1787.818,934.375Z" transform="translate(-1782.33 -929.083)"/></g><g transform="translate(12.32 2.743)"><path class="u" d="M1758.544,795.164c0,.194-.013.387-.023.58-.014.279-.021.574-.031.877-.048,1.477-.236,3.556-1.936,4.085-1.431.445-3.507-.493-4.594-1.389a18,18,0,0,0-2.183-2.015c-.658-.367-1.192-.463-1.514-1.168-.229-.5-.549-1.341.009-1.677.579-.35,1.679.2,2.073.6-.024-.259-.047-.519-.065-.779a10.357,10.357,0,0,1,.108-2.765,4.775,4.775,0,0,1,1.793-3,5.851,5.851,0,0,1,2.422-.887,4.975,4.975,0,0,1,2.343.047c1.726.552,1.3,1.8,1.437,3.176,0,.008,0,.015,0,.023.059.6.1,1.2.134,1.8l.007.148C1758.561,793.6,1758.569,794.385,1758.544,795.164Z" transform="translate(-1747.963 -787.511)"/></g><g transform="translate(10.785)"><path class="ap" d="M1735.2,746.116a1.345,1.345,0,0,1-.1.365,3.485,3.485,0,0,1-.679.946c-.064.07-.13.138-.2.206a5.391,5.391,0,0,1-1.5-1.795l-.02-.039a3.3,3.3,0,0,1-.165.348,2.356,2.356,0,0,1-.708.818c-1.043.728-2.518.338-3.764.665a1.148,1.148,0,0,0-.63.35c-.366.469.057.859-.063,1.3a.994.994,0,0,1-.194.362c-.2.249-.464.445-.518.8a7.272,7.272,0,0,0,.033,1.4,3.159,3.159,0,0,1-.013.469,2.218,2.218,0,0,1-.1.474c-.18.061-.291-.18-.341-.356a1.7,1.7,0,0,0-1.844-1.132c-.3.048-.021.264-.31.163a1.469,1.469,0,0,1-.687-.592,3.4,3.4,0,0,1,.221-4.037c.056-.067.116-.132.178-.195a3.22,3.22,0,0,0-1.3.417,1.393,1.393,0,0,1,1.842-.849,2.789,2.789,0,0,1,2.354-3.047q.018.275.036.549l3.261-1.169a8.04,8.04,0,0,1,2.046-.536,2.706,2.706,0,0,1,1.988.549,2.985,2.985,0,0,1,.825,1.866A5.46,5.46,0,0,1,1735.2,746.116Z" transform="translate(-1722.494 -742)"/></g><g class="y" transform="translate(14.928 3.798)"><path class="z" d="M1799.042,807.327a4.088,4.088,0,0,1-1.176-.918c-.152-.008-.417.134-.532.038a4.648,4.648,0,0,1-3.715.949,2.359,2.359,0,0,0-1.172.034c-.363.151-.6.637-.333.917-.471.421.6.442.106.843-.906.742-.637,1.649-.767,2.783q-.088-.213-.179-.431c.07-.644-.117-1.244-.02-1.873.078-.508.585-.69.712-1.164.12-.445-.3-.835.063-1.3a1.146,1.146,0,0,1,.629-.35c1.246-.327,2.721.064,3.764-.665a2.568,2.568,0,0,0,.873-1.166,5.386,5.386,0,0,0,1.515,1.834c.065-.068.131-.137.2-.206,0,.214.012.433.034.656C1799.041,807.312,1799.041,807.32,1799.042,807.327Z" transform="translate(-1791.226 -805.021)"/></g><g transform="translate(11.131 4.783)"><path class="t" d="M1732.086,826.436a3.125,3.125,0,0,1-.013.469,2.229,2.229,0,0,1-.1.474c-.18.061-.291-.18-.342-.356a1.7,1.7,0,0,0-1.844-1.132c-.3.048-.021.264-.31.163a1.47,1.47,0,0,1-.687-.592,3.4,3.4,0,0,1,.221-4.037,2.533,2.533,0,0,1,1.689.217c-.956-.456-1.483,2.526-1.27,3,.354.785,1.255.519,1.893.871A1.845,1.845,0,0,1,1732.086,826.436Z" transform="translate(-1728.229 -821.368)"/></g><g transform="translate(15.186 4.146)"><path class="t" d="M1801.155,810.795a2.356,2.356,0,0,1-.708.818c-1.043.728-2.518.338-3.764.665a1.147,1.147,0,0,0-.63.35c-.366.469.057.859-.063,1.3a.991.991,0,0,1-.194.362,2.642,2.642,0,0,1-.258-1.521c.232-1.228,1.825-1.873,3.086-1.544a4.4,4.4,0,0,0,1.318.292A1.654,1.654,0,0,0,1801.155,810.795Z" transform="translate(-1795.508 -810.795)"/></g><g transform="translate(21.017 2.243)"><path class="t" d="M1894.736,781.088a1.346,1.346,0,0,1-.1.365,3.485,3.485,0,0,1-.679.946c-.064.07-.13.138-.2.206a5.4,5.4,0,0,1-1.5-1.795,4.908,4.908,0,0,0,.377-1.594A2.517,2.517,0,0,0,1894.736,781.088Z" transform="translate(-1892.263 -779.215)"/></g><g transform="translate(8.108 2.98)"><path class="ap" d="M1681.065,791.5a4.723,4.723,0,0,0-1.116.8c-.081.079-.158.163-.237.244s-.144.174-.217.259-.133.181-.2.271-.119.19-.178.284-.1.2-.153.3-.083.206-.125.308c-.022.051-.036.1-.055.156s-.038.1-.058.154c-.035.1-.069.208-.11.31-.02.052-.033.1-.051.157l-.053.158c-.03.106-.058.214-.093.322s-.051.22-.084.332-.045.227-.081.345l-.05,0a3.349,3.349,0,0,1-.1-.353c-.017-.12-.032-.242-.04-.365s0-.245.01-.368.032-.244.056-.365.061-.239.1-.355.1-.227.151-.336.122-.213.188-.317l.1-.151c.035-.05.065-.1.1-.151.074-.1.145-.194.222-.288s.159-.182.242-.27.173-.168.263-.248.185-.154.279-.227a4.332,4.332,0,0,1,1.259-.653Z" transform="translate(-1678.068 -791.455)"/></g><g transform="translate(8.834 18.323)"><path class="an" d="M1690.109,1046.042a.03.03,0,0,1,0,.019Z" transform="translate(-1690.109 -1046.042)"/></g><g class="w" transform="translate(19.482 85.911)"><path d="M1877.048,2189.924a1.8,1.8,0,0,1-1.806.61,2.828,2.828,0,0,0-1.646-.183l-1.828.793c-1.829.793-.671,1.28-2.2,1.119s-.549-.265-1.045-3.07a62.249,62.249,0,0,1-1.2-12.56,60.886,60.886,0,0,0-.531-8.316l.38-.785a26.4,26.4,0,0,1,1.716,10.04c-.084,4.249,1.027,10.994,6.575,11.319a1.94,1.94,0,0,1,1.314.344A.981.981,0,0,1,1877.048,2189.924Z" transform="translate(-1866.801 -2167.532)"/></g><g class="w" transform="translate(0.913 90.782)"><path d="M1573.6,2248.356c-1.558,4.569-3.239,9.019-3.7,9.84-.854,1.524-1.769,9.146-2.654,8.78s-.943-.366-2.59.365-5.427,1.1-5.853.732a4.285,4.285,0,0,1-.06-1.99,7.483,7.483,0,0,0,2.181.137,6.35,6.35,0,0,0,3.951-2.3,18.917,18.917,0,0,0,2.427-3.988l3.361-6.717A24.272,24.272,0,0,1,1573.6,2248.356Z" transform="translate(-1558.686 -2248.356)"/></g><g transform="translate(0.009 114.726)"><path class="t" d="M1561.029,2645.966a1.019,1.019,0,0,1-.957,1.09c-4,.236-15.178.812-15.966-.088a2.223,2.223,0,0,1-.417-1.322A59.073,59.073,0,0,0,1561.029,2645.966Z" transform="translate(-1543.689 -2645.647)"/></g><g transform="translate(21.255 114.676)"><path class="t" d="M1913.381,2644.906l-.015.025-.551.919a1.117,1.117,0,0,1-.508.151c-4.206.245-14.93.778-15.7-.1a1.984,1.984,0,0,1-.4-1.074,61.833,61.833,0,0,0,14,.243,22.892,22.892,0,0,1,2.412-.187c.247,0,.495.008.742.025Z" transform="translate(-1896.211 -2644.825)"/></g><g class="w" transform="translate(0 108.914)"><path d="M1549.51,2555.952l2.03.839c-3.712.088-7.156.032-7.581-.453a2.225,2.225,0,0,1-.417-1.322,10.326,10.326,0,0,1,.294-2.665,1.019,1.019,0,0,1,.6-.714,8.488,8.488,0,0,1,3.271-.673,5.781,5.781,0,0,0,3.358-1.528,1.018,1.018,0,0,1,1.469.186c.13.177.261.341.4.495a16.821,16.821,0,0,0-4,4.05,1.3,1.3,0,0,0-.3,1.082C1548.755,2555.617,1549.152,2555.8,1549.51,2555.952Z" transform="translate(-1543.533 -2549.205)"/></g><g class="w" transform="translate(21.223 108.661)"><path d="M1904.375,2552.4c-1.767-.066-6.953,1.2-8.255-.293a1.985,1.985,0,0,1-.4-1.074,9.467,9.467,0,0,1,.259-2.854,1.122,1.122,0,0,1,.674-.8,8.438,8.438,0,0,1,3.212-.649,5.671,5.671,0,0,0,3.28-1.465,1.12,1.12,0,0,1,1.6.2c.071.094.142.184.214.271-1.218.521-4.057,1.492-4.394,2.99C1900.164,2550.542,1902.826,2552.345,1904.375,2552.4Z" transform="translate(-1895.693 -2545.02)"/></g><g transform="translate(15.265 7.466)"><g transform="translate(5.133 2.025)"><path class="ae" d="M1882.01,899.5c.119.21.233.423.349.634l.172.318.169.32c.014.025.028.057.042.086a.679.679,0,0,1,.035.093.629.629,0,0,1,.024.1.61.61,0,0,1,.013.1.719.719,0,0,1-.084.388.784.784,0,0,1-.271.293c-.03.016-.058.033-.088.048s-.062.025-.093.036a.424.424,0,0,1-.2.022c0-.018,0-.005,0-.009h0l.005,0,.01-.005.021-.011.041-.02.076-.047.07-.052.063-.057a.843.843,0,0,0,.182-.27.88.88,0,0,0,.068-.306.453.453,0,0,0,0-.079.425.425,0,0,0-.011-.079.445.445,0,0,0-.021-.078c-.01-.026-.017-.05-.03-.079l-.145-.33-.142-.331c-.093-.222-.188-.443-.279-.665Z" transform="translate(-1881.993 -899.498)"/></g><g transform="translate(0.642 0.085)"><path class="ae" d="M1807.474,868.2h0l.728-.5a1.018,1.018,0,0,1,.144-.088,1.06,1.06,0,0,1,.223-.066c.494-.108.984-.169,1.484-.233a.287.287,0,0,1,.315.2.892.892,0,0,1,.026.12.085.085,0,0,1-.007.059.1.1,0,0,1-.081.03A12.9,12.9,0,0,0,1807.474,868.2Z" transform="translate(-1807.474 -867.309)"/></g><g transform="translate(5.956)"><path class="ae" d="M1897.3,866.481a5.39,5.39,0,0,0-1.6-.16.051.051,0,0,1-.054-.022.128.128,0,0,1-.009-.058c0-.042,0-.083.007-.122.013-.136.093-.233.184-.228a7.135,7.135,0,0,1,.965.1.489.489,0,0,1,.147.047.64.64,0,0,1,.1.075l.255.22C1897.3,866.382,1897.3,866.432,1897.3,866.481Z" transform="translate(-1895.639 -865.891)"/></g><g transform="translate(2.454 1.255)"><g transform="translate(0 0)"><g transform="translate(0)"><ellipse class="ae" cx="0.356" cy="0.44" rx="0.356" ry="0.44" transform="translate(0 0.081) rotate(-6.55)"/></g></g></g><g transform="translate(6.312 1.104)"><g transform="translate(0 0)"><g transform="translate(0)"><ellipse class="ae" cx="0.265" cy="0.407" rx="0.265" ry="0.407" transform="translate(0 0.053) rotate(-5.709)"/></g></g></g><g transform="translate(3.333 5.116)"><path class="ae" d="M1854.652,951.725a1.17,1.17,0,0,1-.144.282.8.8,0,0,1-.676.3,1.523,1.523,0,0,1-1.4-.6,1.849,1.849,0,0,1-.306-.693,3.5,3.5,0,0,1,2.074-.107C1854.629,951.083,1854.768,951.379,1854.652,951.725Z" transform="translate(-1852.128 -950.783)"/></g><g transform="translate(1.889 1.117)"><path class="ae" d="M1828.16,884.946a1.59,1.59,0,0,1,.147-.142c.051-.044.1-.085.157-.124a1.447,1.447,0,0,1,.341-.181,1.376,1.376,0,0,1,.183-.056.45.45,0,0,1,.193,0,.59.59,0,0,1,.191.083.623.623,0,0,1,.165.167l-.006.019c-.064-.015-.122-.03-.181-.039a1.475,1.475,0,0,0-.171-.014l-.17,0a.741.741,0,0,0-.173.012,1.156,1.156,0,0,0-.171.046,1.645,1.645,0,0,0-.169.066,2.045,2.045,0,0,0-.328.183Z" transform="translate(-1828.16 -884.433)"/></g><g transform="translate(6.096 1.012)"><path class="ae" d="M1899.041,882.883a1.237,1.237,0,0,0-.285-.055,1,1,0,0,0-.141,0,.749.749,0,0,0-.137.016.518.518,0,0,0-.131.048l-.125.061a1.073,1.073,0,0,0-.123.071c-.041.028-.08.062-.124.1l-.009-.015a.72.72,0,0,1,.083-.21.547.547,0,0,1,.121-.141.323.323,0,0,1,.142-.067.863.863,0,0,1,.149-.012.888.888,0,0,1,.294.049,1.358,1.358,0,0,1,.145.059,1.059,1.059,0,0,1,.143.08Z" transform="translate(-1897.967 -882.675)"/></g><g class="af" transform="translate(6.847 2.929)"><path class="ag" d="M1911.216,914.495c-.005.194-.013.387-.023.58-.014.279-.021.574-.031.878-.422-.12-.713-.358-.735-.65C1910.4,914.974,1910.726,914.665,1911.216,914.495Z" transform="translate(-1910.426 -914.495)"/></g><g class="af" transform="translate(0 2.896)"><g transform="translate(0 0)"><g transform="translate(0)"><ellipse class="ag" cx="1.445" cy="0.836" rx="1.445" ry="0.836" transform="translate(0 0.192) rotate(-3.8)"/></g></g></g><g class="g" transform="translate(0.393 2.932)"><ellipse class="d" cx="0.255" cy="0.244" rx="0.255" ry="0.244"/></g><g transform="translate(3.639 5.929)"><path class="ag" d="M1859.419,964.4a1.162,1.162,0,0,1-.144.281.8.8,0,0,1-.676.3,1.523,1.523,0,0,1-1.4-.6,8.722,8.722,0,0,1,1.236-.1,2.425,2.425,0,0,1,.792.053A1.756,1.756,0,0,1,1859.419,964.4Z" transform="translate(-1857.201 -964.271)"/></g></g></g></g></g><g transform="translate(149.762 2.3) rotate(34)"><g transform="translate(0 0)"><g transform="translate(0 0)"><path class="aq" d="M12.871,29.8a1.835,1.835,0,0,1-.737-.143C5.766,26.984,2.709,23.13,1.266,20.368A9.466,9.466,0,0,1,.195,15.975L0,3.413A1.829,1.829,0,0,1,2.412,1.65,8.92,8.92,0,0,0,5.4,2.1,12.673,12.673,0,0,0,11.431.3,1.838,1.838,0,0,1,13.4.273a12.672,12.672,0,0,0,6.08,1.611,8.924,8.924,0,0,0,2.971-.544,1.827,1.827,0,0,1,2.464,1.687l.194,12.562a9.462,9.462,0,0,1-.935,4.423c-1.358,2.806-4.294,6.752-10.577,9.62A1.826,1.826,0,0,1,12.871,29.8Z"/></g><g transform="translate(5.921 7.401)"><g transform="translate(0 0)"><path d="M4.735,11.271a1.542,1.542,0,0,1-1.056-.395L.516,8.046A1.549,1.549,0,1,1,2.582,5.738l2.1,1.884L12.21.419a1.549,1.549,0,0,1,2.12,2.259L5.771,10.851A1.545,1.545,0,0,1,4.735,11.271Z"/></g></g></g></g></svg>