<svg xmlns="http://www.w3.org/2000/svg" xmlns:xlink="http://www.w3.org/1999/xlink" width="375.076" height="246.992" viewBox="0 0 375.076 246.992"><defs><style>.a{fill:#ff527b;}.b{fill:#2e4dce;}.c{fill:#080887;}.d{fill:#ef9cac;}.e{fill:#f8b3a3;}.f{fill:#e2d8d2;}.g{fill:#ff5876;}.h{fill:#4f4085;}.i{fill:#073163;}.j{fill:#fff;}.k{fill:#e2d6cf;}.l{fill:#0c2242;}.m{clip-path:url(#a);}.n{fill:#d8074c;}.o{fill:#ffe9f0;}.p{opacity:0.12;}.q{fill:#490c1d;}.r{opacity:0.32;}.s{opacity:0.51;}.t{opacity:0.18;}.u{fill:#152a49;}.v{fill:#a80038;}.w{fill:#d80053;}.x{fill:#ea9d03;}.y{fill:#2c86f2;}.z{fill:#1b7fe2;}.aa{fill:#0b5aa8;}.ab{fill:#5a9dff;}.ac{fill:#b0caff;}.ad{fill:#72120c;}.ae{clip-path:url(#b);}.af{opacity:0.49;}.ag{fill:#5c0b07;}.ah{fill:#f49987;}.ai{fill:#c73f00;}.aj{fill:#524e53;}.ak{clip-path:url(#c);}.al{fill:#2e2d2e;}.am{clip-path:url(#d);}.an{fill:#ffdce5;}.ao{clip-path:url(#e);}.ap{fill:#d35454;}.aq{fill:#0248b7;}.ar{opacity:0.36;}.as{fill:#610c07;}.at{fill:#3378dd;}.au{fill:#85bce5;}.av{fill:#f5838d;}.aw{fill:#3289e0;}</style><clipPath id="a"><path class="a" d="M1611.869,1097.5H1516.3a9.115,9.115,0,0,0-5.814,2.084h0l-22.58,14.961a9.156,9.156,0,0,0-5.466,8.381v95.59a9.154,9.154,0,0,0,9.153,9.155h95.572a9.126,9.126,0,0,0,6.728-2.949l21.661-14.094a9.159,9.159,0,0,0,2.48-1.614h0a9.132,9.132,0,0,0,2.991-6.77v-95.591A9.154,9.154,0,0,0,1611.869,1097.5Z" transform="translate(-1482.437 -1097.502)"/></clipPath><clipPath id="b"><path class="b" d="M2622.269,801.049c-.063-1.013-4.907-3.254-12.371-.626s-29.991,28.7-54.606,23.373-26.082,32.273-4.435,38.932,60.727-9.922,70.73-21.214,11.142-17.689,11.981-26.456C2634.838,801.791,2622.269,801.049,2622.269,801.049Z" transform="translate(-2535.656 -799.191)"/></clipPath><clipPath id="c"><path class="c" d="M3110.977,1550.661l-.561,2a21.071,21.071,0,0,1-.708,4.791c-.571,1.459-10.024,19.145,0,29.021s52.4,14.817,52.4,14.817,1.015-17.038,12.688-18.857c0,0-27.09-19.943-33.814-22.443l-4.586-8.481Z" transform="translate(-3105.124 -1550.661)"/></clipPath><clipPath id="d"><path class="d" d="M2903.079,1139.779h0a48.84,48.84,0,0,0-11.5,1.105c-5.415,1.284-25.353,20.264-25.353,20.264s-.066,5.817,9.316,6.813c0,0,14.246-12.107,15.949-11.118s8.246,33.456,8.246,33.456,14.352,8.723,25.983-1.152c0,0-1.321-8.227-2.156-19.122-.085-1.117.124-.746,1.617-2.444l1.478,3.663s8.887,1.323,10.51-6.957c0,0-8.1-17.614-10.7-20.565s-12.2-3.741-17.057-3.7Z" transform="translate(-2866.226 -1139.764)"/></clipPath><clipPath id="e"><path class="e" d="M3134.716,940.59a15.743,15.743,0,0,0,.229-5.865,11.307,11.307,0,0,1-5.338-8.064c-.344-4.193-.719-9.032-.719-9.032s1.979-2.53,5.9-.536,8.331-1.616,10.6-3.2a8.286,8.286,0,0,0,3.13,4.442l1.5,1.153s-1.008,13.585-8.429,15.143l-.366,6.415A4.81,4.81,0,0,1,3134.716,940.59Z" transform="translate(-3128.889 -913.896)"/></clipPath></defs><g transform="translate(-782.385 -390.359)"><g transform="translate(746.697 448.238)"><g transform="translate(323.655 163.744)"><ellipse class="f" cx="35.042" cy="12.684" rx="35.042" ry="12.684"/></g><g transform="translate(291.022 146.117)"><ellipse class="f" cx="35.042" cy="12.684" rx="35.042" ry="12.684"/></g><g transform="translate(280.114 -57.88)"><g transform="translate(35.981)"><path class="g" d="M3259.408,642.83a5.273,5.273,0,1,1,3.131-1.032A5.273,5.273,0,0,1,3259.408,642.83Zm-.012-9.647a4.369,4.369,0,1,0,3.52,1.771A4.348,4.348,0,0,0,3259.4,633.183Z" transform="translate(-3254.122 -632.276)"/></g><g transform="translate(0 11.734)"><path class="a" d="M2952.81,731.615l-3.3,10.125,11.8-1.753Z" transform="translate(-2949.509 -731.615)"/></g><g transform="translate(19.179 2.239)"><path class="h" d="M3118.561,658.461h-.011l-6.23-.151a.454.454,0,0,1-.39-.666l3.267-6.171a.453.453,0,0,1,.4-.241h.011a.453.453,0,0,1,.4.261l2.963,6.322a.454.454,0,0,1-.411.646Zm-5.486-1.041,4.764.116-2.266-4.835Z" transform="translate(-3111.877 -651.231)"/></g><g transform="translate(49.02 13.262)"><g transform="translate(0.453 0.454)"><rect class="i" width="5.057" height="5.056" transform="matrix(0.399, -0.917, 0.917, 0.399, 0, 4.637)"/></g><path class="j" d="M3369.6,752.11a.454.454,0,0,1-.181-.038l-4.636-2.018a.454.454,0,0,1-.235-.6l2.018-4.636a.454.454,0,0,1,.6-.235l4.636,2.018a.454.454,0,0,1,.235.6l-2.018,4.637a.453.453,0,0,1-.416.273Zm-4.039-2.707,3.8,1.656,1.655-3.8-3.8-1.656Z" transform="translate(-3364.506 -744.548)"/></g></g><g transform="translate(75.67 -48.336)"><g transform="translate(-96.481 184.631)"><path class="k" d="M238.05,0C369.521,0,431.575,23.611,431.575,23.611l-.009,28.521s-85.248.1-193.449.1c-75.727,0-181.618-.013-181.618-.013V21.042S106.578,0,238.05,0Z"/></g><g transform="translate(69.044 127.07)"><path class="l" d="M1399.064,1590.808a3.264,3.264,0,0,1-.69-4.558l3.643-4.945a3.259,3.259,0,1,1,5.248,3.867l-3.643,4.945A3.263,3.263,0,0,1,1399.064,1590.808Zm6.421-8.717a1.426,1.426,0,0,0-1.992.3l-3.643,4.945a1.425,1.425,0,1,0,2.294,1.691l3.643-4.945A1.426,1.426,0,0,0,1405.485,1582.092Z" transform="translate(-1397.739 -1579.98)"/></g><g transform="translate(76.784 82.979)"><path class="a" d="M1611.869,1097.5H1516.3a9.115,9.115,0,0,0-5.814,2.084h0l-22.58,14.961a9.156,9.156,0,0,0-5.466,8.381v95.59a9.154,9.154,0,0,0,9.153,9.155h95.572a9.126,9.126,0,0,0,6.728-2.949l21.661-14.094a9.159,9.159,0,0,0,2.48-1.614h0a9.132,9.132,0,0,0,2.991-6.77v-95.591A9.154,9.154,0,0,0,1611.869,1097.5Z" transform="translate(-1482.437 -1097.502)"/><g class="m"><g transform="translate(105.986 0)"><path class="n" d="M2642.224,1120.587l33.305-23.085,4.353,129.563-34.749,7.4Z" transform="translate(-2642.224 -1097.502)"/></g></g></g><g transform="translate(76.784 99.25)"><path class="d" d="M1587.161,1389.458H1491.59a9.154,9.154,0,0,1-9.153-9.155v-95.591a9.154,9.154,0,0,1,9.153-9.155h95.572a9.154,9.154,0,0,1,9.153,9.155V1380.3A9.154,9.154,0,0,1,1587.161,1389.458Z" transform="translate(-1482.437 -1275.558)"/></g><g transform="translate(83.596 106.064)"><path class="o" d="M1649.178,1450.391h-84.137a8.059,8.059,0,0,1-8.058-8.059v-84.154a8.059,8.059,0,0,1,8.058-8.059h84.137a8.059,8.059,0,0,1,8.058,8.059v84.154A8.059,8.059,0,0,1,1649.178,1450.391Z" transform="translate(-1556.983 -1350.119)"/></g><g class="p" transform="translate(74.029 140.94)"><g transform="translate(34.622 17.268)"><path class="q" d="M1842.391,1927.6a3.113,3.113,0,0,1-4.129,1.514l-5.316-2.464a3.11,3.11,0,0,1,2.615-5.644l5.316,2.464A3.114,3.114,0,0,1,1842.391,1927.6Zm-9.37-4.343a1.361,1.361,0,0,0,.662,1.805l5.316,2.464a1.36,1.36,0,0,0,1.143-2.467l-5.316-2.464A1.36,1.36,0,0,0,1833.021,1923.255Z" transform="translate(-1831.145 -1920.717)"/></g><g transform="translate(22.481 11.189)"><path class="q" d="M1709.5,1861.165a3.112,3.112,0,0,1-4.145,1.469l-5.289-2.521a3.11,3.11,0,0,1,2.676-5.615l5.289,2.521A3.114,3.114,0,0,1,1709.5,1861.165Zm-9.323-4.444a1.361,1.361,0,0,0,.642,1.812l5.289,2.521a1.36,1.36,0,0,0,1.17-2.455l-5.289-2.521A1.361,1.361,0,0,0,1700.174,1856.72Z" transform="translate(-1698.292 -1854.195)"/></g><g transform="translate(10.552 5.896)"><path class="q" d="M1579.009,1803.15a3.113,3.113,0,0,1-4.127,1.519l-5.319-2.458a3.11,3.11,0,0,1,2.608-5.647l5.319,2.458A3.114,3.114,0,0,1,1579.009,1803.15Zm-9.375-4.333a1.361,1.361,0,0,0,.664,1.8l5.319,2.458a1.359,1.359,0,0,0,1.14-2.468l-5.319-2.458A1.361,1.361,0,0,0,1569.633,1798.817Z" transform="translate(-1567.758 -1796.277)"/></g><path class="q" d="M1463.025,1739.579a3.113,3.113,0,0,1-4.28,1.012l-4.985-3.079a3.11,3.11,0,0,1,3.268-5.292l4.985,3.079A3.114,3.114,0,0,1,1463.025,1739.579Zm-8.787-5.428a1.361,1.361,0,0,0,.442,1.871l4.985,3.079a1.359,1.359,0,0,0,1.429-2.313l-4.985-3.079A1.361,1.361,0,0,0,1454.238,1734.151Z" transform="translate(-1452.286 -1731.756)"/><g transform="translate(41.417 21.43)"><path class="q" d="M1915.2,1971.246a1.093,1.093,0,0,1-1.387.662l-7.751-3.433a1.181,1.181,0,0,1,.945-2.134l7.751,3.433A1.093,1.093,0,0,1,1915.2,1971.246Z" transform="translate(-1905.505 -1966.266)"/></g><g transform="translate(29.373 15.521)"><path class="q" d="M1783.2,1907a1.093,1.093,0,0,1-1.418.592l-7.569-3.819a1.181,1.181,0,0,1,1.051-2.084l7.569,3.819A1.093,1.093,0,0,1,1783.2,1907Z" transform="translate(-1773.706 -1901.595)"/></g><g transform="translate(17.426 10.124)"><path class="q" d="M1652.727,1847.395a1.093,1.093,0,0,1-1.377.682l-7.8-3.321a1.181,1.181,0,0,1,.914-2.148l7.8,3.321A1.093,1.093,0,0,1,1652.727,1847.395Z" transform="translate(-1642.98 -1842.539)"/></g><g transform="translate(5.601 4.582)"><path class="q" d="M1523.226,1786.989a1.093,1.093,0,0,1-1.394.645l-7.707-3.532a1.181,1.181,0,0,1,.972-2.122l7.707,3.532A1.093,1.093,0,0,1,1523.226,1786.989Z" transform="translate(-1513.58 -1781.9)"/></g></g><g class="r" transform="translate(141.095 117.181)"><g transform="translate(50.511 12.645)"><path class="q" d="M2739.986,1615.1l4.555-4.12a3.26,3.26,0,0,1,4.372,4.835l-4.555,4.12a3.26,3.26,0,0,1-4.373-4.835Zm5.785-2.759-4.555,4.12a1.425,1.425,0,0,0,1.911,2.114l4.555-4.12a1.425,1.425,0,0,0-1.911-2.114Z" transform="translate(-2738.915 -1610.138)"/></g><g transform="translate(60.373 3.673)"><path class="q" d="M2847.911,1516.917l4.555-4.12a3.26,3.26,0,0,1,4.372,4.836l-4.555,4.12a3.26,3.26,0,0,1-4.372-4.836Zm5.785-2.759-4.555,4.12a1.425,1.425,0,0,0,1.911,2.114l4.555-4.12a1.425,1.425,0,0,0-1.911-2.114Z" transform="translate(-2846.839 -1511.957)"/></g><g class="s"><g transform="translate(5.07 40.011)"><path class="q" d="M2243.467,1912.355l5.316-2.464a3.11,3.11,0,0,1,2.615,5.644l-5.316,2.464a3.11,3.11,0,0,1-2.615-5.644Zm6.052-.876-5.316,2.464a1.36,1.36,0,0,0,1.143,2.467l5.316-2.464a1.36,1.36,0,0,0-1.143-2.467Z" transform="translate(-2241.665 -1909.604)"/></g><g transform="translate(17.238 33.932)"><path class="q" d="M2376.585,1845.905l5.289-2.521a3.11,3.11,0,0,1,2.676,5.615l-5.289,2.521a3.11,3.11,0,0,1-2.676-5.615Zm6.042-.941-5.289,2.521a1.359,1.359,0,0,0,1.169,2.455l5.289-2.521a1.359,1.359,0,0,0-1.17-2.454Z" transform="translate(-2374.813 -1843.081)"/></g><g transform="translate(29.136 28.639)"><path class="q" d="M2506.826,1787.908l5.319-2.458a3.11,3.11,0,0,1,2.608,5.647l-5.319,2.458a3.11,3.11,0,0,1-2.608-5.647Zm6.053-.869-5.319,2.458a1.359,1.359,0,0,0,1.14,2.468l5.319-2.458a1.359,1.359,0,0,0-1.14-2.468Z" transform="translate(-2505.021 -1785.163)"/></g><g transform="translate(41.308 22.368)"><path class="q" d="M2639.692,1720.079l4.985-3.079a3.11,3.11,0,0,1,3.268,5.292l-4.985,3.079a3.11,3.11,0,0,1-3.268-5.292Zm5.9-1.59-4.985,3.079a1.359,1.359,0,1,0,1.428,2.313l4.985-3.079a1.359,1.359,0,1,0-1.428-2.313Z" transform="translate(-2638.218 -1716.536)"/></g><g transform="translate(0 44.174)"><path class="q" d="M2186.3,1960.133a1.093,1.093,0,0,0,1.386.662l7.751-3.433a1.181,1.181,0,0,0-.945-2.134l-7.752,3.433A1.093,1.093,0,0,0,2186.3,1960.133Z" transform="translate(-2186.185 -1955.153)"/></g><g transform="translate(12.213 38.264)"><path class="q" d="M2319.975,1895.885a1.093,1.093,0,0,0,1.418.592l7.569-3.819a1.181,1.181,0,0,0-1.051-2.084l-7.569,3.819A1.093,1.093,0,0,0,2319.975,1895.885Z" transform="translate(-2319.831 -1890.481)"/></g><g transform="translate(23.945 32.867)"><path class="q" d="M2448.324,1836.281a1.093,1.093,0,0,0,1.377.682l7.8-3.321a1.181,1.181,0,0,0-.914-2.148l-7.8,3.321A1.093,1.093,0,0,0,2448.324,1836.281Z" transform="translate(-2448.217 -1831.425)"/></g><g transform="translate(35.857 27.326)"><path class="q" d="M2578.682,1775.875a1.093,1.093,0,0,0,1.395.645l7.707-3.532a1.181,1.181,0,0,0-.972-2.122l-7.707,3.532A1.093,1.093,0,0,0,2578.682,1775.875Z" transform="translate(-2578.56 -1770.787)"/></g><g transform="translate(47.931 18.245)"><path class="q" d="M2711.15,1679.8a1.093,1.093,0,0,0,1.536-.029l5.395-6.541a1.181,1.181,0,0,0-1.8-1.485l-5.395,6.541A1.093,1.093,0,0,0,2711.15,1679.8Z" transform="translate(-2710.684 -1671.417)"/></g><g transform="translate(57.134 9.127)"><path class="q" d="M2811.747,1579.207a1.093,1.093,0,0,0,1.527.171l6.2-5.786a1.181,1.181,0,0,0-1.593-1.706l-6.2,5.786A1.093,1.093,0,0,0,2811.747,1579.207Z" transform="translate(-2811.397 -1571.646)"/></g><g transform="translate(67.073)"><path class="q" d="M2920.506,1479.328a1.092,1.092,0,0,0,1.527.171l6.2-5.786a1.181,1.181,0,0,0-1.592-1.706l-6.2,5.786A1.093,1.093,0,0,0,2920.506,1479.328Z" transform="translate(-2920.156 -1471.767)"/></g></g></g><g class="t" transform="translate(121.032 154.432)"><path class="q" d="M1991.064,1894.557h-.742c0-.122.007-.244.007-.368v-4.581a10.207,10.207,0,0,0-10.207-10.208h0a10.207,10.207,0,0,0-10.206,10.208v4.581c0,.123,0,.246.007.368h-.742a2.545,2.545,0,0,0-2.545,2.545v15.836a2.545,2.545,0,0,0,2.545,2.545h21.883a2.545,2.545,0,0,0,2.545-2.545V1897.1A2.545,2.545,0,0,0,1991.064,1894.557Zm-4.128-.471c0,.159-.007.315-.018.471h-13.591c-.011-.156-.018-.312-.018-.471v-4.374a6.815,6.815,0,0,1,6.814-6.815h0a6.815,6.815,0,0,1,6.814,6.815Z" transform="translate(-1966.636 -1879.4)"/></g><g transform="translate(117.859 114.861)"><rect class="a" width="30.045" height="7.627" rx="3.814"/></g><g transform="translate(119.307 154.009)"><g transform="translate(3.28)"><path class="u" d="M1993.859,1874.778h0a10.208,10.208,0,0,0-10.207,10.208v4.581a10.208,10.208,0,0,0,10.207,10.208h0a10.208,10.208,0,0,0,10.207-10.208v-4.581A10.208,10.208,0,0,0,1993.859,1874.778Zm6.814,14.686a6.814,6.814,0,0,1-6.814,6.815h0a6.814,6.814,0,0,1-6.814-6.815v-4.374a6.814,6.814,0,0,1,6.814-6.815h0a6.815,6.815,0,0,1,6.814,6.815Z" transform="translate(-1983.653 -1874.778)"/></g><g transform="translate(0 15.157)"><path class="d" d="M1972.192,2061.568h-21.883a2.545,2.545,0,0,1-2.544-2.545v-15.836a2.545,2.545,0,0,1,2.544-2.545h21.883a2.545,2.545,0,0,1,2.545,2.545v15.836A2.545,2.545,0,0,1,1972.192,2061.568Z" transform="translate(-1947.764 -2040.642)"/></g><g transform="translate(9.952 19.363)"><ellipse class="v" cx="3.534" cy="3.535" rx="3.534" ry="3.535"/></g><g transform="translate(11.818 24.15)"><rect class="v" width="3.393" height="7.635" rx="1.696"/></g></g><g transform="translate(71.417 133.444)"><g transform="translate(38.925 21.766)"><path class="l" d="M1860.9,1894.8a3.113,3.113,0,0,1-4.129,1.514l-5.316-2.464a3.11,3.11,0,0,1,2.615-5.644l5.316,2.464A3.114,3.114,0,0,1,1860.9,1894.8Zm-9.37-4.343a1.361,1.361,0,0,0,.662,1.805l5.316,2.464a1.36,1.36,0,0,0,1.143-2.467l-5.316-2.464A1.361,1.361,0,0,0,1851.534,1890.453Z" transform="translate(-1849.658 -1887.915)"/></g><g transform="translate(26.784 15.687)"><path class="l" d="M1728.011,1828.363a3.113,3.113,0,0,1-4.145,1.469l-5.289-2.521a3.11,3.11,0,0,1,2.676-5.615l5.289,2.521A3.114,3.114,0,0,1,1728.011,1828.363Zm-9.323-4.444a1.361,1.361,0,0,0,.642,1.812l5.289,2.521a1.36,1.36,0,0,0,1.17-2.455l-5.289-2.521A1.361,1.361,0,0,0,1718.688,1823.918Z" transform="translate(-1716.805 -1821.393)"/></g><g transform="translate(14.856 10.395)"><path class="l" d="M1597.522,1770.347a3.113,3.113,0,0,1-4.127,1.519l-5.319-2.458a3.11,3.11,0,0,1,2.608-5.647l5.319,2.458A3.114,3.114,0,0,1,1597.522,1770.347Zm-9.376-4.333a1.361,1.361,0,0,0,.664,1.8l5.319,2.458a1.359,1.359,0,0,0,1.14-2.468l-5.319-2.458A1.361,1.361,0,0,0,1588.147,1766.014Z" transform="translate(-1586.271 -1763.475)"/></g><g transform="translate(3.019 4.123)"><path class="l" d="M1467.48,1702.671a3.113,3.113,0,0,1-4.279,1.012l-4.985-3.079a3.11,3.11,0,0,1,3.268-5.292l4.985,3.08A3.114,3.114,0,0,1,1467.48,1702.671Zm-8.787-5.428a1.361,1.361,0,0,0,.442,1.871l4.985,3.079a1.359,1.359,0,0,0,1.429-2.313l-4.985-3.08A1.361,1.361,0,0,0,1458.693,1697.242Z" transform="translate(-1456.741 -1694.847)"/></g><g transform="translate(45.72 25.929)"><path class="l" d="M1933.713,1938.444a1.093,1.093,0,0,1-1.386.662l-7.752-3.433a1.181,1.181,0,0,1,.945-2.134l7.752,3.433A1.094,1.094,0,0,1,1933.713,1938.444Z" transform="translate(-1924.019 -1933.464)"/></g><g transform="translate(33.676 20.019)"><path class="l" d="M1801.717,1874.2a1.093,1.093,0,0,1-1.418.592l-7.569-3.819a1.181,1.181,0,0,1,1.051-2.084l7.569,3.818A1.093,1.093,0,0,1,1801.717,1874.2Z" transform="translate(-1792.22 -1868.793)"/></g><g transform="translate(21.73 14.622)"><path class="l" d="M1671.24,1814.593a1.093,1.093,0,0,1-1.377.682l-7.8-3.321a1.181,1.181,0,0,1,.914-2.148l7.8,3.321A1.093,1.093,0,0,1,1671.24,1814.593Z" transform="translate(-1661.494 -1809.737)"/></g><g transform="translate(9.905 9.081)"><path class="l" d="M1541.739,1754.186a1.093,1.093,0,0,1-1.395.644l-7.707-3.532a1.181,1.181,0,0,1,.972-2.122l7.707,3.532A1.093,1.093,0,0,1,1541.739,1754.186Z" transform="translate(-1532.093 -1749.098)"/></g><path class="l" d="M1430.842,1658.111a1.092,1.092,0,0,1-1.536-.029l-5.395-6.541a1.181,1.181,0,0,1,1.8-1.485l5.394,6.541A1.093,1.093,0,0,1,1430.842,1658.111Z" transform="translate(-1423.709 -1649.728)"/></g><g transform="translate(209.358 109.276)"><path class="l" d="M2934.249,1390.231l4.555-4.12a3.26,3.26,0,0,1,4.372,4.836l-4.555,4.12a3.26,3.26,0,0,1-4.372-4.836Zm5.785-2.759-4.555,4.12a1.425,1.425,0,0,0,1.911,2.114l4.555-4.12a1.425,1.425,0,0,0-1.911-2.114Z" transform="translate(-2933.177 -1385.271)"/></g><g transform="translate(138.77 115.199)"><g transform="translate(5.07 40.011)"><path class="l" d="M2218.022,1890.667l5.316-2.464a3.11,3.11,0,0,1,2.615,5.644l-5.316,2.464a3.11,3.11,0,0,1-2.615-5.644Zm6.052-.876-5.316,2.464a1.36,1.36,0,0,0,1.143,2.467l5.316-2.464a1.359,1.359,0,0,0-1.143-2.467Z" transform="translate(-2216.22 -1887.915)"/></g><g transform="translate(17.238 33.932)"><path class="l" d="M2351.141,1824.217l5.289-2.521a3.11,3.11,0,0,1,2.676,5.615l-5.289,2.521a3.11,3.11,0,0,1-2.676-5.615Zm6.042-.941-5.289,2.521a1.36,1.36,0,0,0,1.17,2.455l5.289-2.521a1.36,1.36,0,0,0-1.17-2.455Z" transform="translate(-2349.369 -1821.393)"/></g><g transform="translate(29.136 28.639)"><path class="l" d="M2481.381,1766.219l5.319-2.458a3.11,3.11,0,0,1,2.608,5.647l-5.319,2.458a3.11,3.11,0,0,1-2.608-5.647Zm6.053-.869-5.319,2.458a1.359,1.359,0,0,0,1.14,2.468l5.319-2.458a1.36,1.36,0,0,0-1.14-2.469Z" transform="translate(-2479.576 -1763.475)"/></g><g transform="translate(41.308 22.368)"><path class="l" d="M2614.248,1698.39l4.985-3.08a3.11,3.11,0,0,1,3.268,5.292l-4.985,3.079a3.11,3.11,0,0,1-3.268-5.292Zm5.9-1.59-4.985,3.08a1.359,1.359,0,0,0,1.428,2.313l4.985-3.079a1.359,1.359,0,0,0-1.428-2.313Z" transform="translate(-2612.773 -1694.847)"/></g><g transform="translate(0 44.174)"><path class="l" d="M2160.855,1938.444a1.093,1.093,0,0,0,1.386.662l7.751-3.433a1.181,1.181,0,0,0-.945-2.134l-7.751,3.433A1.094,1.094,0,0,0,2160.855,1938.444Z" transform="translate(-2160.74 -1933.464)"/></g><g transform="translate(12.213 38.264)"><path class="l" d="M2294.531,1874.2a1.093,1.093,0,0,0,1.418.592l7.569-3.819a1.181,1.181,0,0,0-1.051-2.084l-7.569,3.818A1.093,1.093,0,0,0,2294.531,1874.2Z" transform="translate(-2294.387 -1868.793)"/></g><g transform="translate(23.945 32.867)"><path class="l" d="M2422.88,1814.593a1.093,1.093,0,0,0,1.377.682l7.8-3.321a1.181,1.181,0,0,0-.914-2.148l-7.8,3.321A1.093,1.093,0,0,0,2422.88,1814.593Z" transform="translate(-2422.773 -1809.737)"/></g><g transform="translate(35.857 27.325)"><path class="l" d="M2553.238,1754.186a1.093,1.093,0,0,0,1.395.644l7.707-3.532a1.181,1.181,0,0,0-.972-2.122l-7.707,3.532A1.093,1.093,0,0,0,2553.238,1754.186Z" transform="translate(-2553.115 -1749.098)"/></g><g transform="translate(47.931 18.245)"><path class="l" d="M2685.707,1658.111a1.092,1.092,0,0,0,1.536-.029l5.395-6.541a1.181,1.181,0,0,0-1.8-1.485l-5.395,6.541A1.093,1.093,0,0,0,2685.707,1658.111Z" transform="translate(-2685.24 -1649.728)"/></g><g transform="translate(57.134 9.127)"><path class="l" d="M2786.3,1557.518a1.093,1.093,0,0,0,1.527.171l6.2-5.786a1.181,1.181,0,0,0-1.592-1.706l-6.2,5.786A1.093,1.093,0,0,0,2786.3,1557.518Z" transform="translate(-2785.952 -1549.957)"/></g><g transform="translate(67.073)"><path class="l" d="M2895.062,1457.64a1.093,1.093,0,0,0,1.527.171l6.2-5.786a1.181,1.181,0,0,0-1.593-1.706l-6.2,5.786A1.094,1.094,0,0,0,2895.062,1457.64Z" transform="translate(-2894.712 -1450.079)"/></g></g><g transform="translate(189.663 127.334)"><path class="l" d="M2718.723,1587.837l4.555-4.12a3.26,3.26,0,1,1,4.372,4.836l-4.554,4.12a3.26,3.26,0,0,1-4.373-4.836Zm5.785-2.759-4.555,4.12a1.425,1.425,0,0,0,1.911,2.114l4.555-4.12a1.425,1.425,0,0,0-1.911-2.114Z" transform="translate(-2717.651 -1582.876)"/></g><g transform="translate(199.525 118.362)"><path class="l" d="M2826.648,1489.656l4.555-4.12a3.26,3.26,0,0,1,4.373,4.836l-4.555,4.12a3.26,3.26,0,0,1-4.372-4.836Zm5.785-2.759-4.555,4.12a1.425,1.425,0,1,0,1.911,2.114l4.555-4.12a1.425,1.425,0,0,0-1.911-2.114Z" transform="translate(-2825.576 -1484.695)"/></g><g transform="translate(121.694 128.703)"><ellipse class="a" cx="10.227" cy="10.229" rx="10.227" ry="10.229"/><g transform="translate(1.812 1.812)"><ellipse class="j" cx="8.415" cy="8.417" rx="8.415" ry="8.417"/></g><g transform="translate(14.904 7.494)"><path class="a" d="M2136.973,1679.867h2.353l-1.805,1.52Z" transform="translate(-2136.973 -1679.867)"/></g><g transform="translate(4.375 4.376)"><ellipse class="w" cx="5.852" cy="5.854" rx="5.852" ry="5.854"/></g></g></g><g transform="translate(287.229 78.669)"><g transform="translate(0 41.98)"><g transform="translate(10.426 4.026)"><path class="x" d="M3098.014,2186.658c0-4.9,10.3-8.879,23-8.879s23,3.976,23,8.879a3.38,3.38,0,0,1-.029.453v0c-.618,4.69-10.665,8.422-22.969,8.422s-22.336-3.726-22.966-8.412A3.646,3.646,0,0,1,3098.014,2186.658Z" transform="translate(-3098.014 -2177.779)"/></g><g transform="translate(0.046 14.164)"><path class="y" d="M3043.556,2284.52c-18.388,0-33.309-5.733-33.421-12.823,0-.027.079-5.852.079-5.879,0-.538-.021-1.412.032-2.213,1.966,6.741,16.2,11.647,33.266,11.647s31.147-4.938,33.177-11.316a5.265,5.265,0,0,1,.25,1.589c0,.324.011,6.733-.049,7.051C3075.62,2279.255,3061.18,2284.52,3043.556,2284.52Z" transform="translate(-3010.135 -2263.605)"/></g><g transform="translate(10.426 4.026)"><path class="x" d="M3121.011,2195.538c-12.3,0-22.336-3.726-22.966-8.412a3.646,3.646,0,0,1-.031-.467c0-4.9,10.3-8.879,23-8.879s23,3.976,23,8.879a3.38,3.38,0,0,1-.029.453v0C3143.362,2191.806,3133.315,2195.538,3121.011,2195.538Z" transform="translate(-3098.014 -2177.779)"/></g><g transform="translate(10.426 4.026)"><path class="z" d="M3121.011,2195.538c-12.3,0-22.336-3.726-22.966-8.412a3.646,3.646,0,0,1-.031-.467c0-4.9,10.3-8.879,23-8.879s23,3.976,23,8.879a3.38,3.38,0,0,1-.029.453v0C3143.362,2191.806,3133.315,2195.538,3121.011,2195.538Z" transform="translate(-3098.014 -2177.779)"/></g><path class="aa" d="M3076.344,2158.189c.032-.1.058-.2.083-.295s.049-.2.069-.295v-.006c.02-.1.037-.209.052-.314,0-.007,0-.015,0-.022.011-.085.02-.17.026-.255,0-.03.006-.06.006-.091.009-.1.011-.209.011-.312,0-7.128-14.967-12.905-33.427-12.905s-33.424,5.777-33.424,12.905c0,.1,0,.208.011.312,0,.03,0,.06.006.091.006.085.014.169.026.255a.059.059,0,0,0,0,.022c.014.1.032.209.052.314v.006c.02.1.043.2.069.295s.052.2.083.295c2.03,6.378,16.108,11.316,33.174,11.316S3074.314,2164.568,3076.344,2158.189Zm-56.174-1.589c0-4.9,10.3-8.879,23-8.879s23,3.976,23,8.879a3.377,3.377,0,0,1-.029.453v0c-.618,4.69-10.665,8.422-22.969,8.422s-22.336-3.726-22.966-8.412A3.692,3.692,0,0,1,3020.17,2156.6Z" transform="translate(-3009.744 -2143.695)"/><g transform="translate(10.457 6.885)"><path class="ab" d="M3121.236,2216.88c-12.3,0-22.336-3.726-22.966-8.412.371-2.129,10.652-6.488,22.968-6.488s22.241,3.758,22.967,6.473v0C3143.587,2213.148,3133.54,2216.88,3121.236,2216.88Z" transform="translate(-3098.27 -2201.98)"/></g></g><g transform="translate(0 31.296)"><g transform="translate(10.426 4.026)"><path class="x" d="M3098.014,2096.2c0-4.9,10.3-8.879,23-8.879s23,3.976,23,8.879a3.381,3.381,0,0,1-.029.453v0c-.618,4.69-10.665,8.422-22.969,8.422s-22.336-3.725-22.966-8.412A3.644,3.644,0,0,1,3098.014,2096.2Z" transform="translate(-3098.014 -2087.323)"/></g><g transform="translate(0.046 14.164)"><path class="y" d="M3043.556,2194.064c-18.388,0-33.309-5.733-33.421-12.823,0-.027.079-5.852.079-5.879,0-.538-.021-1.412.032-2.213,1.966,6.741,16.2,11.647,33.266,11.647s31.147-4.938,33.177-11.316a5.265,5.265,0,0,1,.25,1.589c0,.323.011,6.733-.049,7.051C3075.62,2188.8,3061.18,2194.064,3043.556,2194.064Z" transform="translate(-3010.135 -2173.149)"/></g><g transform="translate(10.426 4.026)"><path class="x" d="M3121.011,2105.082c-12.3,0-22.336-3.725-22.966-8.412a3.644,3.644,0,0,1-.031-.468c0-4.9,10.3-8.879,23-8.879s23,3.976,23,8.879a3.381,3.381,0,0,1-.029.453v0C3143.362,2101.35,3133.315,2105.082,3121.011,2105.082Z" transform="translate(-3098.014 -2087.323)"/></g><g transform="translate(10.426 4.026)"><path class="z" d="M3121.011,2105.082c-12.3,0-22.336-3.725-22.966-8.412a3.644,3.644,0,0,1-.031-.468c0-4.9,10.3-8.879,23-8.879s23,3.976,23,8.879a3.381,3.381,0,0,1-.029.453v0C3143.362,2101.35,3133.315,2105.082,3121.011,2105.082Z" transform="translate(-3098.014 -2087.323)"/></g><path class="aa" d="M3076.344,2067.733c.032-.1.058-.2.083-.295s.049-.2.069-.295v-.005c.02-.105.037-.209.052-.314,0-.007,0-.016,0-.022.011-.085.02-.17.026-.255,0-.031.006-.06.006-.091.009-.1.011-.209.011-.312,0-7.128-14.967-12.906-33.427-12.906s-33.424,5.777-33.424,12.906c0,.1,0,.208.011.312,0,.03,0,.06.006.091.006.085.014.169.026.255a.059.059,0,0,0,0,.022c.014.1.032.209.052.314v.005c.02.1.043.2.069.295s.052.2.083.295c2.03,6.378,16.108,11.316,33.174,11.316S3074.314,2074.112,3076.344,2067.733Zm-56.174-1.589c0-4.9,10.3-8.879,23-8.879s23,3.976,23,8.879a3.379,3.379,0,0,1-.029.453v0c-.618,4.69-10.665,8.422-22.969,8.422s-22.336-3.725-22.966-8.412A3.691,3.691,0,0,1,3020.17,2066.145Z" transform="translate(-3009.744 -2053.239)"/><g transform="translate(10.457 6.885)"><path class="ab" d="M3121.236,2126.424c-12.3,0-22.336-3.726-22.966-8.412.371-2.129,10.652-6.488,22.968-6.488s22.241,3.758,22.967,6.474v0C3143.587,2122.692,3133.54,2126.424,3121.236,2126.424Z" transform="translate(-3098.27 -2111.524)"/></g></g><g transform="translate(0 20.759)"><g transform="translate(10.426 4.026)"><path class="x" d="M3098.014,2007c0-4.9,10.3-8.879,23-8.879s23,3.976,23,8.879a3.374,3.374,0,0,1-.029.453v0c-.618,4.69-10.665,8.422-22.969,8.422s-22.336-3.725-22.966-8.412A3.646,3.646,0,0,1,3098.014,2007Z" transform="translate(-3098.014 -1998.122)"/></g><g transform="translate(0.046 14.164)"><path class="y" d="M3043.556,2104.864c-18.388,0-33.309-5.733-33.421-12.823,0-.027.079-5.852.079-5.879,0-.538-.021-1.412.032-2.213,1.966,6.741,16.2,11.647,33.266,11.647s31.147-4.937,33.177-11.316a5.264,5.264,0,0,1,.25,1.589c0,.324.011,6.733-.049,7.051C3075.62,2099.6,3061.18,2104.864,3043.556,2104.864Z" transform="translate(-3010.135 -2083.949)"/></g><g transform="translate(10.426 4.026)"><path class="x" d="M3121.011,2015.881c-12.3,0-22.336-3.725-22.966-8.412a3.646,3.646,0,0,1-.031-.467c0-4.9,10.3-8.879,23-8.879s23,3.976,23,8.879a3.374,3.374,0,0,1-.029.453v0C3143.362,2012.149,3133.315,2015.881,3121.011,2015.881Z" transform="translate(-3098.014 -1998.122)"/></g><g transform="translate(10.426 4.026)"><path class="z" d="M3121.011,2015.881c-12.3,0-22.336-3.725-22.966-8.412a3.646,3.646,0,0,1-.031-.467c0-4.9,10.3-8.879,23-8.879s23,3.976,23,8.879a3.374,3.374,0,0,1-.029.453v0C3143.362,2012.149,3133.315,2015.881,3121.011,2015.881Z" transform="translate(-3098.014 -1998.122)"/></g><path class="aa" d="M3076.344,1978.533c.032-.1.058-.2.083-.295s.049-.2.069-.295v-.005c.02-.1.037-.209.052-.314,0-.007,0-.016,0-.023.011-.085.02-.169.026-.254,0-.031.006-.06.006-.091.009-.1.011-.209.011-.312,0-7.128-14.967-12.905-33.427-12.905s-33.424,5.777-33.424,12.905c0,.1,0,.208.011.312,0,.031,0,.06.006.091.006.085.014.169.026.254a.061.061,0,0,0,0,.023c.014.1.032.209.052.314v.005c.02.1.043.2.069.295s.052.2.083.295c2.03,6.379,16.108,11.316,33.174,11.316S3074.314,1984.912,3076.344,1978.533Zm-56.174-1.589c0-4.9,10.3-8.879,23-8.879s23,3.976,23,8.879a3.374,3.374,0,0,1-.029.453v0c-.618,4.69-10.665,8.422-22.969,8.422s-22.336-3.726-22.966-8.412A3.688,3.688,0,0,1,3020.17,1976.944Z" transform="translate(-3009.744 -1964.039)"/><g transform="translate(10.457 6.885)"><path class="ab" d="M3121.236,2037.224c-12.3,0-22.336-3.725-22.966-8.412.371-2.129,10.652-6.488,22.968-6.488s22.241,3.758,22.967,6.474v0C3143.587,2033.492,3133.54,2037.224,3121.236,2037.224Z" transform="translate(-3098.27 -2022.324)"/></g></g><g transform="translate(0 10.51)"><g transform="translate(10.426 4.026)"><path class="x" d="M3098.014,1920.23c0-4.9,10.3-8.879,23-8.879s23,3.976,23,8.879a3.375,3.375,0,0,1-.029.453v0c-.618,4.69-10.665,8.422-22.969,8.422s-22.336-3.726-22.966-8.412A3.64,3.64,0,0,1,3098.014,1920.23Z" transform="translate(-3098.014 -1911.351)"/></g><g transform="translate(0.046 14.164)"><path class="y" d="M3043.556,2018.092c-18.388,0-33.309-5.733-33.421-12.823,0-.027.079-5.852.079-5.879,0-.538-.021-1.412.032-2.213,1.966,6.741,16.2,11.647,33.266,11.647s31.147-4.938,33.177-11.316a5.266,5.266,0,0,1,.25,1.589c0,.324.011,6.733-.049,7.051C3075.62,2012.827,3061.18,2018.092,3043.556,2018.092Z" transform="translate(-3010.135 -1997.177)"/></g><g transform="translate(10.426 4.026)"><path class="x" d="M3121.011,1929.11c-12.3,0-22.336-3.726-22.966-8.412a3.64,3.64,0,0,1-.031-.467c0-4.9,10.3-8.879,23-8.879s23,3.976,23,8.879a3.375,3.375,0,0,1-.029.453v0C3143.362,1925.378,3133.315,1929.11,3121.011,1929.11Z" transform="translate(-3098.014 -1911.351)"/></g><g transform="translate(10.426 4.026)"><path class="z" d="M3121.011,1929.11c-12.3,0-22.336-3.726-22.966-8.412a3.64,3.64,0,0,1-.031-.467c0-4.9,10.3-8.879,23-8.879s23,3.976,23,8.879a3.375,3.375,0,0,1-.029.453v0C3143.362,1925.378,3133.315,1929.11,3121.011,1929.11Z" transform="translate(-3098.014 -1911.351)"/></g><path class="aa" d="M3076.344,1891.761c.032-.1.058-.2.083-.295s.049-.2.069-.295v-.006c.02-.1.037-.209.052-.314,0-.007,0-.016,0-.023.011-.085.02-.169.026-.254,0-.031.006-.06.006-.091.009-.1.011-.209.011-.312,0-7.128-14.967-12.905-33.427-12.905s-33.424,5.777-33.424,12.905c0,.1,0,.208.011.312,0,.031,0,.06.006.091.006.085.014.169.026.254a.061.061,0,0,0,0,.023c.014.1.032.209.052.314v.006c.02.1.043.2.069.295s.052.2.083.295c2.03,6.379,16.108,11.316,33.174,11.316S3074.314,1898.14,3076.344,1891.761Zm-56.174-1.589c0-4.9,10.3-8.879,23-8.879s23,3.976,23,8.879a3.374,3.374,0,0,1-.029.453v0c-.618,4.69-10.665,8.422-22.969,8.422s-22.336-3.726-22.966-8.412A3.688,3.688,0,0,1,3020.17,1890.172Z" transform="translate(-3009.744 -1877.267)"/><g transform="translate(10.457 6.885)"><path class="ab" d="M3121.236,1950.452c-12.3,0-22.336-3.725-22.966-8.412.371-2.129,10.652-6.488,22.968-6.488s22.241,3.758,22.967,6.474v0C3143.587,1946.72,3133.54,1950.452,3121.236,1950.452Z" transform="translate(-3098.27 -1935.552)"/></g></g><g transform="translate(10.426 4.026)"><path class="x" d="M3098.014,1831.253c0-4.9,10.3-8.879,23-8.879s23,3.976,23,8.879a3.38,3.38,0,0,1-.029.453v0c-.618,4.69-10.665,8.422-22.969,8.422s-22.336-3.726-22.966-8.412A3.65,3.65,0,0,1,3098.014,1831.253Z" transform="translate(-3098.014 -1822.374)"/></g><g transform="translate(0.046 14.164)"><path class="y" d="M3043.556,1929.115c-18.388,0-33.309-5.733-33.421-12.823,0-.027.079-5.852.079-5.879,0-.538-.021-1.412.032-2.213,1.966,6.741,16.2,11.647,33.266,11.647s31.147-4.938,33.177-11.316a5.267,5.267,0,0,1,.25,1.589c0,.324.011,6.733-.049,7.051C3075.62,1923.85,3061.18,1929.115,3043.556,1929.115Z" transform="translate(-3010.135 -1908.2)"/></g><g transform="translate(10.426 4.026)"><path class="x" d="M3121.011,1840.133c-12.3,0-22.336-3.726-22.966-8.412a3.65,3.65,0,0,1-.031-.468c0-4.9,10.3-8.879,23-8.879s23,3.976,23,8.879a3.38,3.38,0,0,1-.029.453v0C3143.362,1836.4,3133.315,1840.133,3121.011,1840.133Z" transform="translate(-3098.014 -1822.374)"/></g><g transform="translate(10.426 4.026)"><path class="z" d="M3121.011,1840.133c-12.3,0-22.336-3.726-22.966-8.412a3.65,3.65,0,0,1-.031-.468c0-4.9,10.3-8.879,23-8.879s23,3.976,23,8.879a3.38,3.38,0,0,1-.029.453v0C3143.362,1836.4,3133.315,1840.133,3121.011,1840.133Z" transform="translate(-3098.014 -1822.374)"/></g><path class="ac" d="M3076.344,1802.785c.032-.1.058-.2.083-.295s.049-.2.069-.295v-.006c.02-.1.037-.209.052-.314,0-.007,0-.016,0-.023.011-.085.02-.169.026-.254,0-.03.006-.06.006-.091.009-.1.011-.209.011-.312,0-7.128-14.967-12.905-33.427-12.905s-33.424,5.777-33.424,12.905c0,.1,0,.208.011.312,0,.031,0,.06.006.091.006.085.014.169.026.254a.061.061,0,0,0,0,.023c.014.1.032.209.052.314v.006c.02.1.043.2.069.295s.052.2.083.295c2.03,6.378,16.108,11.316,33.174,11.316S3074.314,1809.164,3076.344,1802.785Zm-56.174-1.589c0-4.9,10.3-8.879,23-8.879s23,3.976,23,8.879a3.377,3.377,0,0,1-.029.453v0c-.618,4.69-10.665,8.422-22.969,8.422s-22.336-3.726-22.966-8.412A3.692,3.692,0,0,1,3020.17,1801.2Z" transform="translate(-3009.744 -1788.291)"/><g transform="translate(10.457 6.885)"><path class="ab" d="M3121.236,1861.476c-12.3,0-22.336-3.725-22.966-8.412.371-2.129,10.652-6.488,22.968-6.488s22.241,3.758,22.967,6.474v0C3143.587,1857.744,3133.54,1861.476,3121.236,1861.476Z" transform="translate(-3098.27 -1846.576)"/></g></g><g transform="translate(231.229 -38.164)"><g transform="translate(100.345 65.092)"><path class="e" d="M3392.01,1350.722s2.453,6.5,4.342,6.322,11.494-4.695,17.724-5.811,12.592-2.155,16.2,2.172,3.439,12.475-1.753,10.473-7.442-8.377-7.442-8.377-23.778,11.113-27.076,11.173-8.836-11.393-8.836-11.393Z" transform="translate(-3385.173 -1350.255)"/></g><g transform="translate(138.01 69.215)"><path class="e" d="M3712.789,1387.235l.61.49a2.687,2.687,0,0,1-2.269,3.126c-2.725.539-6.412-.31-7.088-5.062l2.363-.63Z" transform="translate(-3704.042 -1385.158)"/></g><path class="ad" d="M2622.269,801.049c-.063-1.013-4.907-3.254-12.371-.626s-29.991,28.7-54.606,23.373-26.082,32.273-4.435,38.932,60.727-9.922,70.73-21.214,11.142-17.689,11.981-26.456C2634.838,801.791,2622.269,801.049,2622.269,801.049Z" transform="translate(-2535.656 -799.191)"/><g class="ae"><g class="af" transform="translate(-1.738 7.659)"><path class="ag" d="M2520.945,908.356s16.615,7.077,39.46,0,32.351-34.7,32.351-34.7.3-3.424,6.821-2.789,9.81-4.493,9.549-6.834c0,0,2.106,7.469,5.97,9.2s2.558,10.34.865,14.31-8.681,15.233-8.681,15.233l-33.663,33s-32.71-5.072-33.23-5.072S2520.945,908.356,2520.945,908.356Z" transform="translate(-2520.945 -864.036)"/></g></g><g transform="translate(97.989 119.698)"><g transform="translate(6.09)"><path class="ah" d="M3424.522,1884.031c1.523-9.515,23.347-36.806,30.579-50.127s-5.456-20.521-5.456-20.521l-2.887-.836-15.321,9.691,11.039,8.012c-3.331,1.9-14.465,19.512-18.081,30.363l-7.613,22.844s.71,3.22,7.647,3.181A10.522,10.522,0,0,1,3424.522,1884.031Z" transform="translate(-3416.782 -1812.547)"/></g><g transform="translate(0 70.91)"><path class="ai" d="M3371.311,2412.871c-4.567,2.189-6.09,11.422-6.09,11.422l3.045,2.094,2.188-3.046s.1,1.523,2.189,5.33,12.847,8.852,14.845,4.474c1.809-3.964-7.819-9.1-8.53-17.093C3372.022,2416.091,3371.311,2412.871,3371.311,2412.871Z" transform="translate(-3365.221 -2412.871)"/></g></g><g transform="translate(113.552 121.708)"><path class="e" d="M3516.79,1904.218c-2.636-9.269,5.63-43.224,6.564-58.353s-13.607-16.3-13.607-16.3l-2.97.461-9.8,15.255,13.389,2.6c-2.216,3.132-4.877,23.8-3.576,35.159l2.74,23.923s2,2.619,8.275-.346A10.527,10.527,0,0,1,3516.79,1904.218Z" transform="translate(-3496.978 -1829.566)"/><g transform="translate(10.916 77.054)"><path class="ai" d="M3591.027,2482.25c-3.217,3.913-.7,12.926-.7,12.926l3.644.612.7-3.685s.729,1.341,4.234,3.908,15.382,2.6,15.346-2.212c-.033-4.357-10.927-4.946-14.947-11.894C3593.03,2484.869,3591.027,2482.25,3591.027,2482.25Z" transform="translate(-3589.39 -2481.904)"/></g></g><g transform="translate(67.266 88.764)"><path class="aj" d="M3110.977,1550.661l-.561,2a21.071,21.071,0,0,1-.708,4.791c-.571,1.459-10.024,19.145,0,29.021,3.819,3.763,21.6,9.186,21.6,9.186l30.805,5.631s1.015-17.038,12.688-18.857c0,0-27.09-19.943-33.814-22.443l-4.586-8.481Z" transform="translate(-3105.124 -1550.661)"/><g class="ak"><g transform="translate(-8.511 -2.007)"><path class="al" d="M3062.284,1539.171s-14.321,11.558-7.333,19.521,48.352,16.992,48.352,16.992l-2.228,13.687-25.8-1.719-35.314-16.2-6.89-26.741,9.094-11.037Z" transform="translate(-3033.068 -1533.67)"/></g></g></g><g transform="translate(39.047 40.229)"><path class="j" d="M2903.079,1139.779h0a48.84,48.84,0,0,0-11.5,1.105c-5.415,1.284-25.353,20.264-25.353,20.264s-.066,5.817,9.316,6.813c0,0,14.246-12.107,15.949-11.118s8.246,33.456,8.246,33.456,14.352,8.723,25.983-1.152c0,0-1.321-8.227-2.156-19.122-.085-1.117.124-.746,1.617-2.444l1.478,3.663s8.887,1.323,10.51-6.957c0,0-8.1-17.614-10.7-20.565s-12.2-3.741-17.057-3.7Z" transform="translate(-2866.226 -1139.764)"/><g class="am"><g transform="translate(-5.594 -1.137)"><path class="an" d="M2842.882,1130.138s-18.246,23.54-11.238,31.229l-12.774-9.062,18.681-18.145Z" transform="translate(-2818.87 -1130.138)"/></g><g transform="translate(19.881 15.856)"><path class="d" d="M3039.23,1275.622l.029-1.612s3.277-.553,5.508,6.842,4.982,8.915,11.913,5.684,7.115,2.328,1.7,8.67,17.574,18.618,17.378,18.582-28.836,5.228-28.809,4.969-12.407-15.971-12.407-15.971Z" transform="translate(-3034.539 -1274.001)"/></g><g transform="translate(57.116 11.252)"><path class="an" d="M3351.35,1252.762l.253-1.178a11.854,11.854,0,0,0,1.91-5.169c.318-2.972-2.827-7.7-3.75-11.4l7.1,15.348s3.692,3.867,3,4.848-7.154,1.962-7.154,1.962Z" transform="translate(-3349.764 -1235.019)"/></g></g></g><g transform="translate(70.073 13.549)"><path class="e" d="M3134.716,940.59a15.743,15.743,0,0,0,.229-5.865,11.307,11.307,0,0,1-5.338-8.064c-.344-4.193-.719-9.032-.719-9.032s1.979-2.53,5.9-.536,8.331-1.616,10.6-3.2a8.286,8.286,0,0,0,3.13,4.442l1.5,1.153s-1.008,13.585-8.429,15.143l-.366,6.415A4.81,4.81,0,0,1,3134.716,940.59Z" transform="translate(-3128.889 -913.896)"/><g class="ao"><g transform="translate(-1.852 -3.768)"><path class="ap" d="M3113.214,890.344s.077,1.962,3.808,1.846,9.384,1.346,13.384-3.27c0,0,2.615,5.924,6.769,5.424l1.154-6.27L3127.79,882l-12.384,5.078Z" transform="translate(-3113.214 -881.996)"/></g><g transform="translate(5.591 20.829)"><path class="ap" d="M3176.218,1090.679l.466-.445a13.7,13.7,0,0,0,4.668.33,5.838,5.838,0,0,1-4.961,1.693Z" transform="translate(-3176.218 -1090.234)"/></g></g></g><g transform="translate(37.085 51.979)"><path class="e" d="M2854.112,1248.883s16.925-1.644,31.413-3.013a17.384,17.384,0,0,1,4.7-3.816c2.549-1.265,4.628-4.154,4.664-2.08s-2.377,3.641-2.377,3.641,3.589-.272,4.431,1.588-1.185,8.5-5.414,7.756-5.734-1.952-5.734-1.952-10.773,2.571-17.381,4.064-17.816,5.484-18.744-1.279C2849.061,1249.361,2854.112,1248.883,2854.112,1248.883Z" transform="translate(-2849.618 -1239.246)"/></g><g transform="translate(17.421 4.921)"><path class="aq" d="M2683.483,861.09a.34.34,0,0,1-.051-.677c1.3-.2,2.517-.382,3.668-.556,10.355-1.561,15.082-2.274,22.423-5.351,10.406-4.362,24.631-13.512,24.774-13.6a.34.34,0,0,1,.369.572c-.143.092-14.418,9.274-24.88,13.659-7.42,3.11-12.488,3.874-22.585,5.4-1.151.174-2.37.357-3.667.556A.354.354,0,0,1,2683.483,861.09Z" transform="translate(-2683.144 -840.849)"/></g><g class="ar" transform="translate(11.449 2.288)"><path class="i" d="M2645.381,849.129a37.646,37.646,0,0,1-12.606-2.169.284.284,0,0,1,.188-.535c25.779,9.1,48.687-13.108,57.311-21.467l.738-.714c7.863-7.588,12.084-5.421,12.26-5.325a.284.284,0,0,1-.27.5,4.76,4.76,0,0,0-2.916-.142c-1.782.351-4.735,1.57-8.679,5.376l-.737.713c-4.258,4.127-12.183,11.809-22.314,17.326C2660.482,846.98,2652.8,849.129,2645.381,849.129Z" transform="translate(-2632.586 -818.562)"/></g><g class="ar" transform="translate(10.325 6.108)"><path class="as" d="M2633.014,892.546a43.045,43.045,0,0,1-9.732-1.132.284.284,0,1,1,.128-.552c30.837,7.137,51.96-22.3,58.9-31.972l.269-.375c4.123-5.74,7.1-7.28,8.866-7.561a2.889,2.889,0,0,1,2.1.314.284.284,0,0,1-.333.459h0a2.825,2.825,0,0,0-2.474-.01c-1.557.532-4.155,2.2-7.7,7.129l-.269.375c-3.742,5.215-10.708,14.923-20.753,22.6C2652.677,888.958,2642.956,892.546,2633.014,892.546Z" transform="translate(-2623.063 -850.901)"/></g><g transform="translate(109.182 63.573)"><g transform="translate(0 6.545)"><path class="at" d="M3501.657,1394.637l-39.3-1.824-1.462,1.384-.915,46.813,39.3,1.824,1.462-1.384Z" transform="translate(-3459.98 -1392.813)"/><g transform="translate(1.462)"><path class="au" d="M3511.654,1441.45l-39.3-1.824.915-46.813,39.3,1.824Z" transform="translate(-3472.354 -1392.813)"/></g></g><g transform="translate(18.964)"><path class="av" d="M3620.786,1343.718c.437-.472.294-.984-.174-2.859s1.123-3.848,4.243-3.392,2.26,3.357,1.929,4.068a2.855,2.855,0,0,0-.214,2.374Z" transform="translate(-3620.531 -1337.4)"/></g><g transform="translate(20.704 1.203)"><ellipse class="j" cx="1.513" cy="1.147" rx="1.513" ry="1.147" transform="translate(0 0.306) rotate(-5.796)"/></g><g transform="translate(4.604 9.537)"><path class="j" d="M3499.761,1418.138l33.2,1.541-.235,41.351-33.767-1.567Z" transform="translate(-3498.957 -1418.138)"/></g><g transform="translate(14.003 5.641)"><path class="av" d="M3578.527,1389.821l.121-3.607a1.124,1.124,0,0,1,1.151-1.056l13.553.629a.872.872,0,0,1,.849.935l-.2,3.6a1.125,1.125,0,0,1-1.15,1.035l-13.476-.625A.87.87,0,0,1,3578.527,1389.821Z" transform="translate(-3578.527 -1385.158)"/></g><g transform="translate(6.27 12.147)"><g transform="translate(1.36)"><path class="aw" d="M3552.356,1442.016l-27.561-1.279a.224.224,0,0,1-.215-.264.289.289,0,0,1,.292-.24l27.561,1.279a.224.224,0,0,1,.215.264A.289.289,0,0,1,3552.356,1442.016Z" transform="translate(-3524.577 -1440.233)"/></g><g transform="translate(1.224 3.679)"><path class="aw" d="M3551.412,1473.172l-27.769-1.289a.223.223,0,0,1-.214-.264.289.289,0,0,1,.292-.24l27.769,1.289a.224.224,0,0,1,.214.264A.288.288,0,0,1,3551.412,1473.172Z" transform="translate(-3523.426 -1471.379)"/></g><g transform="translate(1.088 7.358)"><path class="aw" d="M3550.467,1504.326l-27.975-1.3a.224.224,0,0,1-.215-.264.289.289,0,0,1,.292-.24l27.975,1.3a.224.224,0,0,1,.215.264A.289.289,0,0,1,3550.467,1504.326Z" transform="translate(-3522.274 -1502.524)"/></g><g transform="translate(0.952 11.037)"><path class="aw" d="M3549.522,1535.482l-28.182-1.308a.223.223,0,0,1-.214-.264.288.288,0,0,1,.292-.24l28.182,1.308a.224.224,0,0,1,.214.264A.288.288,0,0,1,3549.522,1535.482Z" transform="translate(-3521.123 -1533.67)"/></g><g transform="translate(0.816 14.716)"><path class="aw" d="M3548.578,1566.637l-28.389-1.318a.224.224,0,0,1-.214-.264.288.288,0,0,1,.292-.24l28.389,1.318a.224.224,0,0,1,.215.264A.289.289,0,0,1,3548.578,1566.637Z" transform="translate(-3519.972 -1564.816)"/></g><g transform="translate(0.68 18.395)"><path class="aw" d="M3547.634,1597.792l-28.6-1.327a.224.224,0,0,1-.215-.264.289.289,0,0,1,.292-.24l28.6,1.327a.224.224,0,0,1,.215.264A.288.288,0,0,1,3547.634,1597.792Z" transform="translate(-3518.821 -1595.961)"/></g><g transform="translate(0.544 22.074)"><path class="aw" d="M3546.689,1628.948l-28.8-1.337a.224.224,0,0,1-.214-.264.288.288,0,0,1,.292-.24l28.8,1.337a.224.224,0,0,1,.215.264A.289.289,0,0,1,3546.689,1628.948Z" transform="translate(-3517.669 -1627.107)"/></g><g transform="translate(0.408 25.753)"><path class="aw" d="M3545.745,1660.1l-29.009-1.346a.224.224,0,0,1-.215-.264.289.289,0,0,1,.292-.24l29.009,1.346a.223.223,0,0,1,.214.264A.288.288,0,0,1,3545.745,1660.1Z" transform="translate(-3516.518 -1658.253)"/></g><g transform="translate(0.272 29.431)"><path class="aw" d="M3544.8,1691.258l-29.216-1.356a.224.224,0,0,1-.215-.264.289.289,0,0,1,.292-.24l29.216,1.356a.224.224,0,0,1,.215.264A.289.289,0,0,1,3544.8,1691.258Z" transform="translate(-3515.367 -1689.398)"/></g><g transform="translate(0.136 33.11)"><path class="aw" d="M3543.856,1722.414l-29.423-1.366a.224.224,0,0,1-.215-.264.289.289,0,0,1,.292-.24l29.423,1.366a.224.224,0,0,1,.215.264A.289.289,0,0,1,3543.856,1722.414Z" transform="translate(-3514.216 -1720.544)"/></g><g transform="translate(0 36.789)"><path class="aw" d="M3542.912,1753.568l-29.63-1.375a.224.224,0,0,1-.215-.264.289.289,0,0,1,.292-.24l29.63,1.375a.224.224,0,0,1,.215.264A.288.288,0,0,1,3542.912,1753.568Z" transform="translate(-3513.064 -1751.689)"/></g></g></g></g></g></g></svg>